<svg width="1080" height="1080" viewBox="0 0 1080 1080" fill="none" xmlns="http://www.w3.org/2000/svg">
<rect width="1080" height="1080" fill="url(#paint0_linear)"/>
<mask id="mask0" mask-type="alpha" maskUnits="userSpaceOnUse" x="0" y="0" width="1080" height="1080">
<rect width="1080" height="1080" fill="url(#paint1_linear)"/>
</mask>
<g mask="url(#mask0)">
<g opacity="0.2">
<path d="M563.948 291.413L565.883 163.711L435.366 161.776L433.431 289.478L563.948 291.413Z" fill="url(#paint2_linear)"/>
<path d="M298.517 546.817L300.276 419.115L169.935 417.18L168 544.882L298.517 546.817Z" fill="url(#paint3_linear)"/>
<path d="M562.013 418.939L563.948 291.412L431.672 417.004L562.013 418.939Z" fill="url(#paint4_linear)"/>
<path d="M427.451 671.002L429.21 543.299L296.934 668.891L427.451 671.002Z" fill="url(#paint5_linear)"/>
<path d="M556.385 801.87L558.319 674.343L553.57 674.343C484.09 673.288 426.923 729.576 425.868 800.111L556.385 801.87Z" fill="url(#paint6_linear)"/>
<path d="M554.449 929.396L556.384 801.87L425.868 799.935L423.933 927.461L554.449 929.396Z" fill="url(#paint7_linear)"/>
<path d="M1072.12 1192.37L1074.05 1064.84L943.538 1062.9C942.482 1133.44 997.89 1191.31 1067.37 1192.37L1072.12 1192.37Z" fill="url(#paint8_linear)"/>
<path d="M690.596 548.576L692.531 420.873L562.014 418.938L690.596 548.576Z" fill="url(#paint9_linear)"/>
<path d="M1078.8 680.852L1080.74 553.15L950.222 551.215L1078.8 680.852Z" fill="url(#paint10_linear)"/>
<path d="M688.66 676.102L690.595 548.576L560.078 546.641L558.319 674.167L688.66 676.102Z" fill="url(#paint11_linear)"/>
<path d="M686.725 803.805L688.66 676.103L558.319 674.168L556.384 801.871L686.725 803.805Z" fill="url(#paint12_linear)"/>
<path d="M951.101 551.918L952.86 424.391L822.519 422.456L820.584 549.983L951.101 551.918Z" fill="url(#paint13_linear)"/>
<path d="M684.966 931.332L686.725 803.805L556.384 801.87L554.449 929.397L684.966 931.332Z" fill="url(#paint14_linear)"/>
<path d="M817.242 805.74L819.177 678.038L688.66 676.103L817.242 805.74Z" fill="url(#paint15_linear)"/>
<path d="M815.307 933.266L817.242 805.74L814.428 805.74C743.892 804.684 686.022 860.972 684.966 931.507L815.307 933.266Z" fill="url(#paint16_linear)"/>
<path d="M813.373 1060.97L815.308 933.267L684.967 931.332L683.032 1059.03L813.373 1060.97Z" fill="url(#paint17_linear)"/>
<path d="M811.613 1188.5L813.372 1060.97L683.032 1059.03L681.097 1186.56L811.613 1188.5Z" fill="url(#paint18_linear)"/>
<path d="M949.518 679.973L951.453 552.446L946.704 552.446C877.224 551.391 820.057 607.678 819.001 678.214L949.518 679.973Z" fill="url(#paint19_linear)"/>
<path d="M947.583 807.675L949.518 679.972L819.177 678.037L817.242 805.74L947.583 807.675Z" fill="url(#paint20_linear)"/>
<path d="M945.824 935.202L947.583 807.676L817.243 805.741L815.308 933.267L945.824 935.202Z" fill="url(#paint21_linear)"/>
<path d="M941.954 1190.43L943.889 1062.9L813.372 1060.97L811.613 1188.5L941.954 1190.43Z" fill="url(#paint22_linear)"/>
<path d="M1076.17 937.136L1078.1 809.61L947.583 807.675L945.824 935.201L1076.17 937.136Z" fill="url(#paint23_linear)"/>
<path d="M1074.23 1064.84L1076.17 937.136L945.824 935.201L1074.23 1064.84Z" fill="url(#paint24_linear)"/>
<path d="M692.53 420.874L694.465 293.347L563.948 291.412C562.893 361.947 618.301 419.818 687.781 420.874L692.53 420.874Z" fill="url(#paint25_linear)"/>
<path d="M684.791 932.211L684.791 931.331L554.274 929.396L552.339 1056.92L556.033 1056.92C626.216 1058.15 683.911 1002.22 684.791 932.211Z" fill="url(#paint26_linear)"/>
<path d="M819.177 678.038L820.936 550.511L690.595 548.576L688.66 676.103L819.177 678.038Z" fill="url(#paint27_linear)"/>
<path d="M1078.1 809.61C1079.16 739.074 1023.75 681.204 954.267 680.148L949.518 680.148L947.583 807.675L1078.1 809.61Z" fill="url(#paint28_linear)"/>
<path d="M437.653 416.652L431.497 422.633L431.497 427.558L442.402 416.828L437.653 416.652Z" fill="url(#paint29_linear)"/>
<path d="M459.289 417.004L431.145 444.796L431.145 449.721L464.214 417.18L459.289 417.004Z" fill="url(#paint30_linear)"/>
<path d="M481.1 417.355L430.793 466.783L430.793 471.708L486.025 417.355L481.1 417.355Z" fill="url(#paint31_linear)"/>
<path d="M502.912 417.707L430.441 488.946L430.441 493.871L507.661 417.707L502.912 417.707Z" fill="url(#paint32_linear)"/>
<path d="M524.547 418.059L430.266 511.109L430.09 516.034L529.473 418.059L524.547 418.059Z" fill="url(#paint33_linear)"/>
<path d="M546.359 418.411L429.914 533.097L429.738 538.022L551.284 418.411L546.359 418.411Z" fill="url(#paint34_linear)"/>
<path d="M562.014 424.743L440.468 544.354L445.393 544.53L561.838 429.668L562.014 424.743Z" fill="url(#paint35_linear)"/>
<path d="M561.662 446.906L462.279 544.706L467.204 544.882L561.486 451.831L561.662 446.906Z" fill="url(#paint36_linear)"/>
<path d="M561.31 468.894L484.09 545.058L488.84 545.058L561.134 473.819L561.31 468.894Z" fill="url(#paint37_linear)"/>
<path d="M560.958 491.057L505.726 545.41L510.651 545.41L560.958 495.982L560.958 491.057Z" fill="url(#paint38_linear)"/>
<path d="M560.607 513.044L527.538 545.761L532.463 545.761L560.607 517.969L560.607 513.044Z" fill="url(#paint39_linear)"/>
<path d="M560.255 535.208L549.349 546.113L554.098 546.113L560.255 540.133L560.255 535.208Z" fill="url(#paint40_linear)"/>
<path d="M821.464 933.443L815.308 939.424L815.308 944.349L826.213 933.443L821.464 933.443Z" fill="url(#paint41_linear)"/>
<path d="M843.276 933.795L815.132 961.411L814.956 966.336L848.025 933.795L843.276 933.795Z" fill="url(#paint42_linear)"/>
<path d="M864.911 934.146L814.78 983.574L814.604 988.499L869.836 934.146L864.911 934.146Z" fill="url(#paint43_linear)"/>
<path d="M886.722 934.322L814.428 1005.56L814.252 1010.66L891.647 934.498L886.722 934.322Z" fill="url(#paint44_linear)"/>
<path d="M908.534 934.675L814.076 1027.72L813.9 1032.65L913.283 934.85L908.534 934.675Z" fill="url(#paint45_linear)"/>
<path d="M930.169 935.026L813.725 1049.89L813.725 1054.81L935.095 935.026L930.169 935.026Z" fill="url(#paint46_linear)"/>
<path d="M945.824 941.534L824.454 1061.15L829.203 1061.15L945.648 946.459L945.824 941.534Z" fill="url(#paint47_linear)"/>
<path d="M945.473 963.522L846.09 1061.5L851.015 1061.5L945.473 968.447L945.473 963.522Z" fill="url(#paint48_linear)"/>
<path d="M945.12 985.685L867.901 1061.67L872.826 1061.85L945.12 990.61L945.12 985.685Z" fill="url(#paint49_linear)"/>
<path d="M944.769 1007.67L889.712 1062.02L894.462 1062.2L944.769 1012.6L944.769 1007.67Z" fill="url(#paint50_linear)"/>
<path d="M944.417 1029.84L911.348 1062.38L916.273 1062.55L944.417 1034.76L944.417 1029.84Z" fill="url(#paint51_linear)"/>
<path d="M944.241 1051.82L933.16 1062.73L938.085 1062.73L944.065 1056.75L944.241 1051.82Z" fill="url(#paint52_linear)"/>
<path d="M960.951 42.5162L962.886 -85.0102L960.072 -85.0102C889.536 -86.0656 831.666 -29.7781 830.61 40.7572L960.951 42.5162Z" fill="url(#paint53_linear)"/>
<path d="M823.75 295.105L825.685 167.403L695.168 165.468L693.233 293.17L823.75 295.105Z" fill="url(#paint54_linear)"/>
<path d="M426.922 799.583L428.857 671.881L298.341 669.946L296.582 797.649L426.922 799.583Z" fill="url(#paint55_linear)"/>
<path d="M956.026 169.338L957.961 41.8112L827.444 39.8763L825.685 167.403L956.026 169.338Z" fill="url(#paint56_linear)"/>
<path d="M1086.54 171.449L1088.3 43.747L957.961 41.8121L956.026 169.339L1086.54 171.449Z" fill="url(#paint57_linear)"/>
<path d="M1084.61 298.976L1086.54 171.449L1081.79 171.449C1012.31 170.394 955.147 226.681 954.092 297.217L1084.61 298.976Z" fill="url(#paint58_linear)"/>
<path d="M821.816 422.632L823.751 295.105L693.234 293.171L691.299 420.697L821.816 422.632Z" fill="url(#paint59_linear)"/>
<path d="M952.332 424.567L954.267 297.041L823.75 295.106C822.695 365.641 878.103 423.512 947.583 424.567L952.332 424.567Z" fill="url(#paint60_linear)"/>
<path d="M428.154 546.993L430.089 419.467L299.572 417.532C298.517 488.067 353.925 545.938 423.405 546.993L428.154 546.993Z" fill="url(#paint61_linear)"/>
<path d="M1082.67 426.502L1084.61 298.976L954.091 297.041L952.332 424.568L1082.67 426.502Z" fill="url(#paint62_linear)"/>
<path d="M703.084 37.9433L696.927 43.9238L696.927 48.8491L707.833 38.1192L703.084 37.9433Z" fill="url(#paint63_linear)"/>
<path d="M724.719 38.2953L696.576 66.0872L696.576 71.0124L729.645 38.4711L724.719 38.2953Z" fill="url(#paint64_linear)"/>
<path d="M746.531 38.647L696.224 88.0746L696.224 92.9998L751.456 38.647L746.531 38.647Z" fill="url(#paint65_linear)"/>
<path d="M768.342 38.9982L696.048 110.237L695.872 115.162L773.092 38.9982L768.342 38.9982Z" fill="url(#paint66_linear)"/>
<path d="M790.154 39.3503L695.696 132.225L695.52 137.326L794.903 39.3503L790.154 39.3503Z" fill="url(#paint67_linear)"/>
<path d="M811.789 39.702L695.344 154.388L695.168 159.313L816.714 39.702L811.789 39.702Z" fill="url(#paint68_linear)"/>
<path d="M827.444 46.0343L705.898 165.645L710.824 165.821L827.269 50.9595L827.444 46.0343Z" fill="url(#paint69_linear)"/>
<path d="M827.093 68.1979L727.71 165.997L732.635 165.997L826.917 73.123L827.093 68.1979Z" fill="url(#paint70_linear)"/>
<path d="M826.741 90.1849L749.521 166.349L754.271 166.349L826.741 95.1101L826.741 90.1849Z" fill="url(#paint71_linear)"/>
<path d="M826.389 112.349L771.157 166.701L776.082 166.701L826.389 117.274L826.389 112.349Z" fill="url(#paint72_linear)"/>
<path d="M826.037 134.335L792.968 167.052L797.893 167.052L826.037 139.26L826.037 134.335Z" fill="url(#paint73_linear)"/>
<path d="M825.685 156.499L814.779 167.229L819.704 167.405L825.685 161.424L825.685 156.499Z" fill="url(#paint74_linear)"/>
<path d="M1055.41 -85.5381L960.951 7.51236L960.951 12.4375L1060.33 -85.5381L1055.41 -85.5381Z" fill="url(#paint75_linear)"/>
<path d="M1077.22 -85.1866L960.6 29.4995L960.6 34.4246L1081.97 -85.1866L1077.22 -85.1866Z" fill="url(#paint76_linear)"/>
<path d="M1092.7 -78.8537L971.33 40.7574L976.255 40.9334L1092.7 -73.9285L1092.7 -78.8537Z" fill="url(#paint77_linear)"/>
<path d="M1092.35 -56.691L993.141 41.1087L997.89 41.2845L1092.35 -51.7658L1092.35 -56.691Z" fill="url(#paint78_linear)"/>
<path d="M1092.17 -34.7035L1014.78 41.4606L1019.7 41.4606L1092 -29.7783L1092.17 -34.7035Z" fill="url(#paint79_linear)"/>
<path d="M1091.82 -12.5401L1036.59 41.8126L1041.51 41.8126L1091.64 -7.61497L1091.82 -12.5401Z" fill="url(#paint80_linear)"/>
<path d="M1091.47 9.44682L1058.4 42.1639L1063.15 42.1639L1091.29 14.372L1091.47 9.44682Z" fill="url(#paint81_linear)"/>
</g>
</g>
<defs>
<linearGradient id="paint0_linear" x1="1080" y1="1080" x2="-33.1598" y2="588.817" gradientUnits="userSpaceOnUse">
<stop offset="0.1229" stop-color="#06719E"/>
<stop offset="0.8934" stop-color="#0863A0"/>
</linearGradient>
<linearGradient id="paint1_linear" x1="1080" y1="1080" x2="-33.1598" y2="588.817" gradientUnits="userSpaceOnUse">
<stop offset="0.1229" stop-color="#073143"/>
<stop offset="0.8934" stop-color="#0863A0"/>
</linearGradient>
<linearGradient id="paint2_linear" x1="436.565" y1="160.533" x2="564.647" y2="290.548" gradientUnits="userSpaceOnUse">
<stop offset="0.1229" stop-color="#26B1F7"/>
<stop offset="0.8987" stop-color="#54B9F7" stop-opacity="0.5"/>
</linearGradient>
<linearGradient id="paint3_linear" x1="244.538" y1="356.339" x2="222.156" y2="628.07" gradientUnits="userSpaceOnUse">
<stop offset="0.1229" stop-color="#00ABF4"/>
<stop offset="0.8934" stop-color="#A4DCFC"/>
</linearGradient>
<linearGradient id="paint4_linear" x1="496.592" y1="352.884" x2="561.81" y2="419.086" gradientUnits="userSpaceOnUse">
<stop offset="0.1229" stop-color="#26B1F7"/>
<stop offset="0.8987" stop-color="#54B9F7" stop-opacity="0.5"/>
</linearGradient>
<linearGradient id="paint5_linear" x1="361.966" y1="604.823" x2="427.183" y2="671.025" gradientUnits="userSpaceOnUse">
<stop offset="0.1229" stop-color="#063E56"/>
<stop offset="0.8934" stop-color="#0581C6"/>
</linearGradient>
<linearGradient id="paint6_linear" x1="465.265" y1="708.89" x2="556.522" y2="801.524" gradientUnits="userSpaceOnUse">
<stop offset="0.1229" stop-color="#26B1F7"/>
<stop offset="0.8987" stop-color="#54B9F7" stop-opacity="0.5"/>
</linearGradient>
<linearGradient id="paint7_linear" x1="427.1" y1="798.573" x2="555.182" y2="928.587" gradientUnits="userSpaceOnUse">
<stop offset="0.1229" stop-color="#063E56"/>
<stop offset="0.8934" stop-color="#0581C6"/>
</linearGradient>
<linearGradient id="paint8_linear" x1="980.195" y1="1154.91" x2="1074.17" y2="1065.04" gradientUnits="userSpaceOnUse">
<stop offset="0.1229" stop-color="#26B1F7"/>
<stop offset="0.8987" stop-color="#54B9F7" stop-opacity="0.5"/>
</linearGradient>
<linearGradient id="paint9_linear" x1="595.125" y1="386.265" x2="723.207" y2="516.28" gradientUnits="userSpaceOnUse">
<stop offset="0.1229" stop-color="#063E56"/>
<stop offset="0.8934" stop-color="#0581C6"/>
</linearGradient>
<linearGradient id="paint10_linear" x1="983.39" y1="518.51" x2="1111.47" y2="648.525" gradientUnits="userSpaceOnUse">
<stop offset="0.1229" stop-color="#26B1F7"/>
<stop offset="0.8987" stop-color="#54B9F7" stop-opacity="0.5"/>
</linearGradient>
<linearGradient id="paint11_linear" x1="561.325" y1="545.305" x2="689.407" y2="675.32" gradientUnits="userSpaceOnUse">
<stop offset="0.1229" stop-color="#26B1F7"/>
<stop offset="0.8987" stop-color="#54B9F7" stop-opacity="0.5"/>
</linearGradient>
<linearGradient id="paint12_linear" x1="559.432" y1="672.914" x2="687.514" y2="802.929" gradientUnits="userSpaceOnUse">
<stop offset="0.1229" stop-color="#063E56"/>
<stop offset="0.8934" stop-color="#0581C6"/>
</linearGradient>
<linearGradient id="paint13_linear" x1="823.68" y1="421.161" x2="951.762" y2="551.175" gradientUnits="userSpaceOnUse">
<stop offset="0.1229" stop-color="#26B1F7"/>
<stop offset="0.8987" stop-color="#54B9F7" stop-opacity="0.5"/>
</linearGradient>
<linearGradient id="paint14_linear" x1="557.539" y1="800.522" x2="685.621" y2="930.537" gradientUnits="userSpaceOnUse">
<stop offset="0.1229" stop-color="#26B1F7"/>
<stop offset="0.8987" stop-color="#54B9F7" stop-opacity="0.5"/>
</linearGradient>
<linearGradient id="paint15_linear" x1="751.755" y1="742.128" x2="818.913" y2="677.906" gradientUnits="userSpaceOnUse">
<stop offset="0.1229" stop-color="#26B1F7"/>
<stop offset="0.8987" stop-color="#54B9F7" stop-opacity="0.5"/>
</linearGradient>
<linearGradient id="paint16_linear" x1="724.52" y1="840.679" x2="815.503" y2="933.035" gradientUnits="userSpaceOnUse">
<stop offset="0.1229" stop-color="#063E56"/>
<stop offset="0.8934" stop-color="#0581C6"/>
</linearGradient>
<linearGradient id="paint17_linear" x1="686.085" y1="930.08" x2="814.168" y2="1060.09" gradientUnits="userSpaceOnUse">
<stop offset="0.1229" stop-color="#26B1F7"/>
<stop offset="0.8987" stop-color="#54B9F7" stop-opacity="0.5"/>
</linearGradient>
<linearGradient id="paint18_linear" x1="684.193" y1="1057.69" x2="812.274" y2="1187.7" gradientUnits="userSpaceOnUse">
<stop offset="0.1229" stop-color="#063E56"/>
<stop offset="0.8934" stop-color="#0581C6"/>
</linearGradient>
<linearGradient id="paint19_linear" x1="858.475" y1="587.131" x2="949.732" y2="679.764" gradientUnits="userSpaceOnUse">
<stop offset="0.1229" stop-color="#26B1F7"/>
<stop offset="0.8987" stop-color="#54B9F7" stop-opacity="0.5"/>
</linearGradient>
<linearGradient id="paint20_linear" x1="820.31" y1="676.812" x2="948.392" y2="806.827" gradientUnits="userSpaceOnUse">
<stop offset="0.1229" stop-color="#063E56"/>
<stop offset="0.8934" stop-color="#0581C6"/>
</linearGradient>
<linearGradient id="paint21_linear" x1="818.418" y1="804.422" x2="946.5" y2="934.436" gradientUnits="userSpaceOnUse">
<stop offset="0.1229" stop-color="#26B1F7"/>
<stop offset="0.8987" stop-color="#54B9F7" stop-opacity="0.5"/>
</linearGradient>
<linearGradient id="paint22_linear" x1="814.631" y1="1059.64" x2="942.713" y2="1189.65" gradientUnits="userSpaceOnUse">
<stop offset="0.1229" stop-color="#26B1F7"/>
<stop offset="0.8987" stop-color="#54B9F7" stop-opacity="0.5"/>
</linearGradient>
<linearGradient id="paint23_linear" x1="948.857" y1="806.37" x2="1076.94" y2="936.384" gradientUnits="userSpaceOnUse">
<stop offset="0.1229" stop-color="#063E56"/>
<stop offset="0.8934" stop-color="#0581C6"/>
</linearGradient>
<linearGradient id="paint24_linear" x1="978.87" y1="902.546" x2="1106.95" y2="1032.56" gradientUnits="userSpaceOnUse">
<stop offset="0.1229" stop-color="#26B1F7"/>
<stop offset="0.8987" stop-color="#54B9F7" stop-opacity="0.5"/>
</linearGradient>
<linearGradient id="paint25_linear" x1="583.802" y1="271.677" x2="711.884" y2="401.692" gradientUnits="userSpaceOnUse">
<stop offset="0.1229" stop-color="#26B1F7"/>
<stop offset="0.8987" stop-color="#54B9F7" stop-opacity="0.5"/>
</linearGradient>
<linearGradient id="paint26_linear" x1="555.646" y1="928.13" x2="646.898" y2="1020.76" gradientUnits="userSpaceOnUse">
<stop offset="0.1229" stop-color="#063E56"/>
<stop offset="0.8934" stop-color="#0581C6"/>
</linearGradient>
<linearGradient id="paint27_linear" x1="691.764" y1="547.256" x2="819.846" y2="677.27" gradientUnits="userSpaceOnUse">
<stop offset="0.1229" stop-color="#063E56"/>
<stop offset="0.8934" stop-color="#0581C6"/>
</linearGradient>
<linearGradient id="paint28_linear" x1="932.059" y1="697.174" x2="1060.14" y2="827.189" gradientUnits="userSpaceOnUse">
<stop offset="0.1229" stop-color="#26B1F7"/>
<stop offset="0.8987" stop-color="#54B9F7" stop-opacity="0.5"/>
</linearGradient>
<linearGradient id="paint29_linear" x1="430.247" y1="426.383" x2="441.403" y2="415.715" gradientUnits="userSpaceOnUse">
<stop offset="0.1229" stop-color="#26B1F7"/>
<stop offset="0.8987" stop-color="#54B9F7" stop-opacity="0.5"/>
</linearGradient>
<linearGradient id="paint30_linear" x1="429.919" y1="448.469" x2="463.482" y2="416.373" gradientUnits="userSpaceOnUse">
<stop offset="0.1229" stop-color="#26B1F7"/>
<stop offset="0.8987" stop-color="#54B9F7" stop-opacity="0.5"/>
</linearGradient>
<linearGradient id="paint31_linear" x1="429.59" y1="470.555" x2="485.561" y2="417.031" gradientUnits="userSpaceOnUse">
<stop offset="0.1229" stop-color="#26B1F7"/>
<stop offset="0.8987" stop-color="#54B9F7" stop-opacity="0.5"/>
</linearGradient>
<linearGradient id="paint32_linear" x1="429.261" y1="492.64" x2="507.638" y2="417.69" gradientUnits="userSpaceOnUse">
<stop offset="0.1229" stop-color="#26B1F7"/>
<stop offset="0.8987" stop-color="#54B9F7" stop-opacity="0.5"/>
</linearGradient>
<linearGradient id="paint33_linear" x1="428.933" y1="514.726" x2="529.717" y2="418.348" gradientUnits="userSpaceOnUse">
<stop offset="0.1229" stop-color="#26B1F7"/>
<stop offset="0.8987" stop-color="#54B9F7" stop-opacity="0.5"/>
</linearGradient>
<linearGradient id="paint34_linear" x1="428.605" y1="536.812" x2="551.797" y2="419.006" gradientUnits="userSpaceOnUse">
<stop offset="0.1229" stop-color="#26B1F7"/>
<stop offset="0.8987" stop-color="#54B9F7" stop-opacity="0.5"/>
</linearGradient>
<linearGradient id="paint35_linear" x1="441.709" y1="545.664" x2="564.9" y2="427.858" gradientUnits="userSpaceOnUse">
<stop offset="0.1229" stop-color="#26B1F7"/>
<stop offset="0.8987" stop-color="#54B9F7" stop-opacity="0.5"/>
</linearGradient>
<linearGradient id="paint36_linear" x1="463.468" y1="545.99" x2="564.252" y2="449.612" gradientUnits="userSpaceOnUse">
<stop offset="0.1229" stop-color="#26B1F7"/>
<stop offset="0.8987" stop-color="#54B9F7" stop-opacity="0.5"/>
</linearGradient>
<linearGradient id="paint37_linear" x1="485.229" y1="546.316" x2="563.605" y2="471.367" gradientUnits="userSpaceOnUse">
<stop offset="0.1229" stop-color="#26B1F7"/>
<stop offset="0.8987" stop-color="#54B9F7" stop-opacity="0.5"/>
</linearGradient>
<linearGradient id="paint38_linear" x1="506.988" y1="546.642" x2="562.959" y2="493.118" gradientUnits="userSpaceOnUse">
<stop offset="0.1229" stop-color="#26B1F7"/>
<stop offset="0.8987" stop-color="#54B9F7" stop-opacity="0.5"/>
</linearGradient>
<linearGradient id="paint39_linear" x1="528.749" y1="546.967" x2="562.312" y2="514.871" gradientUnits="userSpaceOnUse">
<stop offset="0.1229" stop-color="#26B1F7"/>
<stop offset="0.8987" stop-color="#54B9F7" stop-opacity="0.5"/>
</linearGradient>
<linearGradient id="paint40_linear" x1="550.51" y1="547.292" x2="561.665" y2="536.625" gradientUnits="userSpaceOnUse">
<stop offset="0.1229" stop-color="#26B1F7"/>
<stop offset="0.8987" stop-color="#54B9F7" stop-opacity="0.5"/>
</linearGradient>
<linearGradient id="paint41_linear" x1="814.092" y1="943.09" x2="825.248" y2="932.422" gradientUnits="userSpaceOnUse">
<stop offset="0.1229" stop-color="#26B1F7"/>
<stop offset="0.8987" stop-color="#54B9F7" stop-opacity="0.5"/>
</linearGradient>
<linearGradient id="paint42_linear" x1="813.764" y1="965.176" x2="847.327" y2="933.08" gradientUnits="userSpaceOnUse">
<stop offset="0.1229" stop-color="#26B1F7"/>
<stop offset="0.8987" stop-color="#54B9F7" stop-opacity="0.5"/>
</linearGradient>
<linearGradient id="paint43_linear" x1="813.435" y1="987.261" x2="869.405" y2="933.738" gradientUnits="userSpaceOnUse">
<stop offset="0.1229" stop-color="#26B1F7"/>
<stop offset="0.8987" stop-color="#54B9F7" stop-opacity="0.5"/>
</linearGradient>
<linearGradient id="paint44_linear" x1="813.106" y1="1009.35" x2="891.482" y2="934.397" gradientUnits="userSpaceOnUse">
<stop offset="0.1229" stop-color="#26B1F7"/>
<stop offset="0.8987" stop-color="#54B9F7" stop-opacity="0.5"/>
</linearGradient>
<linearGradient id="paint45_linear" x1="812.777" y1="1031.43" x2="913.562" y2="935.055" gradientUnits="userSpaceOnUse">
<stop offset="0.1229" stop-color="#26B1F7"/>
<stop offset="0.8987" stop-color="#54B9F7" stop-opacity="0.5"/>
</linearGradient>
<linearGradient id="paint46_linear" x1="812.45" y1="1053.52" x2="935.641" y2="935.713" gradientUnits="userSpaceOnUse">
<stop offset="0.1229" stop-color="#26B1F7"/>
<stop offset="0.8987" stop-color="#54B9F7" stop-opacity="0.5"/>
</linearGradient>
<linearGradient id="paint47_linear" x1="825.553" y1="1062.37" x2="948.744" y2="944.565" gradientUnits="userSpaceOnUse">
<stop offset="0.1229" stop-color="#26B1F7"/>
<stop offset="0.8987" stop-color="#54B9F7" stop-opacity="0.5"/>
</linearGradient>
<linearGradient id="paint48_linear" x1="847.313" y1="1062.7" x2="948.097" y2="966.319" gradientUnits="userSpaceOnUse">
<stop offset="0.1229" stop-color="#26B1F7"/>
<stop offset="0.8987" stop-color="#54B9F7" stop-opacity="0.5"/>
</linearGradient>
<linearGradient id="paint49_linear" x1="869.073" y1="1063.02" x2="947.449" y2="988.073" gradientUnits="userSpaceOnUse">
<stop offset="0.1229" stop-color="#26B1F7"/>
<stop offset="0.8987" stop-color="#54B9F7" stop-opacity="0.5"/>
</linearGradient>
<linearGradient id="paint50_linear" x1="890.832" y1="1063.35" x2="946.803" y2="1009.82" gradientUnits="userSpaceOnUse">
<stop offset="0.1229" stop-color="#26B1F7"/>
<stop offset="0.8987" stop-color="#54B9F7" stop-opacity="0.5"/>
</linearGradient>
<linearGradient id="paint51_linear" x1="912.593" y1="1063.67" x2="946.156" y2="1031.58" gradientUnits="userSpaceOnUse">
<stop offset="0.1229" stop-color="#26B1F7"/>
<stop offset="0.8987" stop-color="#54B9F7" stop-opacity="0.5"/>
</linearGradient>
<linearGradient id="paint52_linear" x1="934.354" y1="1064" x2="945.51" y2="1053.33" gradientUnits="userSpaceOnUse">
<stop offset="0.1229" stop-color="#26B1F7"/>
<stop offset="0.8987" stop-color="#54B9F7" stop-opacity="0.5"/>
</linearGradient>
<linearGradient id="paint53_linear" x1="870.142" y1="-50.046" x2="961.125" y2="42.3099" gradientUnits="userSpaceOnUse">
<stop offset="0.1229" stop-color="#26B1F7"/>
<stop offset="0.8987" stop-color="#54B9F7" stop-opacity="0.5"/>
</linearGradient>
<linearGradient id="paint54_linear" x1="696.354" y1="164.245" x2="824.436" y2="294.259" gradientUnits="userSpaceOnUse">
<stop offset="0.1229" stop-color="#26B1F7"/>
<stop offset="0.8987" stop-color="#54B9F7" stop-opacity="0.5"/>
</linearGradient>
<linearGradient id="paint55_linear" x1="299.589" y1="668.687" x2="427.671" y2="798.701" gradientUnits="userSpaceOnUse">
<stop offset="0.1229" stop-color="#26B1F7"/>
<stop offset="0.8987" stop-color="#54B9F7" stop-opacity="0.5"/>
</linearGradient>
<linearGradient id="paint56_linear" x1="828.686" y1="38.5858" x2="956.768" y2="168.601" gradientUnits="userSpaceOnUse">
<stop offset="0.1229" stop-color="#26B1F7"/>
<stop offset="0.8987" stop-color="#54B9F7" stop-opacity="0.5"/>
</linearGradient>
<linearGradient id="paint57_linear" x1="959.125" y1="40.5363" x2="1087.21" y2="170.551" gradientUnits="userSpaceOnUse">
<stop offset="0.1229" stop-color="#063E56"/>
<stop offset="0.8934" stop-color="#0581C6"/>
</linearGradient>
<linearGradient id="paint58_linear" x1="973.459" y1="317.221" x2="1105.35" y2="191.094" gradientUnits="userSpaceOnUse">
<stop offset="0.1229" stop-color="#26B1F7"/>
<stop offset="0.8987" stop-color="#54B9F7" stop-opacity="0.5"/>
</linearGradient>
<linearGradient id="paint59_linear" x1="694.461" y1="291.853" x2="822.543" y2="421.868" gradientUnits="userSpaceOnUse">
<stop offset="0.1229" stop-color="#063E56"/>
<stop offset="0.8934" stop-color="#0581C6"/>
</linearGradient>
<linearGradient id="paint60_linear" x1="843.59" y1="275.39" x2="971.672" y2="405.405" gradientUnits="userSpaceOnUse">
<stop offset="0.1229" stop-color="#063E56"/>
<stop offset="0.8934" stop-color="#0581C6"/>
</linearGradient>
<linearGradient id="paint61_linear" x1="319.526" y1="397.801" x2="447.608" y2="527.816" gradientUnits="userSpaceOnUse">
<stop offset="0.1229" stop-color="#063E56"/>
<stop offset="0.8934" stop-color="#0581C6"/>
</linearGradient>
<linearGradient id="paint62_linear" x1="955.339" y1="295.752" x2="1083.42" y2="425.767" gradientUnits="userSpaceOnUse">
<stop offset="0.1229" stop-color="#063E56"/>
<stop offset="0.8934" stop-color="#0581C6"/>
</linearGradient>
<linearGradient id="paint63_linear" x1="695.726" y1="47.6606" x2="706.882" y2="36.9925" gradientUnits="userSpaceOnUse">
<stop offset="0.1229" stop-color="#26B1F7"/>
<stop offset="0.8987" stop-color="#54B9F7" stop-opacity="0.5"/>
</linearGradient>
<linearGradient id="paint64_linear" x1="695.397" y1="69.7466" x2="728.961" y2="37.6505" gradientUnits="userSpaceOnUse">
<stop offset="0.1229" stop-color="#26B1F7"/>
<stop offset="0.8987" stop-color="#54B9F7" stop-opacity="0.5"/>
</linearGradient>
<linearGradient id="paint65_linear" x1="695.069" y1="91.8322" x2="751.039" y2="38.3088" gradientUnits="userSpaceOnUse">
<stop offset="0.1229" stop-color="#26B1F7"/>
<stop offset="0.8987" stop-color="#54B9F7" stop-opacity="0.5"/>
</linearGradient>
<linearGradient id="paint66_linear" x1="694.74" y1="113.917" x2="773.117" y2="38.967" gradientUnits="userSpaceOnUse">
<stop offset="0.1229" stop-color="#26B1F7"/>
<stop offset="0.8987" stop-color="#54B9F7" stop-opacity="0.5"/>
</linearGradient>
<linearGradient id="paint67_linear" x1="694.411" y1="136.003" x2="795.195" y2="39.6252" gradientUnits="userSpaceOnUse">
<stop offset="0.1229" stop-color="#26B1F7"/>
<stop offset="0.8987" stop-color="#54B9F7" stop-opacity="0.5"/>
</linearGradient>
<linearGradient id="paint68_linear" x1="694.084" y1="158.089" x2="817.275" y2="40.283" gradientUnits="userSpaceOnUse">
<stop offset="0.1229" stop-color="#26B1F7"/>
<stop offset="0.8987" stop-color="#54B9F7" stop-opacity="0.5"/>
</linearGradient>
<linearGradient id="paint69_linear" x1="707.187" y1="166.941" x2="830.379" y2="49.1354" gradientUnits="userSpaceOnUse">
<stop offset="0.1229" stop-color="#26B1F7"/>
<stop offset="0.8987" stop-color="#54B9F7" stop-opacity="0.5"/>
</linearGradient>
<linearGradient id="paint70_linear" x1="728.947" y1="167.267" x2="829.731" y2="70.8896" gradientUnits="userSpaceOnUse">
<stop offset="0.1229" stop-color="#26B1F7"/>
<stop offset="0.8987" stop-color="#54B9F7" stop-opacity="0.5"/>
</linearGradient>
<linearGradient id="paint71_linear" x1="750.708" y1="167.593" x2="829.084" y2="92.6437" gradientUnits="userSpaceOnUse">
<stop offset="0.1229" stop-color="#26B1F7"/>
<stop offset="0.8987" stop-color="#54B9F7" stop-opacity="0.5"/>
</linearGradient>
<linearGradient id="paint72_linear" x1="772.467" y1="167.919" x2="828.438" y2="114.395" gradientUnits="userSpaceOnUse">
<stop offset="0.1229" stop-color="#26B1F7"/>
<stop offset="0.8987" stop-color="#54B9F7" stop-opacity="0.5"/>
</linearGradient>
<linearGradient id="paint73_linear" x1="794.228" y1="168.244" x2="827.79" y2="136.148" gradientUnits="userSpaceOnUse">
<stop offset="0.1229" stop-color="#26B1F7"/>
<stop offset="0.8987" stop-color="#54B9F7" stop-opacity="0.5"/>
</linearGradient>
<linearGradient id="paint74_linear" x1="815.988" y1="168.57" x2="827.143" y2="157.903" gradientUnits="userSpaceOnUse">
<stop offset="0.1229" stop-color="#26B1F7"/>
<stop offset="0.8987" stop-color="#54B9F7" stop-opacity="0.5"/>
</linearGradient>
<linearGradient id="paint75_linear" x1="959.763" y1="11.145" x2="1060.55" y2="-85.2331" gradientUnits="userSpaceOnUse">
<stop offset="0.1229" stop-color="#26B1F7"/>
<stop offset="0.8987" stop-color="#54B9F7" stop-opacity="0.5"/>
</linearGradient>
<linearGradient id="paint76_linear" x1="959.435" y1="33.2305" x2="1082.63" y2="-84.5754" gradientUnits="userSpaceOnUse">
<stop offset="0.1229" stop-color="#26B1F7"/>
<stop offset="0.8987" stop-color="#54B9F7" stop-opacity="0.5"/>
</linearGradient>
<linearGradient id="paint77_linear" x1="972.539" y1="42.0831" x2="1095.73" y2="-75.7225" gradientUnits="userSpaceOnUse">
<stop offset="0.1229" stop-color="#26B1F7"/>
<stop offset="0.8987" stop-color="#54B9F7" stop-opacity="0.5"/>
</linearGradient>
<linearGradient id="paint78_linear" x1="994.299" y1="42.4085" x2="1095.08" y2="-53.9691" gradientUnits="userSpaceOnUse">
<stop offset="0.1229" stop-color="#26B1F7"/>
<stop offset="0.8987" stop-color="#54B9F7" stop-opacity="0.5"/>
</linearGradient>
<linearGradient id="paint79_linear" x1="1016.06" y1="42.7347" x2="1094.43" y2="-32.2149" gradientUnits="userSpaceOnUse">
<stop offset="0.1229" stop-color="#26B1F7"/>
<stop offset="0.8987" stop-color="#54B9F7" stop-opacity="0.5"/>
</linearGradient>
<linearGradient id="paint80_linear" x1="1037.82" y1="43.0595" x2="1093.79" y2="-10.4642" gradientUnits="userSpaceOnUse">
<stop offset="0.1229" stop-color="#26B1F7"/>
<stop offset="0.8987" stop-color="#54B9F7" stop-opacity="0.5"/>
</linearGradient>
<linearGradient id="paint81_linear" x1="1059.58" y1="43.3851" x2="1093.14" y2="11.2894" gradientUnits="userSpaceOnUse">
<stop offset="0.1229" stop-color="#26B1F7"/>
<stop offset="0.8987" stop-color="#54B9F7" stop-opacity="0.5"/>
</linearGradient>
</defs>
</svg>
