<svg width="348" height="192" viewBox="0 0 348 192" fill="none" xmlns="http://www.w3.org/2000/svg">
<path d="M156.181 69.8845L116.797 69.2878L116.2 109.54L155.585 110.137L156.181 69.8845Z" fill="url(#paint0_linear)"/>
<path d="M234.95 151.745L195.566 151.203L194.969 191.401L234.353 191.998L234.95 151.745Z" fill="url(#paint1_linear)"/>
<path d="M195.511 70.4811L156.181 69.8844L194.915 110.679L195.511 70.4811Z" fill="url(#paint2_linear)"/>
<path d="M273.249 111.981L233.865 111.439L272.598 152.234L273.249 111.981Z" fill="url(#paint3_linear)"/>
<path d="M313.61 72.2171L274.28 71.6204L274.28 73.0851C273.954 94.5133 291.314 112.144 313.068 112.469L313.61 72.2171Z" fill="url(#paint4_linear)"/>
<path d="M352.94 72.8139L313.61 72.2172L313.013 112.47L352.343 113.066L352.94 72.8139Z" fill="url(#paint5_linear)"/>
<path d="M235.492 30.8254L196.108 30.2287L195.511 70.481L235.492 30.8254Z" fill="url(#paint6_linear)"/>
<path d="M274.822 31.4224L235.492 30.8257L234.895 71.0781L274.226 71.6205L274.822 31.4224Z" fill="url(#paint7_linear)"/>
<path d="M314.207 32.0191L274.823 31.4223L274.226 71.6204L313.61 72.2172L314.207 32.0191Z" fill="url(#paint8_linear)"/>
<path d="M353.537 32.5616L314.207 32.0191L313.61 72.2172L352.94 72.814L353.537 32.5616Z" fill="url(#paint9_linear)"/>
<path d="M314.804 -8.23344L275.419 -8.83017L274.823 31.4222L314.804 -8.23344Z" fill="url(#paint10_linear)"/>
<path d="M354.134 -7.63664L314.804 -8.23338L314.804 -7.3654C314.478 14.3882 331.838 32.236 353.591 32.5615L354.134 -7.63664Z" fill="url(#paint11_linear)"/>
<path d="M196.108 30.2288L156.778 29.6321L156.181 69.8844C177.935 70.2099 195.782 53.1216 196.108 31.6935L196.108 30.2288Z" fill="url(#paint12_linear)"/>
<path d="M275.419 -8.83018L236.089 -9.37266L235.492 30.8254L274.822 31.4222L275.419 -8.83018Z" fill="url(#paint13_linear)"/>
<path d="M194.806 108.835L196.65 110.734L198.169 110.734L194.86 107.37L194.806 108.835Z" fill="url(#paint14_linear)"/>
<path d="M194.915 102.162L203.486 110.842L205.005 110.842L194.969 100.643L194.915 102.162Z" fill="url(#paint15_linear)"/>
<path d="M195.023 95.4354L210.267 110.951L211.786 110.951L195.023 93.9165L195.023 95.4354Z" fill="url(#paint16_linear)"/>
<path d="M195.131 88.7085L217.102 111.059L218.621 111.059L195.131 87.2438L195.131 88.7085Z" fill="url(#paint17_linear)"/>
<path d="M195.24 82.036L223.937 111.113L225.456 111.167L195.24 80.517L195.24 82.036Z" fill="url(#paint18_linear)"/>
<path d="M195.349 75.3092L230.719 111.222L232.238 111.276L195.349 73.7903L195.349 75.3092Z" fill="url(#paint19_linear)"/>
<path d="M197.301 70.4811L234.19 107.967L234.245 106.448L198.82 70.5354L197.301 70.4811Z" fill="url(#paint20_linear)"/>
<path d="M204.137 70.5896L234.299 101.24L234.353 99.721L205.656 70.6438L204.137 70.5896Z" fill="url(#paint21_linear)"/>
<path d="M210.918 70.6982L234.407 94.5132L234.407 93.0485L212.437 70.7524L210.918 70.6982Z" fill="url(#paint22_linear)"/>
<path d="M217.753 70.8066L234.516 87.8406L234.516 86.3217L219.272 70.8066L217.753 70.8066Z" fill="url(#paint23_linear)"/>
<path d="M224.534 70.9151L234.624 81.1138L234.624 79.5948L226.053 70.9151L224.534 70.9151Z" fill="url(#paint24_linear)"/>
<path d="M231.37 71.0237L234.733 74.3871L234.733 72.9224L232.888 71.0237L231.37 71.0237Z" fill="url(#paint25_linear)"/>
<path d="M157.32 -10.2406L117.936 -10.8373L117.339 29.415L156.723 30.0118L157.32 -10.2406Z" fill="url(#paint26_linear)"/>
<path d="M312.905 112.144L273.52 111.547L272.924 151.8L312.308 152.342L312.905 112.144Z" fill="url(#paint27_linear)"/>
<path d="M196.65 -9.64378L157.32 -10.2405L156.724 30.0118L196.054 30.6086L196.65 -9.64378Z" fill="url(#paint28_linear)"/>
<path d="M235.004 111.764L195.674 111.167L195.077 151.42C216.831 151.745 234.679 134.657 235.004 113.229L235.004 111.764Z" fill="url(#paint29_linear)"/>
<path d="M78.0094 26.9739L79.8538 28.8726L81.3728 28.8726L78.0636 25.5092L78.0094 26.9739Z" fill="url(#paint30_linear)"/>
<path d="M78.1181 20.3013L86.6893 28.9811L88.2083 28.9811L78.1723 18.7824L78.1181 20.3013Z" fill="url(#paint31_linear)"/>
<path d="M78.2265 13.5744L93.4703 29.0895L94.9893 29.0895L78.2265 12.0555L78.2265 13.5744Z" fill="url(#paint32_linear)"/>
<path d="M78.3349 6.84765L100.306 29.1437L101.824 29.198L78.3349 5.38293L78.3349 6.84765Z" fill="url(#paint33_linear)"/>
<path d="M78.4433 0.120841L107.086 29.2523L108.66 29.3065L78.4433 -1.34386L78.4433 0.120841Z" fill="url(#paint34_linear)"/>
<path d="M78.5517 -6.55161L113.922 29.3609L115.441 29.4151L78.5517 -8.07056L78.5517 -6.55161Z" fill="url(#paint35_linear)"/>
<path d="M80.5048 -11.3799L117.394 26.1058L117.448 24.5868L82.0237 -11.3257L80.5048 -11.3799Z" fill="url(#paint36_linear)"/>
<path d="M87.3401 -11.2713L117.502 19.379L117.502 17.8601L88.859 -11.2171L87.3401 -11.2713Z" fill="url(#paint37_linear)"/>
<path d="M94.1213 -11.1628L117.611 12.6522L117.611 11.1875L95.6402 -11.1628L94.1213 -11.1628Z" fill="url(#paint38_linear)"/>
<path d="M100.957 -11.0544L117.719 5.97961L117.719 4.46065L102.476 -11.0544L100.957 -11.0544Z" fill="url(#paint39_linear)"/>
<defs>
<linearGradient id="paint0_linear" x1="115.817" y1="109.17" x2="155.914" y2="69.6688" gradientUnits="userSpaceOnUse">
<stop offset="0.1229" stop-color="#26B1F7"/>
<stop offset="0.8987" stop-color="#54B9F7" stop-opacity="0.5"/>
</linearGradient>
<linearGradient id="paint1_linear" x1="176.205" y1="168.393" x2="260.009" y2="175.296" gradientUnits="userSpaceOnUse">
<stop offset="0.1229" stop-color="#00ABF4"/>
<stop offset="0.8934" stop-color="#A4DCFC"/>
</linearGradient>
<linearGradient id="paint2_linear" x1="175.139" y1="90.6574" x2="195.556" y2="70.5439" gradientUnits="userSpaceOnUse">
<stop offset="0.1229" stop-color="#26B1F7"/>
<stop offset="0.8987" stop-color="#54B9F7" stop-opacity="0.5"/>
</linearGradient>
<linearGradient id="paint3_linear" x1="252.839" y1="132.177" x2="273.256" y2="112.064" gradientUnits="userSpaceOnUse">
<stop offset="0.1229" stop-color="#063E56"/>
<stop offset="0.8934" stop-color="#0581C6"/>
</linearGradient>
<linearGradient id="paint4_linear" x1="284.935" y1="100.319" x2="313.503" y2="72.1747" gradientUnits="userSpaceOnUse">
<stop offset="0.1229" stop-color="#26B1F7"/>
<stop offset="0.8987" stop-color="#54B9F7" stop-opacity="0.5"/>
</linearGradient>
<linearGradient id="paint5_linear" x1="312.593" y1="112.089" x2="352.691" y2="72.588" gradientUnits="userSpaceOnUse">
<stop offset="0.1229" stop-color="#063E56"/>
<stop offset="0.8934" stop-color="#0581C6"/>
</linearGradient>
<linearGradient id="paint6_linear" x1="185.434" y1="60.2692" x2="225.532" y2="20.7677" gradientUnits="userSpaceOnUse">
<stop offset="0.1229" stop-color="#063E56"/>
<stop offset="0.8934" stop-color="#0581C6"/>
</linearGradient>
<linearGradient id="paint7_linear" x1="234.484" y1="70.6935" x2="274.581" y2="31.1921" gradientUnits="userSpaceOnUse">
<stop offset="0.1229" stop-color="#26B1F7"/>
<stop offset="0.8987" stop-color="#54B9F7" stop-opacity="0.5"/>
</linearGradient>
<linearGradient id="paint8_linear" x1="273.839" y1="71.2772" x2="313.937" y2="31.7758" gradientUnits="userSpaceOnUse">
<stop offset="0.1229" stop-color="#063E56"/>
<stop offset="0.8934" stop-color="#0581C6"/>
</linearGradient>
<linearGradient id="paint9_linear" x1="313.194" y1="71.8611" x2="353.292" y2="32.3596" gradientUnits="userSpaceOnUse">
<stop offset="0.1229" stop-color="#26B1F7"/>
<stop offset="0.8987" stop-color="#54B9F7" stop-opacity="0.5"/>
</linearGradient>
<linearGradient id="paint10_linear" x1="295.185" y1="11.9632" x2="275.379" y2="-8.74877" gradientUnits="userSpaceOnUse">
<stop offset="0.1229" stop-color="#26B1F7"/>
<stop offset="0.8987" stop-color="#54B9F7" stop-opacity="0.5"/>
</linearGradient>
<linearGradient id="paint11_linear" x1="325.579" y1="20.3629" x2="354.062" y2="-7.69697" gradientUnits="userSpaceOnUse">
<stop offset="0.1229" stop-color="#063E56"/>
<stop offset="0.8934" stop-color="#0581C6"/>
</linearGradient>
<linearGradient id="paint12_linear" x1="150.095" y1="63.7614" x2="190.192" y2="24.2599" gradientUnits="userSpaceOnUse">
<stop offset="0.1229" stop-color="#26B1F7"/>
<stop offset="0.8987" stop-color="#54B9F7" stop-opacity="0.5"/>
</linearGradient>
<linearGradient id="paint13_linear" x1="235.085" y1="30.4649" x2="275.182" y2="-9.03653" gradientUnits="userSpaceOnUse">
<stop offset="0.1229" stop-color="#063E56"/>
<stop offset="0.8934" stop-color="#0581C6"/>
</linearGradient>
<linearGradient id="paint14_linear" x1="197.807" y1="111.119" x2="194.517" y2="107.678" gradientUnits="userSpaceOnUse">
<stop offset="0.1229" stop-color="#26B1F7"/>
<stop offset="0.8987" stop-color="#54B9F7" stop-opacity="0.5"/>
</linearGradient>
<linearGradient id="paint15_linear" x1="204.619" y1="111.22" x2="194.72" y2="100.869" gradientUnits="userSpaceOnUse">
<stop offset="0.1229" stop-color="#26B1F7"/>
<stop offset="0.8987" stop-color="#54B9F7" stop-opacity="0.5"/>
</linearGradient>
<linearGradient id="paint16_linear" x1="211.43" y1="111.321" x2="194.923" y2="94.0597" gradientUnits="userSpaceOnUse">
<stop offset="0.1229" stop-color="#26B1F7"/>
<stop offset="0.8987" stop-color="#54B9F7" stop-opacity="0.5"/>
</linearGradient>
<linearGradient id="paint17_linear" x1="218.241" y1="111.423" x2="195.126" y2="87.2508" gradientUnits="userSpaceOnUse">
<stop offset="0.1229" stop-color="#26B1F7"/>
<stop offset="0.8987" stop-color="#54B9F7" stop-opacity="0.5"/>
</linearGradient>
<linearGradient id="paint18_linear" x1="225.053" y1="111.524" x2="195.329" y2="80.4416" gradientUnits="userSpaceOnUse">
<stop offset="0.1229" stop-color="#26B1F7"/>
<stop offset="0.8987" stop-color="#54B9F7" stop-opacity="0.5"/>
</linearGradient>
<linearGradient id="paint19_linear" x1="231.864" y1="111.625" x2="195.532" y2="73.632" gradientUnits="userSpaceOnUse">
<stop offset="0.1229" stop-color="#26B1F7"/>
<stop offset="0.8987" stop-color="#54B9F7" stop-opacity="0.5"/>
</linearGradient>
<linearGradient id="paint20_linear" x1="234.594" y1="107.584" x2="198.262" y2="69.5909" gradientUnits="userSpaceOnUse">
<stop offset="0.1229" stop-color="#26B1F7"/>
<stop offset="0.8987" stop-color="#54B9F7" stop-opacity="0.5"/>
</linearGradient>
<linearGradient id="paint21_linear" x1="234.695" y1="100.873" x2="204.971" y2="69.7905" gradientUnits="userSpaceOnUse">
<stop offset="0.1229" stop-color="#26B1F7"/>
<stop offset="0.8987" stop-color="#54B9F7" stop-opacity="0.5"/>
</linearGradient>
<linearGradient id="paint22_linear" x1="234.796" y1="94.1621" x2="211.681" y2="69.9904" gradientUnits="userSpaceOnUse">
<stop offset="0.1229" stop-color="#26B1F7"/>
<stop offset="0.8987" stop-color="#54B9F7" stop-opacity="0.5"/>
</linearGradient>
<linearGradient id="paint23_linear" x1="234.896" y1="87.4514" x2="218.389" y2="70.1896" gradientUnits="userSpaceOnUse">
<stop offset="0.1229" stop-color="#26B1F7"/>
<stop offset="0.8987" stop-color="#54B9F7" stop-opacity="0.5"/>
</linearGradient>
<linearGradient id="paint24_linear" x1="234.996" y1="80.7402" x2="225.097" y2="70.3891" gradientUnits="userSpaceOnUse">
<stop offset="0.1229" stop-color="#26B1F7"/>
<stop offset="0.8987" stop-color="#54B9F7" stop-opacity="0.5"/>
</linearGradient>
<linearGradient id="paint25_linear" x1="235.097" y1="74.029" x2="231.807" y2="70.5888" gradientUnits="userSpaceOnUse">
<stop offset="0.1229" stop-color="#26B1F7"/>
<stop offset="0.8987" stop-color="#54B9F7" stop-opacity="0.5"/>
</linearGradient>
<linearGradient id="paint26_linear" x1="116.962" y1="29.0494" x2="157.059" y2="-10.452" gradientUnits="userSpaceOnUse">
<stop offset="0.1229" stop-color="#26B1F7"/>
<stop offset="0.8987" stop-color="#54B9F7" stop-opacity="0.5"/>
</linearGradient>
<linearGradient id="paint27_linear" x1="272.535" y1="151.415" x2="312.633" y2="111.913" gradientUnits="userSpaceOnUse">
<stop offset="0.1229" stop-color="#26B1F7"/>
<stop offset="0.8987" stop-color="#54B9F7" stop-opacity="0.5"/>
</linearGradient>
<linearGradient id="paint28_linear" x1="156.317" y1="29.6333" x2="196.415" y2="-9.86816" gradientUnits="userSpaceOnUse">
<stop offset="0.1229" stop-color="#063E56"/>
<stop offset="0.8934" stop-color="#0581C6"/>
</linearGradient>
<linearGradient id="paint29_linear" x1="188.992" y1="145.266" x2="229.09" y2="105.764" gradientUnits="userSpaceOnUse">
<stop offset="0.1229" stop-color="#063E56"/>
<stop offset="0.8934" stop-color="#0581C6"/>
</linearGradient>
<linearGradient id="paint30_linear" x1="81.0063" y1="29.2431" x2="77.7162" y2="25.8025" gradientUnits="userSpaceOnUse">
<stop offset="0.1229" stop-color="#26B1F7"/>
<stop offset="0.8987" stop-color="#54B9F7" stop-opacity="0.5"/>
</linearGradient>
<linearGradient id="paint31_linear" x1="87.8179" y1="29.3444" x2="77.9192" y2="18.9932" gradientUnits="userSpaceOnUse">
<stop offset="0.1229" stop-color="#26B1F7"/>
<stop offset="0.8987" stop-color="#54B9F7" stop-opacity="0.5"/>
</linearGradient>
<linearGradient id="paint32_linear" x1="94.6292" y1="29.4456" x2="78.1222" y2="12.1839" gradientUnits="userSpaceOnUse">
<stop offset="0.1229" stop-color="#26B1F7"/>
<stop offset="0.8987" stop-color="#54B9F7" stop-opacity="0.5"/>
</linearGradient>
<linearGradient id="paint33_linear" x1="101.44" y1="29.5472" x2="78.3253" y2="5.37523" gradientUnits="userSpaceOnUse">
<stop offset="0.1229" stop-color="#26B1F7"/>
<stop offset="0.8987" stop-color="#54B9F7" stop-opacity="0.5"/>
</linearGradient>
<linearGradient id="paint34_linear" x1="108.252" y1="29.6485" x2="78.5281" y2="-1.43411" gradientUnits="userSpaceOnUse">
<stop offset="0.1229" stop-color="#26B1F7"/>
<stop offset="0.8987" stop-color="#54B9F7" stop-opacity="0.5"/>
</linearGradient>
<linearGradient id="paint35_linear" x1="115.063" y1="29.7497" x2="78.7309" y2="-8.24357" gradientUnits="userSpaceOnUse">
<stop offset="0.1229" stop-color="#26B1F7"/>
<stop offset="0.8987" stop-color="#54B9F7" stop-opacity="0.5"/>
</linearGradient>
<linearGradient id="paint36_linear" x1="117.793" y1="25.7084" x2="81.4612" y2="-12.2848" gradientUnits="userSpaceOnUse">
<stop offset="0.1229" stop-color="#26B1F7"/>
<stop offset="0.8987" stop-color="#54B9F7" stop-opacity="0.5"/>
</linearGradient>
<linearGradient id="paint37_linear" x1="117.894" y1="18.9975" x2="88.1702" y2="-12.0851" gradientUnits="userSpaceOnUse">
<stop offset="0.1229" stop-color="#26B1F7"/>
<stop offset="0.8987" stop-color="#54B9F7" stop-opacity="0.5"/>
</linearGradient>
<linearGradient id="paint38_linear" x1="117.995" y1="12.2863" x2="94.8796" y2="-11.8854" gradientUnits="userSpaceOnUse">
<stop offset="0.1229" stop-color="#26B1F7"/>
<stop offset="0.8987" stop-color="#54B9F7" stop-opacity="0.5"/>
</linearGradient>
<linearGradient id="paint39_linear" x1="118.095" y1="5.5756" x2="101.588" y2="-11.6862" gradientUnits="userSpaceOnUse">
<stop offset="0.1229" stop-color="#26B1F7"/>
<stop offset="0.8987" stop-color="#54B9F7" stop-opacity="0.5"/>
</linearGradient>
</defs>
</svg>
