<svg width="1760" height="120" viewBox="0 0 1760 120" fill="none" xmlns="http://www.w3.org/2000/svg">
<path d="M2278.97 431.929C2257.01 295.449 2133.08 195.834 2020.92 129.947C1958.96 93.4734 1891.11 70.3345 1827.97 36.6066C1795.03 19.3505 1766 -1.82745 1741.69 -30.0648C1718.16 -57.1255 1707.57 -94.7754 1700.12 -128.895C1691.49 -167.33 1687.96 -206.548 1680.12 -244.982C1672.67 -281.848 1664.43 -318.321 1653.06 -354.01C1628.35 -430.093 1584.43 -503.432 1509.13 -537.944C1365.98 -603.439 1207.54 -533.63 1066.75 -496.765C1034.98 -488.529 1008.71 -483.038 980.077 -481.077C947.918 -479.117 929.878 -481.077 899.68 -492.059C897.327 -492.843 892.228 -495.196 885.169 -498.726C878.502 -502.255 872.227 -506.177 865.952 -510.491C854.579 -517.943 841.245 -530.885 829.872 -543.435C803.988 -572.064 786.34 -607.753 766.339 -640.305C730.258 -699.132 688.295 -760.313 626.723 -794.433C387.886 -926.6 180.815 -751.685 60.8079 -554.808C-16.4515 -427.74 -55.2773 -275.573 -56.846 -127.327C-58.0225 13.8599 -22.3342 166.42 80.0247 268.78C174.932 363.689 309.057 406.829 434.163 446.832C496.127 466.441 560.052 485.658 618.095 511.543C695.746 546.055 771.437 584.881 846.343 624.492C997.725 704.497 1147.93 787.248 1308.33 847.253C1444.81 898.237 1587.95 928.435 1734.24 919.415C1864.44 911.179 1997.39 874.706 2102.89 795.484C2215.05 711.557 2301.72 575.861 2278.97 431.929Z" fill="url(#paint0_linear)"/>
<path d="M1516.58 -78.3035C1497.75 -145.367 1457.36 -204.195 1398.14 -241.845C1346.76 -274.396 1281.27 -283.416 1221.66 -276.357C1087.14 -260.277 977.331 -154.78 840.853 -156.74C736.533 -158.309 660.058 -219.49 607.506 -305.379C568.68 -368.912 536.13 -436.368 484.362 -490.882C455.341 -521.472 418.476 -548.141 376.12 -555.592C251.407 -577.163 153.362 -483.823 105.124 -377.148C60.0235 -277.141 8.25584 -109.678 16.8838 0.133423C23.943 87.9828 59.2392 170.734 102.771 246.033C143.558 316.627 192.188 384.082 245.524 445.655C292.978 500.169 348.276 548.8 411.024 585.665C478.087 624.884 551.817 645.669 628.292 655.866C794.184 678.221 967.919 664.495 1126.36 609.196C1200.48 583.312 1269.9 548.016 1330.29 497.031C1384.81 451.146 1428.73 392.318 1461.28 329.177C1524.03 207.599 1554.62 55.8237 1516.58 -78.3035Z" fill="url(#paint1_linear)"/>
<path d="M498.48 683.711C703.812 683.711 870.266 517.255 870.266 311.92C870.266 106.585 703.812 -59.8713 498.48 -59.8713C293.148 -59.8713 126.694 106.585 126.694 311.92C126.694 517.255 293.148 683.711 498.48 683.711Z" fill="url(#paint2_linear)"/>
<path d="M1690.94 -3.6213C1680.35 6.96769 1680.35 23.8317 1690.94 34.4207C1701.53 45.0097 1718.39 45.0097 1728.98 34.4207L1807.42 -44.0163C1818.01 -54.6053 1818.01 -71.4693 1807.42 -82.0583C1796.83 -92.6472 1779.97 -92.6472 1769.38 -82.0583L1690.94 -3.6213Z" fill="url(#paint3_linear)"/>
<path d="M537.942 180.379C527.353 190.968 527.353 207.832 537.942 218.421C548.53 229.01 565.394 229.01 575.983 218.421L654.419 139.984C665.008 129.395 665.008 112.531 654.419 101.942C643.83 91.3527 626.966 91.3527 616.378 101.942L537.942 180.379Z" fill="url(#paint4_linear)"/>
<defs>
<linearGradient id="paint0_linear" x1="1367.55" y1="-511.242" x2="1153.68" y2="23.4095" gradientUnits="userSpaceOnUse">
<stop stop-color="#FF9E07"/>
<stop offset="1" stop-color="#FFB923"/>
</linearGradient>
<linearGradient id="paint1_linear" x1="-11.5433" y1="-425.755" x2="1211.92" y2="372.763" gradientUnits="userSpaceOnUse">
<stop stop-color="#FF9E07"/>
<stop offset="1" stop-color="#FFB923"/>
</linearGradient>
<linearGradient id="paint2_linear" x1="610.284" y1="42.4592" x2="459.724" y2="405.569" gradientUnits="userSpaceOnUse">
<stop stop-color="#FF9E07"/>
<stop offset="1" stop-color="#FFB923"/>
</linearGradient>
<linearGradient id="paint3_linear" x1="1683.05" y1="-23.769" x2="1815.11" y2="-23.769" gradientUnits="userSpaceOnUse">
<stop stop-color="#F25E28"/>
<stop offset="0.4785" stop-color="#FD9F03"/>
<stop offset="0.6828" stop-color="#FDC202"/>
<stop offset="0.6935" stop-color="#FDC402"/>
<stop offset="0.9892" stop-color="#FEF801"/>
<stop offset="1" stop-color="#FEF801"/>
</linearGradient>
<linearGradient id="paint4_linear" x1="529.981" y1="160.211" x2="662.041" y2="160.211" gradientUnits="userSpaceOnUse">
<stop stop-color="#F25E28"/>
<stop offset="0.4785" stop-color="#FD9F03"/>
<stop offset="0.6828" stop-color="#FDC202"/>
<stop offset="0.6935" stop-color="#FDC402"/>
<stop offset="0.9892" stop-color="#FEF801"/>
<stop offset="1" stop-color="#FEF801"/>
</linearGradient>
</defs>
</svg>
