<svg width="16" height="16" viewBox="0 0 16 16" fill="none" xmlns="http://www.w3.org/2000/svg">
<path d="M14.0334 12.4712L8.70748 2.58062C8.32998 1.87937 7.32435 1.87937 6.94654 2.58062L1.62091 12.4712C1.53895 12.6235 1.49785 12.7944 1.50164 12.9672C1.50543 13.1401 1.55398 13.309 1.64253 13.4575C1.73109 13.606 1.85664 13.729 2.00692 13.8145C2.1572 13.9 2.32708 13.9451 2.49998 13.9453H13.1528C13.3258 13.9453 13.4959 13.9005 13.6464 13.8151C13.7969 13.7297 13.9227 13.6067 14.0114 13.4582C14.1001 13.3096 14.1488 13.1406 14.1527 12.9676C14.1565 12.7946 14.1154 12.6236 14.0334 12.4712ZM7.82716 12.4141C7.70355 12.4141 7.58271 12.3774 7.47993 12.3087C7.37715 12.2401 7.29704 12.1424 7.24974 12.0282C7.20243 11.914 7.19006 11.7884 7.21417 11.6671C7.23829 11.5459 7.29781 11.4345 7.38522 11.3471C7.47263 11.2597 7.58399 11.2002 7.70523 11.1761C7.82647 11.152 7.95214 11.1643 8.06634 11.2116C8.18054 11.2589 8.27816 11.3391 8.34683 11.4418C8.41551 11.5446 8.45216 11.6654 8.45216 11.7891C8.45216 11.9548 8.38631 12.1138 8.2691 12.231C8.15189 12.3482 7.99292 12.4141 7.82716 12.4141ZM8.50591 6.12813L8.32654 9.94063C8.32654 10.0732 8.27386 10.2004 8.18009 10.2942C8.08632 10.3879 7.95915 10.4406 7.82654 10.4406C7.69393 10.4406 7.56675 10.3879 7.47298 10.2942C7.37922 10.2004 7.32654 10.0732 7.32654 9.94063L7.14716 6.12969C7.14313 6.03862 7.15748 5.94768 7.18934 5.86227C7.22121 5.77687 7.26994 5.69875 7.33264 5.63259C7.39534 5.56642 7.47072 5.51355 7.55428 5.47713C7.63785 5.44072 7.72789 5.4215 7.81904 5.42063H7.8256C7.91737 5.42058 8.0082 5.43912 8.09261 5.47515C8.17702 5.51117 8.25325 5.56392 8.31671 5.63021C8.38017 5.6965 8.42954 5.77497 8.46185 5.86087C8.49415 5.94676 8.50872 6.03832 8.50466 6.13L8.50591 6.12813Z" fill="#FF5353"/>
</svg>
