<svg width="1776" height="284" viewBox="0 0 1776 284" fill="none" xmlns="http://www.w3.org/2000/svg">
<g filter="url(#filter0_d)">
<mask id="mask0" mask-type="alpha" maskUnits="userSpaceOnUse" x="8" y="152" width="1760" height="120">
<rect x="8" y="152" width="1760" height="120" rx="8" fill="#F8A634"/>
</mask>
<g mask="url(#mask0)">
<path d="M2286.97 583.929C2265.01 447.449 2141.08 347.834 2028.92 281.947C1966.96 245.473 1899.11 222.335 1835.97 188.607C1803.03 171.351 1774 150.173 1749.69 121.935C1726.16 94.8745 1715.57 57.2246 1708.12 23.1046C1699.49 -15.3296 1695.96 -54.548 1688.12 -92.9821C1680.67 -129.848 1672.43 -166.321 1661.06 -202.01C1636.35 -278.093 1592.43 -351.432 1517.13 -385.944C1373.98 -451.439 1215.54 -381.63 1074.75 -344.765C1042.98 -336.529 1016.71 -331.038 988.077 -329.077C955.918 -327.117 937.878 -329.077 907.68 -340.059C905.327 -340.843 900.228 -343.196 893.169 -346.726C886.502 -350.255 880.227 -354.177 873.952 -358.491C862.579 -365.943 849.245 -378.885 837.872 -391.435C811.988 -420.064 794.34 -455.753 774.339 -488.305C738.258 -547.132 696.295 -608.313 634.723 -642.433C395.886 -774.6 188.815 -599.685 68.8079 -402.808C-8.45149 -275.74 -47.2773 -123.573 -48.846 24.6733C-50.0225 165.86 -14.3342 318.42 88.0247 420.78C182.932 515.689 317.057 558.829 442.163 598.832C504.127 618.441 568.052 637.658 626.095 663.543C703.746 698.055 779.437 736.881 854.343 776.492C1005.72 856.497 1155.93 939.248 1316.33 999.253C1452.81 1050.24 1595.95 1080.44 1742.24 1071.41C1872.44 1063.18 2005.39 1026.71 2110.89 947.484C2223.05 863.557 2309.72 727.861 2286.97 583.929Z" fill="url(#paint0_linear)"/>
<path d="M1524.58 73.6965C1505.75 6.63287 1465.36 -52.1948 1406.14 -89.8446C1354.76 -122.396 1289.27 -131.416 1229.66 -124.357C1095.14 -108.277 985.331 -2.77954 848.853 -4.74048C744.533 -6.3092 668.058 -67.4901 615.506 -153.379C576.68 -216.912 544.13 -284.368 492.362 -338.882C463.341 -369.472 426.476 -396.141 384.12 -403.592C259.407 -425.163 161.362 -331.823 113.124 -225.148C68.0235 -125.141 16.2558 42.3217 24.8838 152.133C31.943 239.983 67.2392 322.734 110.771 398.033C151.558 468.627 200.188 536.082 253.524 597.655C300.978 652.169 356.276 700.8 419.024 737.665C486.087 776.884 559.817 797.669 636.292 807.866C802.184 830.221 975.919 816.495 1134.36 761.196C1208.48 735.312 1277.9 700.016 1338.29 649.031C1392.81 603.146 1436.73 544.318 1469.28 481.177C1532.03 359.599 1562.62 207.824 1524.58 73.6965Z" fill="url(#paint1_linear)"/>
<path d="M506.48 835.711C711.812 835.711 878.266 669.255 878.266 463.92C878.266 258.585 711.812 92.1287 506.48 92.1287C301.148 92.1287 134.694 258.585 134.694 463.92C134.694 669.255 301.148 835.711 506.48 835.711Z" fill="url(#paint2_linear)"/>
<path d="M1698.94 148.379C1688.35 158.968 1688.35 175.832 1698.94 186.421C1709.53 197.01 1726.39 197.01 1736.98 186.421L1815.42 107.984C1826.01 97.3947 1826.01 80.5307 1815.42 69.9417C1804.83 59.3528 1787.97 59.3528 1777.38 69.9417L1698.94 148.379Z" fill="url(#paint3_linear)"/>
<path d="M545.942 332.379C535.353 342.968 535.353 359.832 545.942 370.421C556.53 381.01 573.394 381.01 583.983 370.421L662.419 291.984C673.008 281.395 673.008 264.531 662.419 253.942C651.83 243.353 634.966 243.353 624.378 253.942L545.942 332.379Z" fill="url(#paint4_linear)"/>
</g>
<g clip-path="url(#clip0)">
<path d="M353.276 124.238C356.176 126.954 357.264 131.3 354.545 134.559C352.007 137.638 347.112 138.362 343.849 135.827C336.055 129.851 344.212 118.986 352.551 121.159C354.001 121.522 353.638 123.695 352.188 123.876C349.831 124.057 347.112 124.057 345.118 125.868C342.943 127.678 342.943 130.757 344.756 132.93C349.288 138.543 357.082 130.214 352.369 125.324C351.644 124.419 352.551 123.514 353.276 124.238Z" fill="#8AA9FC"/>
<path d="M273.697 133.654C272.609 137.457 271.521 141.441 270.252 145.243C269.89 146.149 269.165 146.511 268.258 145.968C265.177 143.795 262.095 141.803 259.014 139.449C258.47 139.086 258.651 138 259.195 137.638C262.639 135.284 267.352 131.843 271.703 131.662C272.79 131.662 273.515 133.292 272.428 133.835C270.615 134.922 268.621 135.284 266.627 136.008C264.452 136.914 262.276 138 260.282 139.268C260.282 138.543 260.282 138 260.101 137.276C263.364 139.268 266.446 141.622 269.709 143.795C269.165 143.976 268.44 143.976 267.896 144.157C269.165 140.354 270.615 136.551 272.065 132.93C272.609 132.386 274.059 132.749 273.697 133.654Z" fill="#E3707F"/>
<path d="M251.944 154.116C247.231 151.943 242.518 149.408 238.348 146.33C236.898 145.243 238.348 143.07 239.98 143.976C244.512 146.33 248.862 149.408 252.85 152.486C253.575 153.03 252.85 154.659 251.944 154.116Z" fill="#83DAED"/>
<path d="M422.522 168.241C423.428 163.17 424.697 157.919 426.51 153.211C427.235 151.4 429.592 152.305 429.229 154.116C428.142 159.005 426.329 164.076 424.335 168.603C423.972 169.508 422.341 169.327 422.522 168.241Z" fill="#E8947E"/>
<path d="M408.02 123.695L408.202 123.513C409.289 122.427 411.283 122.246 412.371 123.513C413.458 124.781 413.458 126.411 412.371 127.678L412.19 127.859C411.102 128.946 409.108 128.946 408.02 127.859C406.933 126.592 406.751 124.781 408.02 123.695Z" fill="#251A51"/>
<path d="M284.573 253.53C284.573 253.53 333.336 264.757 352.913 245.381L345.843 198.662C343.668 185.262 344.937 159.368 334.786 150.314C332.792 148.503 330.798 147.597 330.798 147.597C323.547 144.157 310.676 142.165 298.35 142.165C283.304 142.165 267.896 153.392 264.089 167.878L280.222 205.724L284.573 253.53Z" fill="#1F9DC5"/>
<path d="M289.286 173.673C289.286 173.673 267.533 215.684 278.228 217.857C313.939 225.281 334.605 231.257 334.605 231.257L336.417 245.019C335.873 247.192 264.27 245.381 255.932 235.784C249.95 229.084 241.974 213.33 258.832 179.468L263.908 167.878L289.286 173.673Z" fill="#FDE4E1"/>
<path d="M330.254 151.943L384.636 172.949L386.267 144.519L397.869 139.992C397.869 139.992 414.727 185.624 393.7 194.135C372.672 202.646 348.925 186.892 348.925 186.892L330.254 151.943Z" fill="#FDE4E1"/>
<path d="M323.547 145.062C342.58 151.038 353.819 158.1 380.467 169.327L366.69 199.93L343.124 192.324L323.547 145.062Z" fill="#1F9DC5"/>
<path d="M292.549 167.878L278.772 199.749L247.774 194.135L268.621 158.1L293.455 167.878" fill="#1F9DC5"/>
<path d="M308.864 189.608C302.157 189.246 295.631 189.608 289.105 189.608C288.561 189.608 288.561 188.884 289.105 188.703C295.631 187.978 302.338 188.159 308.864 188.884C309.407 188.884 309.407 189.608 308.864 189.608Z" fill="#1A3066"/>
<path d="M279.135 152.486C301.431 154.478 286.204 187.435 280.404 197.395C280.041 197.938 279.316 197.395 279.497 196.851C285.117 186.711 300.525 156.108 278.954 153.03C278.772 153.03 278.954 152.486 279.135 152.486Z" fill="#1A3066"/>
<path d="M341.13 171.319C343.849 182.365 345.662 193.773 346.387 205C346.387 205.543 345.662 205.543 345.481 205.181C343.849 193.954 342.218 182.727 340.405 171.5C340.586 171.138 341.13 170.957 341.13 171.319Z" fill="#1A3066"/>
<path d="M288.742 110.476C288.38 105.768 288.017 101.059 287.655 96.3514C284.029 95.2649 282.035 90.5568 283.485 86.9351C284.936 83.3135 289.105 81.3216 292.912 81.8649C290.555 80.2351 290.736 76.2513 292.73 74.2595C294.724 72.0865 297.806 71.3622 300.706 71.3622C303.607 71.1811 306.507 71.5432 309.407 71C311.945 70.4568 314.483 69.3703 317.021 69.7324C319.559 70.0946 322.097 72.9919 320.646 75.1649C324.272 74.6216 328.26 74.0784 331.704 75.8892C334.967 77.7 336.598 82.7703 333.879 85.1243C335.692 86.0297 336.236 88.7459 335.148 90.5568C334.061 92.3676 331.885 93.273 329.891 93.4541C327.716 93.6351 325.722 93.0919 323.728 92.5487" fill="#073143"/>
<path d="M289.467 101.422L290.192 111.2C290.192 111.2 281.854 112.287 284.21 119.892C286.567 127.497 292.368 124.238 292.368 124.238C292.368 124.238 293.818 143.795 313.758 137.457C329.71 132.568 328.622 111.924 326.628 94.3595C325.903 87.4784 319.377 82.9514 312.67 84.219L300.706 86.573C293.637 88.0217 288.924 94.3595 289.467 101.422Z" fill="#FDE4E1"/>
<path d="M290.193 119.349L295.631 147.959C296.9 154.478 303.244 158.643 309.589 157.013C315.571 155.565 319.378 149.77 318.29 143.795L315.39 127.316L290.193 119.349Z" fill="#FDE4E1"/>
<path d="M312.308 119.53C312.308 119.53 312.126 119.892 312.852 120.254C313.395 120.616 314.483 119.892 314.664 118.986C315.027 118.081 315.027 116.995 314.846 115.727C314.846 114.459 314.664 113.192 314.664 111.924C314.302 106.492 313.758 102.146 313.577 102.146C313.395 102.146 313.395 106.492 313.758 111.924C313.939 113.192 313.939 114.459 314.12 115.727C314.302 116.813 314.302 117.9 314.12 118.805C313.939 119.53 313.395 120.073 313.033 119.892C312.489 119.892 312.308 119.53 312.308 119.53Z" fill="#073143"/>
<path d="M318.834 135.465C318.834 135.284 317.746 136.008 316.115 136.732C314.483 137.457 312.127 138.181 309.408 138.362C306.688 138.362 304.151 137.819 302.519 137.095C300.888 136.37 299.8 135.827 299.8 136.008C299.8 136.008 300.525 136.914 302.338 137.819C303.969 138.724 306.507 139.449 309.408 139.449C312.308 139.449 314.846 138.543 316.477 137.638C317.927 136.37 318.834 135.465 318.834 135.465Z" fill="#073143"/>
<path d="M314.846 123.695C314.664 123.514 314.302 124.057 313.395 124.419C312.489 124.781 311.22 125.143 309.951 124.6C308.682 124.238 307.776 123.151 307.413 122.427C306.87 121.703 306.87 120.978 306.688 120.978C306.507 120.978 306.507 121.703 306.87 122.608C307.232 123.514 308.138 124.962 309.77 125.324C311.401 125.868 312.852 125.324 313.758 124.781C314.664 124.238 315.027 123.695 314.846 123.695Z" fill="#073143"/>
<path d="M289.467 120.797C289.467 120.616 288.923 120.616 288.38 120.254C288.017 120.073 287.836 119.892 287.836 119.53C287.836 119.168 287.836 118.805 288.198 118.805C288.38 118.805 288.561 118.805 288.742 118.805L289.467 118.443C288.742 116.814 288.017 115.908 287.836 115.908C287.655 115.908 288.017 117.176 288.561 118.805L289.286 118.443C288.923 117.9 288.198 117.719 287.655 117.9C287.292 118.081 286.929 118.443 286.748 118.805C286.567 119.168 286.748 119.53 286.748 119.892C286.929 120.435 287.473 120.797 287.836 120.978C289.105 121.159 289.467 120.978 289.467 120.797Z" fill="#073143"/>
<path d="M304.876 101.422C305.057 101.241 303.969 100.697 302.7 101.059C301.431 101.422 300.706 102.327 300.888 102.508C301.069 102.689 301.794 102.146 302.882 101.965C303.969 101.784 304.876 101.784 304.876 101.422Z" fill="#073143"/>
<path d="M322.278 98.7054C322.459 98.5243 321.371 97.7999 319.921 97.981C318.471 98.1621 317.565 98.8864 317.746 99.0675C317.927 99.2486 318.834 98.8864 320.103 98.8864C321.19 98.8864 322.097 99.0675 322.278 98.7054Z" fill="#073143"/>
<path d="M290.192 111.2C295.812 105.768 297.443 96.7134 298.894 89.108C303.969 92.9107 311.22 93.8161 317.202 91.4621C319.015 93.6351 321.19 95.627 323.728 97.0756C324.453 97.4378 325.178 97.981 326.085 97.7999C326.991 97.4378 327.354 96.5324 327.716 95.4459C328.441 92.3675 328.441 89.108 327.354 86.2107C326.266 83.3134 324.091 80.7783 321.19 79.5107C318.109 78.2432 314.483 78.7864 311.401 79.6918C306.507 80.9594 301.794 82.9513 297.443 85.4864C293.093 88.0216 289.105 91.281 287.292 95.808C285.479 100.335 285.479 109.389 289.83 111.743" fill="#073143"/>
<path d="M303.425 109.57C303.607 109.57 303.788 108.846 303.788 108.122C303.788 107.216 303.425 106.673 303.244 106.673C303.063 106.673 302.881 107.397 302.881 108.122C302.881 108.846 303.244 109.57 303.425 109.57Z" fill="#073143"/>
<path d="M319.377 107.397C319.559 107.397 319.74 106.673 319.74 105.949C319.74 105.043 319.377 104.5 319.196 104.5C319.015 104.5 318.834 105.224 318.834 105.949C319.015 106.854 319.196 107.397 319.377 107.397Z" fill="#073143"/>
<path d="M398.594 141.078C398.594 141.078 396.237 126.23 393.337 126.411C390.437 126.592 384.636 126.411 384.636 126.411C384.636 126.411 384.092 112.287 382.642 114.641C381.01 116.814 380.467 135.827 386.63 144.881L398.594 141.078Z" fill="#FDE4E1"/>
<path d="M334.604 231.257C334.604 231.257 360.527 235.784 359.983 239.043C359.439 242.484 357.626 245.743 357.626 245.743L334.604 245.2V231.257Z" fill="#FDE4E1"/>
<path d="M306.507 246.649L306.688 243.027L359.983 239.767L377.929 192.143L436.299 195.403L416.359 246.83L306.507 246.649Z" fill="#0D3542"/>
<path opacity="0.41" d="M404.032 218.038C403.851 220.392 401.857 222.203 399.5 222.203C397.144 222.022 395.331 220.03 395.331 217.676C395.512 215.322 397.506 213.511 399.863 213.511C402.401 213.692 404.213 215.684 404.032 218.038Z" fill="white"/>
<path opacity="0.41" d="M405.845 218.219C405.664 221.478 402.763 224.195 399.5 224.013C396.237 223.832 393.518 220.935 393.7 217.676C393.881 214.416 396.781 211.7 400.044 211.881C403.488 211.881 406.026 214.778 405.845 218.219Z" fill="white"/>
<path d="M445 247.735L216.414 244.838L203 251.9C203 251.9 378.473 300.068 445 247.735Z" fill="#EFF3FF"/>
<path d="M266.265 78.7866C266.99 80.0541 264.633 114.822 264.633 114.822L247.593 113.373L249.587 122.608L241.249 113.192L224.572 111.2L225.659 77.519L266.265 78.7866Z" fill="#D2DBF3"/>
<path d="M309.589 24.8242C309.589 24.8242 321.372 25.3675 321.734 38.0432C321.734 38.0432 321.553 44.9242 317.746 47.4594C313.939 49.9945 314.302 52.7107 314.302 52.7107H304.513C304.513 52.7107 304.876 49.2702 303.426 47.2783C301.794 45.2864 297.987 41.1215 298.531 35.1459C299.075 28.9891 303.607 24.281 309.589 24.8242Z" fill="#EDFC95"/>
<path d="M314.483 55.7891C311.039 55.608 307.414 55.9701 303.969 55.7891C303.426 55.7891 303.244 54.8837 303.788 54.8837C307.232 54.1593 311.039 54.5215 314.483 54.8837C315.027 54.8837 315.027 55.7891 314.483 55.7891Z" fill="#073143"/>
<path d="M313.214 58.8674C311.764 58.8674 310.314 58.6863 309.045 58.6863C307.595 58.6863 306.145 58.8674 304.876 58.8674C304.332 58.8674 304.151 58.1431 304.695 57.962C307.414 57.2377 310.677 57.5998 313.396 57.962C313.758 57.962 313.577 58.8674 313.214 58.8674Z" fill="#073143"/>
<path d="M311.945 61.0404C310.676 61.0404 309.408 61.4026 308.139 61.4026C307.595 61.4026 307.414 60.4972 307.957 60.3161C309.226 59.9539 310.676 60.135 311.764 60.135C312.489 60.3161 312.489 61.0404 311.945 61.0404Z" fill="#073143"/>
<path d="M311.402 52.5296C311.039 49.0891 312.308 45.1053 312.852 41.8458C313.214 42.0269 313.577 42.208 313.939 42.208C313.396 42.9323 312.671 45.2864 311.402 45.2864C310.133 45.2864 309.589 42.9323 309.408 41.8458C309.77 41.8458 310.133 41.8458 310.495 41.8458C310.314 42.9323 310.133 45.4674 308.501 45.2864C307.051 45.1053 306.145 42.9323 305.601 41.8458C305.963 41.6647 306.326 41.6647 306.689 41.4837C307.595 44.9242 307.957 49.2701 307.051 52.7107C306.87 53.2539 305.963 53.2539 305.963 52.5296C306.145 48.908 306.507 45.4674 305.42 41.8458C305.238 41.1215 306.326 40.7593 306.507 41.4837C306.689 41.8458 307.595 44.1999 308.501 43.8377C308.683 43.8377 309.045 41.6647 309.045 41.4837C309.226 40.9404 310.133 40.9404 310.133 41.4837C310.314 42.208 310.495 44.0188 311.402 43.4756C311.945 43.1134 312.308 42.0269 312.671 41.4837C313.033 40.9404 313.758 41.3026 313.758 41.8458C313.214 45.2864 313.033 49.2701 311.764 52.5296C311.764 52.8918 311.402 52.7107 311.402 52.5296Z" fill="#073143"/>
<path d="M346.025 48.1837C340.768 46.554 335.33 45.1054 330.254 43.1135C329.891 42.9324 330.073 42.3891 330.435 42.3891C335.692 43.6567 340.949 45.6486 346.206 47.2783C346.75 47.4594 346.569 48.3648 346.025 48.1837Z" fill="white"/>
<path d="M339.68 32.6108C336.417 32.6108 332.973 32.7919 329.71 32.2487C329.166 32.2487 329.166 31.3433 329.71 31.3433C332.973 31.1622 336.417 31.5243 339.68 31.5243C340.224 31.7054 340.224 32.6108 339.68 32.6108Z" fill="white"/>
<path d="M323.909 26.8162C327.535 23.5567 331.16 19.573 335.33 17.0378C336.055 16.6757 336.599 17.5811 336.055 18.1243C332.792 21.7459 328.26 24.4621 324.453 27.5405C324.091 27.9027 323.366 27.3594 323.909 26.8162Z" fill="white"/>
<path d="M315.571 21.9271C315.571 20.8406 316.296 19.9352 316.84 19.0298C317.384 17.9433 317.927 16.8568 318.834 15.9514C319.196 15.5892 320.103 15.9514 319.921 16.4946C319.559 17.5811 318.652 18.6676 318.109 19.573C317.565 20.4784 317.021 21.5649 316.115 22.1081C315.752 22.1081 315.571 22.1081 315.571 21.9271Z" fill="white"/>
<path d="M307.595 19.7541C307.413 14.8649 307.232 9.61351 307.957 4.54324C307.957 3.81892 309.045 3.81892 309.045 4.54324C309.407 9.61351 309.045 14.8649 308.682 19.7541C308.682 20.4784 307.595 20.4784 307.595 19.7541Z" fill="white"/>
<path d="M301.794 22.108C300.525 20.2972 299.256 18.4864 298.35 16.3135C297.987 15.5891 298.894 15.0459 299.437 15.7702C300.706 17.581 301.613 19.5729 302.7 21.5648C302.882 22.2891 302.157 22.6513 301.794 22.108Z" fill="white"/>
<path d="M297.262 26.454C294.724 25.3675 292.368 24.0999 290.011 22.8324C287.836 21.3837 285.117 20.2972 283.123 18.4864C282.76 18.1243 283.123 17.3999 283.667 17.581C286.023 18.3053 288.199 19.9351 290.374 21.2026C292.912 22.6513 295.268 23.9189 297.625 25.5486C297.987 25.9107 297.806 26.6351 297.262 26.454Z" fill="white"/>
<path d="M293.999 32.792C292.187 33.5163 288.924 32.9731 287.655 31.5244C287.111 30.9812 287.655 30.4379 288.199 30.4379C289.105 30.619 290.011 31.1622 291.099 31.3433C292.005 31.5244 293.093 31.5244 293.999 31.7055C294.543 32.0676 294.362 32.792 293.999 32.792Z" fill="white"/>
<path d="M293.274 41.846C286.205 43.6568 278.954 45.6487 271.703 46.5541C270.796 46.7351 270.796 45.2865 271.521 45.1054C278.41 43.1135 285.842 42.027 292.912 40.7595C293.637 40.5784 293.999 41.6649 293.274 41.846Z" fill="white"/>
<path d="M392.975 164.8C392.793 163.17 392.793 161.722 391.887 160.454C390.074 157.738 387.718 158.462 385.361 159.549C383.005 160.816 380.648 161.541 377.929 160.273C373.76 158.462 371.947 152.305 375.754 149.408C377.023 148.503 378.291 149.951 378.11 151.219C377.929 152.849 377.023 154.659 378.473 156.108C380.467 158.1 382.642 156.47 384.636 155.565C386.63 154.659 388.987 154.478 390.981 155.203C394.606 156.651 397.325 161.722 394.425 164.981C394.062 165.705 393.156 165.343 392.975 164.8Z" fill="white"/>
<path d="M338.774 167.697C333.879 166.43 328.622 164.619 324.091 162.446C322.459 161.722 323.547 159.187 325.178 159.73C330.073 161.178 334.786 163.351 339.318 165.705C340.224 166.43 340.043 168.059 338.774 167.697Z" fill="#EDC483"/>
<path d="M363.427 172.949C362.339 176.751 361.252 180.735 359.983 184.538C359.62 185.443 358.895 185.805 357.989 185.262C354.907 183.089 351.826 181.097 348.744 178.743C348.2 178.381 348.381 177.295 348.925 176.932C352.369 174.578 357.082 171.138 361.433 170.957C362.521 170.957 363.246 172.586 362.158 173.13C360.345 174.216 358.351 174.578 356.357 175.303C354.182 176.208 352.007 177.295 350.013 178.562C350.013 177.838 350.013 177.295 349.832 176.57C353.094 178.562 356.176 180.916 359.439 183.089C358.895 183.27 358.17 183.27 357.626 183.451C358.895 179.649 360.345 175.846 361.796 172.224C362.339 171.681 363.608 172.043 363.427 172.949Z" fill="#EDE6F5"/>
<path d="M356.539 211.7C351.463 212.062 346.025 212.243 340.949 211.7C339.136 211.519 339.318 208.984 341.13 208.803C346.206 208.622 351.463 208.984 356.357 209.708C357.445 209.889 357.808 211.519 356.539 211.7Z" fill="#073143"/>
<path d="M256.838 94.3595L253.213 106.854L248.137 105.949L248.681 103.414L247.231 102.508L244.512 105.224L235.992 103.595L234.904 100.335L237.261 99.7919L234.179 98.7054L234.904 95.2649L237.623 95.4459L233.998 94.3595L234.904 90.0135L243.605 91.6432C243.605 91.6432 243.061 85.6676 245.599 83.6757L247.593 84.0378C247.593 84.0378 246.868 85.8487 247.049 87.1162C247.049 88.2027 248.862 93.6351 248.862 93.6351L251.581 94.9027L252.125 93.0919L256.838 94.3595Z" fill="white"/>
<path d="M433.036 71L430.136 105.586H366.327L362.883 117.719L359.076 104.319L346.931 103.595L352.55 72.6297L433.036 71Z" fill="#D2DBF3"/>
<path d="M424.697 83.6756C402.763 82.7702 380.829 82.7702 358.895 84.7621C358.17 84.7621 358.17 83.6756 358.895 83.4945C380.829 81.8648 402.763 81.1405 424.697 82.5891C425.241 82.7702 425.241 83.8567 424.697 83.6756Z" fill="white"/>
<path d="M423.428 90.5567C401.494 89.6513 379.56 89.6513 357.626 91.6432C356.901 91.6432 356.901 90.5567 357.626 90.3756C379.56 88.7459 401.494 88.0216 423.428 89.4702C423.972 89.4702 423.972 90.5567 423.428 90.5567Z" fill="white"/>
<path d="M423.247 96.3512C408.564 96.8944 393.881 95.808 379.198 97.0755C378.473 97.0755 378.473 95.989 379.198 95.808C393.881 94.7215 408.564 95.4458 423.247 95.2647C423.972 95.2647 423.972 96.1701 423.247 96.3512Z" fill="white"/>
</g>
</g>
<defs>
<filter id="filter0_d" x="0" y="0" width="1776" height="284" filterUnits="userSpaceOnUse" color-interpolation-filters="sRGB">
<feFlood flood-opacity="0" result="BackgroundImageFix"/>
<feColorMatrix in="SourceAlpha" type="matrix" values="0 0 0 0 0 0 0 0 0 0 0 0 0 0 0 0 0 0 127 0"/>
<feOffset dy="4"/>
<feGaussianBlur stdDeviation="4"/>
<feColorMatrix type="matrix" values="0 0 0 0 0.7375 0 0 0 0 0.7375 0 0 0 0 0.7375 0 0 0 0.25 0"/>
<feBlend mode="normal" in2="BackgroundImageFix" result="effect1_dropShadow"/>
<feBlend mode="normal" in="SourceGraphic" in2="effect1_dropShadow" result="shape"/>
</filter>
<linearGradient id="paint0_linear" x1="1375.55" y1="-359.242" x2="1161.68" y2="175.409" gradientUnits="userSpaceOnUse">
<stop stop-color="#FF9E07"/>
<stop offset="1" stop-color="#FFB923"/>
</linearGradient>
<linearGradient id="paint1_linear" x1="-3.54334" y1="-273.755" x2="1219.92" y2="524.763" gradientUnits="userSpaceOnUse">
<stop stop-color="#FF9E07"/>
<stop offset="1" stop-color="#FFB923"/>
</linearGradient>
<linearGradient id="paint2_linear" x1="618.284" y1="194.459" x2="467.724" y2="557.569" gradientUnits="userSpaceOnUse">
<stop stop-color="#FF9E07"/>
<stop offset="1" stop-color="#FFB923"/>
</linearGradient>
<linearGradient id="paint3_linear" x1="1691.05" y1="128.231" x2="1823.11" y2="128.231" gradientUnits="userSpaceOnUse">
<stop stop-color="#F25E28"/>
<stop offset="0.4785" stop-color="#FD9F03"/>
<stop offset="0.6828" stop-color="#FDC202"/>
<stop offset="0.6935" stop-color="#FDC402"/>
<stop offset="0.9892" stop-color="#FEF801"/>
<stop offset="1" stop-color="#FEF801"/>
</linearGradient>
<linearGradient id="paint4_linear" x1="537.981" y1="312.211" x2="670.041" y2="312.211" gradientUnits="userSpaceOnUse">
<stop stop-color="#F25E28"/>
<stop offset="0.4785" stop-color="#FD9F03"/>
<stop offset="0.6828" stop-color="#FDC202"/>
<stop offset="0.6935" stop-color="#FDC402"/>
<stop offset="0.9892" stop-color="#FEF801"/>
<stop offset="1" stop-color="#FEF801"/>
</linearGradient>
<clipPath id="clip0">
<rect width="242" height="268" fill="white" transform="matrix(-1 0 0 1 445 4)"/>
</clipPath>
</defs>
</svg>
