<svg width="1259" height="550" viewBox="0 0 1259 550" fill="none" xmlns="http://www.w3.org/2000/svg">
<path d="M451.144 88.1082C452.113 90.7847 450.902 93.7046 448.237 94.6778C445.572 95.6511 442.665 94.4345 441.696 91.758C440.727 89.0815 441.938 86.1617 444.603 85.1884C447.268 84.2151 450.175 85.4317 451.144 88.1082Z" stroke="#0D719C" stroke-miterlimit="10" stroke-linecap="round" stroke-linejoin="round"/>
<path d="M228.517 43.3375C229.486 46.014 228.274 48.9339 225.61 49.9071C222.945 50.8804 220.038 49.6638 219.069 46.9873C218.1 44.3108 219.311 41.391 221.976 40.4177C224.641 39.4444 227.548 40.661 228.517 43.3375Z" stroke="#0D719C" stroke-miterlimit="10" stroke-linecap="round" stroke-linejoin="round"/>
<path d="M32.7792 316.098C33.7482 318.775 32.5369 321.694 29.8722 322.668C27.2074 323.641 24.3005 322.424 23.3315 319.748C22.3625 317.071 23.5737 314.152 26.2384 313.178C28.9032 311.962 31.8102 313.422 32.7792 316.098Z" stroke="#0D719C" stroke-miterlimit="10" stroke-linecap="round" stroke-linejoin="round"/>
<path d="M621.203 95.6511C622.172 98.3276 620.961 101.247 618.296 102.221C615.631 103.194 612.724 101.977 611.755 99.3009C610.786 96.6244 611.998 93.7045 614.662 92.7313C617.085 91.5147 619.992 92.9746 621.203 95.6511Z" stroke="#0D719C" stroke-miterlimit="10" stroke-linecap="round" stroke-linejoin="round"/>
<path d="M1077.6 119.74C1078.57 122.416 1077.36 125.336 1074.69 126.309C1072.03 127.283 1069.12 126.066 1068.15 123.389C1067.18 120.713 1068.4 117.793 1071.06 116.82C1073.73 115.847 1076.63 117.063 1077.6 119.74Z" stroke="#0D719C" stroke-miterlimit="10" stroke-linecap="round" stroke-linejoin="round"/>
<path d="M1212.78 383.497C1213.75 386.174 1212.53 389.094 1209.87 390.067C1207.2 391.04 1204.3 389.824 1203.33 387.147C1202.36 384.471 1203.57 381.551 1206.24 380.578C1208.66 379.604 1211.56 380.821 1212.78 383.497Z" stroke="#0D719C" stroke-miterlimit="10" stroke-linecap="round" stroke-linejoin="round"/>
<path d="M513.402 14.3825V24.3586" stroke="#0D719C" stroke-miterlimit="10" stroke-linecap="round" stroke-linejoin="round"/>
<path d="M518.247 19.2489H508.315" stroke="#0D719C" stroke-miterlimit="10" stroke-linecap="round" stroke-linejoin="round"/>
<path d="M641.794 1V10.9761" stroke="#0D719C" stroke-miterlimit="10" stroke-linecap="round" stroke-linejoin="round"/>
<path d="M646.639 6.10968H636.707" stroke="#0D719C" stroke-miterlimit="10" stroke-linecap="round" stroke-linejoin="round"/>
<path d="M288.352 230.207V240.183" stroke="#0D719C" stroke-miterlimit="10" stroke-linecap="round" stroke-linejoin="round"/>
<path d="M293.44 235.316H283.507" stroke="#0D719C" stroke-miterlimit="10" stroke-linecap="round" stroke-linejoin="round"/>
<path d="M109.088 181.056V191.032" stroke="#0D719C" stroke-miterlimit="10" stroke-linecap="round" stroke-linejoin="round"/>
<path d="M114.175 185.922H104" stroke="#0D719C" stroke-miterlimit="10" stroke-linecap="round" stroke-linejoin="round"/>
<path d="M890.827 92.4879V102.464" stroke="#0D719C" stroke-miterlimit="10" stroke-linecap="round" stroke-linejoin="round"/>
<path d="M895.914 97.3543H885.74" stroke="#0D719C" stroke-miterlimit="10" stroke-linecap="round" stroke-linejoin="round"/>
<path d="M74.2039 371.332V381.308" stroke="#0D719C" stroke-miterlimit="10" stroke-linecap="round" stroke-linejoin="round"/>
<path d="M79.2911 376.198H69.3589" stroke="#0D719C" stroke-miterlimit="10" stroke-linecap="round" stroke-linejoin="round"/>
<path d="M1181.28 271.327V281.547" stroke="#0D719C" stroke-miterlimit="10" stroke-linecap="round" stroke-linejoin="round"/>
<path d="M1186.37 276.437H1176.2" stroke="#0D719C" stroke-miterlimit="10" stroke-linecap="round" stroke-linejoin="round"/>
<path d="M1023.82 216.337V226.557" stroke="#0D719C" stroke-miterlimit="10" stroke-linecap="round" stroke-linejoin="round"/>
<path d="M1028.91 221.447H1018.98" stroke="#0D719C" stroke-miterlimit="10" stroke-linecap="round" stroke-linejoin="round"/>
<path d="M1179.56 221.896C1179.56 221.896 1162.55 212.738 1146.36 252.968C1130.17 293.197 1124.78 316.091 1124.78 316.091C1124.78 316.091 1120.36 324.595 1114.31 319.852C1108.26 315.11 1099.43 300.883 1090.27 304.317C1080.79 307.915 1078.5 319.198 1081.77 335.061C1085.04 350.924 1090.93 385.92 1091.58 389.027C1092.07 392.134 1090.76 396.876 1086.18 394.26C1081.6 391.643 1054.13 366.132 1042.68 379.869C1031.24 393.606 1047.75 436.288 1049.39 440.867C1051.02 445.609 1050.37 447.735 1048.08 449.043C1045.95 450.515 1037.45 441.03 1029.44 433.998C1021.26 426.966 1010.63 420.425 1004.74 428.929C998.857 437.433 999.675 470.466 1035.65 520.834L1053.8 543.075L1082.42 538.986C1143.09 526.394 1166.15 502.682 1167.62 492.38C1169.09 482.077 1156.67 479.788 1146.04 479.461C1135.41 479.133 1122.65 480.278 1122 477.825C1121.34 475.372 1122.16 473.246 1126.74 470.957C1131.15 468.667 1172.2 448.553 1173.18 430.728C1174.16 412.903 1136.55 413.066 1131.48 411.758C1126.41 410.45 1128.54 406.034 1130.99 404.235C1133.44 402.273 1161.57 380.687 1174.82 371.202C1187.9 361.88 1193.95 352.068 1189.37 342.911C1184.96 334.08 1168.77 338.495 1161.08 338.005C1153.4 337.35 1156.01 328.193 1156.01 328.193C1156.01 328.193 1167.46 307.751 1182.99 267.195C1198.37 226.639 1179.23 221.896 1179.23 221.896" fill="#BACCE7"/>
<path d="M1054.79 537.024C1066.23 507.261 1082.42 466.378 1100.41 421.243C1118.4 376.108 1134.59 335.224 1146.2 305.625C1151.92 290.907 1156.67 278.806 1159.94 270.466C1161.57 266.377 1162.88 263.107 1163.7 260.981C1164.19 259.999 1164.52 259.182 1164.68 258.528C1164.84 258.037 1165.01 257.71 1165.01 257.71C1165.01 257.71 1165.01 258.037 1164.68 258.528C1164.52 259.182 1164.19 259.999 1163.7 260.981C1162.88 263.27 1161.74 266.377 1160.1 270.629C1156.99 278.969 1152.41 291.071 1146.69 305.789C1135.24 335.552 1119.05 376.435 1101.06 421.406C1083.08 466.541 1066.89 507.425 1055.28 537.024" fill="#BACCE7"/>
<path d="M1101.88 324.595C1101.88 324.595 1102.21 325.249 1102.86 326.394C1103.35 327.702 1104.17 329.501 1104.99 331.627C1106.62 336.042 1108.91 342.256 1111.2 349.288C1113.49 356.157 1115.46 362.207 1117.09 367.113C1117.75 369.239 1118.4 371.038 1118.89 372.51C1119.38 373.818 1119.54 374.472 1119.38 374.472C1119.38 374.472 1119.05 373.818 1118.4 372.674C1117.91 371.365 1117.09 369.566 1116.27 367.441C1114.64 363.025 1112.51 356.647 1110.22 349.779C1107.93 342.911 1105.81 336.86 1104.34 332.117C1103.68 329.992 1103.03 328.193 1102.54 326.721C1102.05 325.249 1101.72 324.595 1101.88 324.595Z" fill="#BACCE7"/>
<path d="M1122 374.799C1121.83 374.472 1134.59 369.403 1150.29 363.352C1165.99 357.301 1178.74 352.559 1178.91 352.886C1179.07 353.213 1166.31 358.283 1150.62 364.333C1134.92 370.221 1122 374.963 1122 374.799Z" fill="#BACCE7"/>
<path d="M1091.25 442.666C1091.25 442.666 1092.07 442.502 1093.38 442.339C1095.01 442.175 1096.81 442.012 1099.1 441.848C1104.01 441.357 1110.71 440.867 1118.07 439.886C1125.43 438.904 1132.14 437.923 1136.88 437.106C1139.17 436.779 1140.97 436.451 1142.6 436.124C1143.91 435.961 1144.73 435.797 1144.73 435.961C1144.73 435.961 1144.07 436.288 1142.77 436.615C1141.46 436.942 1139.5 437.433 1137.04 437.923C1132.3 438.904 1125.59 440.049 1118.24 441.03C1110.88 442.012 1104.17 442.502 1099.27 442.829C1096.81 442.993 1094.85 442.993 1093.54 442.993C1091.91 442.829 1091.25 442.829 1091.25 442.666Z" fill="#BACCE7"/>
<path d="M1062.96 401.455C1062.96 401.455 1063.45 401.946 1064.27 402.927C1065.09 403.908 1066.07 405.38 1067.54 407.179C1070.16 410.777 1073.75 415.846 1077.84 421.57C1081.77 427.13 1085.37 432.363 1087.82 436.124C1089.13 437.923 1090.11 439.558 1090.76 440.54C1091.42 441.684 1091.74 442.175 1091.74 442.175C1091.74 442.175 1091.25 441.684 1090.44 440.703C1089.62 439.722 1088.64 438.25 1087.16 436.451C1084.55 432.854 1080.95 427.784 1076.86 422.06C1072.94 416.5 1069.34 411.267 1066.89 407.506C1065.58 405.707 1064.6 404.072 1063.94 403.091C1063.29 402.109 1062.96 401.455 1062.96 401.455Z" fill="#BACCE7"/>
<path d="M1028.29 458.038C1028.29 458.038 1028.95 458.692 1029.93 460C1031.07 461.472 1032.38 463.271 1034.02 465.397C1037.45 469.976 1042.19 476.517 1047.26 483.712C1052.33 490.908 1056.91 497.449 1060.35 502.192C1061.82 504.481 1063.13 506.28 1064.27 507.915C1065.09 509.223 1065.58 510.041 1065.58 510.041C1065.58 510.041 1064.92 509.387 1063.94 508.079C1062.8 506.607 1061.49 504.808 1059.85 502.682C1056.42 498.103 1051.68 491.562 1046.61 484.366C1041.54 477.171 1036.96 470.63 1033.53 465.887C1032.05 463.598 1030.75 461.799 1029.6 460.164C1028.62 458.855 1028.13 458.038 1028.29 458.038Z" fill="#BACCE7"/>
<path d="M1064.92 508.406C1064.92 508.406 1065.91 508.242 1067.54 507.915C1069.5 507.752 1071.96 507.425 1074.74 506.934C1080.95 506.116 1089.29 505.135 1098.61 503.663C1107.93 502.192 1116.27 500.72 1122.49 499.575C1125.43 499.084 1127.88 498.594 1129.68 498.267C1131.32 497.94 1132.3 497.776 1132.3 497.94C1132.3 497.94 1131.32 498.267 1129.68 498.757C1128.05 499.248 1125.59 499.739 1122.49 500.393C1116.44 501.701 1108.1 503.336 1098.61 504.808C1089.29 506.28 1080.79 507.261 1074.57 507.915C1071.47 508.242 1069.01 508.406 1067.21 508.569C1065.91 508.569 1064.92 508.569 1064.92 508.406Z" fill="#BACCE7"/>
<path d="M1258.57 548.981C1258.57 549.169 976.886 549.545 629.381 549.545C281.689 549.545 0 549.357 0 548.981C0 548.793 281.689 548.416 629.381 548.416C976.698 548.604 1258.57 548.793 1258.57 548.981Z" fill="#263238"/>
<g clip-path="url(#clip0)">
<path d="M965.36 245.832C931.628 216.889 890.93 42.341 751.593 133.253C679.611 180.211 558.215 92.9229 457.72 123.083C365.456 150.781 356.553 241.991 365.483 271.718C383.506 331.767 327.394 340.693 275.317 366.498C193.652 406.964 253.691 549.189 330.864 549.865C408.011 550.541 875.436 548.512 875.436 548.512C875.436 548.512 987.525 548.81 1034.14 486.597C1084.31 419.65 1052.51 320.596 965.36 245.832Z" fill="#EBF2F9"/>
<path d="M823.184 462.987H1015.27V138.45H823.184V462.987Z" fill="#AED3FF"/>
<path d="M1009.23 138.447H817.146V462.983H1009.23V138.447Z" fill="#D2E4FF"/>
<path d="M996.616 156.57H830.245V269.608H996.616V156.57Z" fill="#F3F9FF"/>
<path d="M993.765 375.695H904.46V436.042H993.765V375.695Z" fill="#F3F9FF"/>
<path d="M837.105 214.266C837.105 214.266 865.51 210.695 882.86 226.789C900.21 242.884 932.57 228.223 945.589 226.789C968.238 224.301 985.964 231.766 991.236 239.935V264.496H837.105V214.266Z" fill="#EE9849"/>
<path d="M860.292 174.747H859.108V213.102H860.292V174.747Z" fill="#A6C7F9"/>
<path d="M907.015 191.193H905.832V229.548H907.015V191.193Z" fill="#A6C7F9"/>
<path d="M955.219 182.537H954.035V220.893H955.219V182.537Z" fill="#A6C7F9"/>
<path d="M873.607 180.643H864.488C863.95 180.643 863.493 180.184 863.493 179.643C863.493 179.102 863.95 178.642 864.488 178.642H873.607C874.145 178.642 874.602 179.102 874.602 179.643C874.602 180.184 874.145 180.643 873.607 180.643Z" fill="#A6C7F9"/>
<path d="M873.607 184.214H864.488C863.95 184.214 863.493 183.754 863.493 183.213C863.493 182.672 863.95 182.212 864.488 182.212H873.607C874.145 182.212 874.602 182.672 874.602 183.213C874.602 183.781 874.145 184.214 873.607 184.214Z" fill="#A6C7F9"/>
<path d="M919.631 200.173H910.512C909.974 200.173 909.517 199.713 909.517 199.172C909.517 198.631 909.974 198.171 910.512 198.171H919.631C920.169 198.171 920.626 198.631 920.626 199.172C920.599 199.74 920.169 200.173 919.631 200.173Z" fill="#A6C7F9"/>
<path d="M919.631 203.689H910.512C909.974 203.689 909.517 203.229 909.517 202.688C909.517 202.148 909.974 201.688 910.512 201.688H919.631C920.169 201.688 920.626 202.148 920.626 202.688C920.599 203.257 920.169 203.689 919.631 203.689Z" fill="#A6C7F9"/>
<path d="M968.614 185.729H959.496C958.958 185.729 958.5 185.269 958.5 184.728C958.5 184.187 958.958 183.727 959.496 183.727H968.614C969.152 183.727 969.61 184.187 969.61 184.728C969.61 185.269 969.152 185.729 968.614 185.729Z" fill="#A6C7F9"/>
<path d="M968.614 189.245H959.496C958.958 189.245 958.5 188.785 958.5 188.244C958.5 187.703 958.958 187.243 959.496 187.243H968.614C969.152 187.243 969.61 187.703 969.61 188.244C969.61 188.785 969.152 189.245 968.614 189.245Z" fill="#A6C7F9"/>
<path d="M963.773 298.524C963.773 289.408 971.116 281.997 980.208 281.997C989.273 281.997 996.643 289.381 996.643 298.524C996.643 307.639 989.3 315.051 980.208 315.051C971.116 315.051 963.773 307.666 963.773 298.524Z" fill="#F3F9FF"/>
<path d="M995.218 298.524C995.218 306.882 988.493 313.644 980.181 313.644C976.254 313.644 972.703 312.129 970.013 309.668L980.181 298.524V283.403C988.493 283.403 995.218 290.193 995.218 298.524Z" fill="#C65447"/>
<path d="M974.452 295.873H969.045C968.803 295.873 968.588 295.657 968.588 295.413C968.588 295.17 968.803 294.953 969.045 294.953H974.452C974.694 294.953 974.909 295.17 974.909 295.413C974.909 295.657 974.721 295.873 974.452 295.873Z" fill="#A6C7F9"/>
<path d="M939.402 315.051C948.479 315.051 955.837 307.651 955.837 298.524C955.837 289.396 948.479 281.997 939.402 281.997C930.325 281.997 922.967 289.396 922.967 298.524C922.967 307.651 930.325 315.051 939.402 315.051Z" fill="#F3F9FF"/>
<path d="M939.402 298.524L948.628 310.452C946.073 312.454 942.872 313.644 939.402 313.644C931.09 313.644 924.365 306.882 924.365 298.524C924.365 290.166 931.09 283.403 939.402 283.403C947.23 283.403 953.685 289.435 954.385 297.144L939.402 298.524Z" fill="#E57970"/>
<path d="M950.969 302.284H947.203C946.961 302.284 946.745 302.067 946.745 301.824C946.745 301.58 946.961 301.364 947.203 301.364H950.969C951.211 301.364 951.426 301.58 951.426 301.824C951.426 302.067 951.238 302.284 950.969 302.284Z" fill="#A6C7F9"/>
<path d="M963.773 344.048C963.773 334.932 971.116 327.52 980.208 327.52C989.273 327.52 996.643 334.905 996.643 344.048C996.643 353.163 989.3 360.575 980.208 360.575C971.116 360.548 963.773 353.163 963.773 344.048Z" fill="#F3F9FF"/>
<path d="M995.218 344.048C995.218 352.406 988.493 359.168 980.181 359.168C976.254 359.168 972.703 357.653 970.013 355.192L980.181 344.048V328.927C988.493 328.927 995.218 335.689 995.218 344.048Z" fill="#EE9849"/>
<path d="M974.452 341.37H969.045C968.803 341.37 968.588 341.153 968.588 340.91C968.588 340.666 968.803 340.45 969.045 340.45H974.452C974.694 340.45 974.909 340.666 974.909 340.91C974.909 341.153 974.721 341.37 974.452 341.37Z" fill="#A6C7F9"/>
<path d="M922.967 344.048C922.967 334.932 930.31 327.52 939.402 327.52C948.467 327.52 955.837 334.905 955.837 344.048C955.837 353.163 948.494 360.575 939.402 360.575C930.337 360.548 922.967 353.163 922.967 344.048Z" fill="#F3F9FF"/>
<path d="M954.385 342.641C953.685 334.932 947.257 328.9 939.402 328.9C931.09 328.9 924.365 335.662 924.365 344.021C924.365 352.379 931.09 359.141 939.402 359.141C942.899 359.141 946.1 357.951 948.628 355.949L939.402 344.021L954.385 342.641Z" fill="#C65447"/>
<path d="M950.969 347.78H947.203C946.961 347.78 946.745 347.564 946.745 347.321C946.745 347.077 946.961 346.861 947.203 346.861H950.969C951.211 346.861 951.426 347.077 951.426 347.321C951.426 347.564 951.238 347.78 950.969 347.78Z" fill="#A6C7F9"/>
<path d="M989.892 431.849H907.93V383.134H908.952V430.821H989.892V431.849Z" fill="#A6C7F9"/>
<path d="M933.565 414.24C923.531 406.207 912.853 414.24 912.853 414.24V427.981H987.874V392.493C967.485 392.98 943.598 422.247 933.565 414.24Z" fill="#A6C7F9"/>
<path d="M913.713 386.839H948.655C949.139 386.839 949.516 386.461 949.516 385.974C949.516 385.487 949.139 385.108 948.655 385.108H913.713C913.229 385.108 912.853 385.487 912.853 385.974C912.853 386.461 913.229 386.839 913.713 386.839Z" fill="#A6C7F9"/>
<path d="M913.713 391.059H948.655C949.139 391.059 949.516 390.68 949.516 390.193C949.516 389.707 949.139 389.328 948.655 389.328H913.713C913.229 389.328 912.853 389.707 912.853 390.193C912.853 390.68 913.229 391.059 913.713 391.059Z" fill="#A6C7F9"/>
<path d="M913.552 395.062H936.685C937.062 395.062 937.385 394.738 937.385 394.359V394.034C937.385 393.656 937.062 393.331 936.685 393.331H913.552C913.175 393.331 912.853 393.656 912.853 394.034V394.359C912.853 394.738 913.175 395.062 913.552 395.062Z" fill="#A6C7F9"/>
<path d="M785.378 88H522.547V486.597H785.378V88Z" fill="#D2E4FF"/>
<path d="M759.555 110.289H547.94V347.456H759.555V110.289Z" fill="#F3F9FF"/>
<path d="M617.402 450.312C632.266 435.365 632.266 411.131 617.402 396.184C602.538 381.237 578.438 381.237 563.574 396.184C548.71 411.131 548.71 435.365 563.574 450.312C578.438 465.259 602.538 465.259 617.402 450.312Z" fill="#F3F9FF"/>
<path d="M622.665 423.248C622.665 405.395 608.274 390.897 590.494 390.897C572.714 390.897 558.323 405.368 558.323 423.248C558.323 441.1 572.714 455.598 590.494 455.598C597.837 455.598 604.589 453.137 609.996 448.971L590.494 423.248L620.567 434.798C621.912 431.2 622.665 427.305 622.665 423.248Z" fill="#EE9849"/>
<path d="M757.205 432.096C762.035 411.524 749.367 390.909 728.909 386.051C708.451 381.194 687.951 393.933 683.12 414.505C678.29 435.077 690.958 455.691 711.416 460.549C731.874 465.407 752.374 452.668 757.205 432.096Z" fill="#F3F9FF"/>
<path d="M720.147 390.897C702.367 390.897 687.976 405.368 687.976 423.248C687.976 432.093 691.5 440.099 697.229 445.942L720.147 423.248L750.221 434.798C751.592 431.227 752.319 427.332 752.319 423.248C752.319 405.395 737.928 390.897 720.147 390.897Z" fill="#EE9849"/>
<path d="M715.467 406.829H701.775C701.238 406.829 700.807 407.261 700.807 407.802C700.807 408.343 701.238 408.776 701.775 408.776H715.467C716.005 408.776 716.435 408.343 716.435 407.802C716.435 407.261 716.005 406.829 715.467 406.829Z" fill="#DD7C2C"/>
<path d="M715.467 409.939H701.775C701.238 409.939 700.807 410.372 700.807 410.913C700.807 411.454 701.238 411.887 701.775 411.887H715.467C716.005 411.887 716.435 411.454 716.435 410.913C716.435 410.372 716.005 409.939 715.467 409.939Z" fill="#DD7C2C"/>
<path d="M707.424 413.05H701.775C701.238 413.05 700.807 413.483 700.807 414.024C700.807 414.565 701.238 414.998 701.775 414.998H707.424C707.962 414.998 708.393 414.565 708.393 414.024C708.393 413.483 707.962 413.05 707.424 413.05Z" fill="#DD7C2C"/>
<path d="M585.518 406.829H571.826C571.288 406.829 570.858 407.261 570.858 407.802C570.858 408.343 571.288 408.776 571.826 408.776H585.518C586.056 408.776 586.486 408.343 586.486 407.802C586.513 407.261 586.056 406.829 585.518 406.829Z" fill="#DD7C2C"/>
<path d="M585.518 409.939H571.826C571.288 409.939 570.858 410.372 570.858 410.913C570.858 411.454 571.288 411.887 571.826 411.887H585.518C586.056 411.887 586.486 411.454 586.486 410.913C586.486 410.372 586.056 409.939 585.518 409.939Z" fill="#DD7C2C"/>
<path d="M577.502 413.05H571.853C571.315 413.05 570.885 413.483 570.885 414.024C570.885 414.565 571.315 414.998 571.853 414.998H577.502C578.04 414.998 578.47 414.565 578.47 414.024C578.47 413.483 578.04 413.05 577.502 413.05Z" fill="#DD7C2C"/>
<path d="M589.122 195.061H566.796V334.932H589.122V195.061Z" fill="#A6C7F9"/>
<path d="M625.678 156.056H603.352V334.932H625.678V156.056Z" fill="#A6C7F9"/>
<path d="M665.596 228.872H643.27V334.932H665.596V228.872Z" fill="#A6C7F9"/>
<path d="M704.439 179.94H682.112V334.932H704.439V179.94Z" fill="#A6C7F9"/>
<path d="M743.496 249.646H721.17V334.932H743.496V249.646Z" fill="#A6C7F9"/>
<path d="M703.39 159.789H684.479C683.404 159.789 682.516 160.681 682.516 161.763C682.516 162.845 683.404 163.738 684.479 163.738H703.39C704.466 163.738 705.353 162.845 705.353 161.763C705.353 160.681 704.466 159.789 703.39 159.789Z" fill="#A6C7F9"/>
<path d="M688.783 166.93H684.479C683.404 166.93 682.516 167.822 682.516 168.904C682.516 169.986 683.404 170.879 684.479 170.879H688.783C689.859 170.879 690.747 169.986 690.747 168.904C690.747 167.822 689.859 166.93 688.783 166.93Z" fill="#A6C7F9"/>
<path d="M625.463 129.331H606.553C605.477 129.331 604.589 130.224 604.589 131.306C604.589 132.388 605.477 133.28 606.553 133.28H625.463C626.539 133.28 627.426 132.388 627.426 131.306C627.426 130.224 626.539 129.331 625.463 129.331Z" fill="#A6C7F9"/>
<path d="M610.857 136.472H606.553C605.477 136.472 604.589 137.365 604.589 138.447C604.589 139.529 605.477 140.421 606.553 140.421H610.857C611.933 140.421 612.82 139.529 612.82 138.447C612.82 137.365 611.933 136.472 610.857 136.472Z" fill="#A6C7F9"/>
<path d="M663.902 208.017H644.992C643.916 208.017 643.028 208.91 643.028 209.992C643.028 211.074 643.916 211.966 644.992 211.966H663.902C664.978 211.966 665.865 211.074 665.865 209.992C665.865 208.91 664.978 208.017 663.902 208.017Z" fill="#A6C7F9"/>
<path d="M649.295 215.158H644.992C643.916 215.158 643.028 216.051 643.028 217.133C643.028 218.215 643.916 219.107 644.992 219.107H649.295C650.371 219.107 651.259 218.215 651.259 217.133C651.259 216.051 650.371 215.158 649.295 215.158Z" fill="#A6C7F9"/>
<path d="M741.775 228.872H722.864C721.788 228.872 720.901 229.765 720.901 230.847C720.901 231.929 721.788 232.821 722.864 232.821H741.775C742.85 232.821 743.738 231.929 743.738 230.847C743.738 229.765 742.85 228.872 741.775 228.872Z" fill="#A6C7F9"/>
<path d="M727.195 236.04H722.891C721.815 236.04 720.928 236.933 720.928 238.015C720.928 239.097 721.815 239.989 722.891 239.989H727.195C728.271 239.989 729.159 239.097 729.159 238.015C729.132 236.933 728.271 236.04 727.195 236.04Z" fill="#A6C7F9"/>
<path d="M487.067 239.097H294.981V347.834H487.067V239.097Z" fill="#AED3FF"/>
<path d="M493.308 239.097H301.221V347.834H493.308V239.097Z" fill="#D2E4FF"/>
<path d="M378.333 315.686C391.894 302.049 391.894 279.939 378.333 266.301C364.771 252.664 342.784 252.664 329.222 266.301C315.661 279.939 315.661 302.049 329.222 315.686C342.784 329.323 364.771 329.323 378.333 315.686Z" fill="#F3F9FF"/>
<path d="M471.735 271.502H414.198C412.099 271.502 410.405 273.206 410.405 275.316C410.405 277.425 412.099 279.13 414.198 279.13H471.735C473.833 279.13 475.527 277.425 475.527 275.316C475.527 273.206 473.806 271.502 471.735 271.502Z" fill="#F3F9FF"/>
<path d="M471.735 287.19H414.198C412.099 287.19 410.405 288.894 410.405 291.004C410.405 293.114 412.099 294.818 414.198 294.818H471.735C473.833 294.818 475.527 293.114 475.527 291.004C475.527 288.894 473.806 287.19 471.735 287.19Z" fill="#F3F9FF"/>
<path d="M471.735 302.879H414.198C412.099 302.879 410.405 304.583 410.405 306.693C410.405 308.802 412.099 310.507 414.198 310.507H471.735C473.833 310.507 475.527 308.802 475.527 306.693C475.527 304.61 473.806 302.879 471.735 302.879Z" fill="#F3F9FF"/>
<path d="M321.96 290.49H353.755V258.518C336.217 258.518 321.96 272.827 321.96 290.49Z" fill="#648FFF"/>
<path d="M385.577 291.518H353.782H321.96C321.96 309.181 336.19 323.49 353.755 323.49C371.32 323.49 385.577 309.181 385.577 291.518Z" fill="#F1A34F"/>
<path d="M348.268 274.044H330.998C330.003 274.044 329.223 274.856 329.223 275.83C329.223 276.83 330.03 277.615 330.998 277.615H348.268C349.263 277.615 350.043 276.803 350.043 275.83C350.07 274.856 349.263 274.044 348.268 274.044Z" fill="#2858FF"/>
<path d="M334.953 280.59H331.025C330.03 280.59 329.25 281.402 329.25 282.375C329.25 283.349 330.057 284.161 331.025 284.161H334.953C335.948 284.161 336.728 283.349 336.728 282.375C336.728 281.402 335.921 280.59 334.953 280.59Z" fill="#2858FF"/>
<path d="M373.903 299.335H356.633C355.638 299.335 354.858 300.147 354.858 301.121C354.858 302.121 355.665 302.906 356.633 302.906H373.903C374.898 302.906 375.678 302.094 375.678 301.121C375.678 300.147 374.871 299.335 373.903 299.335Z" fill="#DD8936"/>
<path d="M360.561 305.881H356.633C355.638 305.881 354.858 306.693 354.858 307.666C354.858 308.667 355.665 309.452 356.633 309.452H360.561C361.556 309.452 362.336 308.64 362.336 307.666C362.363 306.693 361.556 305.881 360.561 305.881Z" fill="#DD8936"/>
<path d="M281.45 367.31V478.509H473.537V367.31H281.45Z" fill="#AED3FF"/>
<path d="M287.718 367.31V478.509H479.804V367.31H287.718Z" fill="#D2E4FF"/>
<path d="M340.225 454.408C359.404 454.408 374.952 438.774 374.952 419.488C374.952 400.202 359.404 384.567 340.225 384.567C321.046 384.567 305.498 400.202 305.498 419.488C305.498 438.774 321.046 454.408 340.225 454.408Z" fill="#F3F9FF"/>
<path d="M400.667 407.586H458.204C460.302 407.586 461.997 405.882 461.997 403.772C461.997 401.662 460.302 399.958 458.204 399.958H400.667C398.569 399.958 396.874 401.662 396.874 403.772C396.874 405.882 398.569 407.586 400.667 407.586Z" fill="#F3F9FF"/>
<path d="M458.204 415.674H400.667C398.569 415.674 396.874 417.378 396.874 419.488C396.874 421.598 398.569 423.302 400.667 423.302H458.204C460.302 423.302 461.997 421.598 461.997 419.488C461.997 417.378 460.275 415.674 458.204 415.674Z" fill="#F3F9FF"/>
<path d="M458.204 431.362H400.667C398.569 431.362 396.874 433.066 396.874 435.176C396.874 437.286 398.569 438.99 400.667 438.99H458.204C460.302 438.99 461.997 437.286 461.997 435.176C461.997 433.066 460.275 431.362 458.204 431.362Z" fill="#F3F9FF"/>
<path d="M340.225 420.056L308.43 419.65C308.43 419.785 308.43 419.921 308.43 420.056C308.43 437.719 322.66 452.028 340.225 452.028C346.492 452.028 352.356 450.189 357.279 447.024L340.225 420.056Z" fill="#F1A34F"/>
<path d="M341.409 430.118H324.139C323.144 430.118 322.364 430.93 322.364 431.903C322.364 432.904 323.171 433.689 324.139 433.689H341.409C342.404 433.689 343.184 432.877 343.184 431.903C343.184 430.93 342.404 430.118 341.409 430.118Z" fill="#DD8936"/>
<path d="M328.093 436.637H324.166C323.171 436.637 322.391 437.448 322.391 438.422C322.391 439.423 323.198 440.207 324.166 440.207H328.093C329.089 440.207 329.869 439.396 329.869 438.422C329.869 437.448 329.062 436.637 328.093 436.637Z" fill="#DD8936"/>
<path d="M473.537 120.486H281.45V221.271H473.537V120.486Z" fill="#AED3FF"/>
<path d="M479.804 120.486H287.718V221.271H479.804V120.486Z" fill="#D2E4FF"/>
<path d="M364.788 197.066C378.35 183.429 378.35 161.318 364.788 147.681C351.227 134.044 329.239 134.044 315.678 147.681C302.116 161.318 302.116 183.429 315.678 197.066C329.239 210.703 351.227 210.703 364.788 197.066Z" fill="#F3F9FF"/>
<path d="M340.252 140.394C322.687 140.394 308.457 154.703 308.457 172.366C308.457 184.457 315.128 195.007 325 200.416C330.084 190.922 340.252 172.366 340.252 172.366L355.315 200.525C365.295 195.115 372.046 184.539 372.046 172.366C372.046 154.703 357.79 140.394 340.252 140.394Z" fill="#648FFF"/>
<path d="M458.204 152.837H400.667C398.569 152.837 396.874 154.541 396.874 156.651C396.874 158.761 398.569 160.465 400.667 160.465H458.204C460.302 160.465 461.997 158.761 461.997 156.651C461.997 154.568 460.275 152.837 458.204 152.837Z" fill="#F3F9FF"/>
<path d="M458.204 168.552H400.667C398.569 168.552 396.874 170.257 396.874 172.366C396.874 174.476 398.569 176.18 400.667 176.18H458.204C460.302 176.18 461.997 174.476 461.997 172.366C461.997 170.257 460.275 168.552 458.204 168.552Z" fill="#F3F9FF"/>
<path d="M458.204 184.241H400.667C398.569 184.241 396.874 185.945 396.874 188.055C396.874 190.165 398.569 191.869 400.667 191.869H458.204C460.302 191.869 461.997 190.165 461.997 188.055C461.997 185.972 460.275 184.241 458.204 184.241Z" fill="#F3F9FF"/>
<path d="M341.409 157.084H324.139C323.144 157.084 322.364 157.895 322.364 158.869C322.364 159.87 323.171 160.654 324.139 160.654H341.409C342.404 160.654 343.184 159.843 343.184 158.869C343.184 157.895 342.404 157.084 341.409 157.084Z" fill="#2858FF"/>
<path d="M328.093 163.63H324.166C323.171 163.63 322.391 164.441 322.391 165.415C322.391 166.416 323.198 167.2 324.166 167.2H328.093C329.089 167.2 329.869 166.389 329.869 165.415C329.869 164.414 329.062 163.63 328.093 163.63Z" fill="#2858FF"/>
</g>
<path d="M1103.12 355.806C1103.12 355.806 1115.22 359.838 1120.38 389.827C1125.3 418.304 1135.88 432.542 1135.88 432.542L1176.58 439.598L1157.43 473.493L1101.99 454.089L1099.09 397.513L1103.12 355.806Z" fill="#E8505B"/>
<path d="M1029.66 355.05C1029.66 355.05 1011.39 357.444 1006.35 375.841C1001.18 394.363 995.64 437.834 995.64 437.834L962.375 494.284L984.552 508.018L1017.56 463.287C1021.34 458.121 1023.99 452.199 1024.87 445.899C1025.25 443.63 1025.38 441.236 1025.13 438.59L1024.37 424.73L1029.66 355.05Z" fill="#E8505B"/>
<path d="M1025.25 356.058L1018.7 401.671C1017.69 408.223 1018.19 415.028 1020.09 421.454L1028.15 449.301C1028.15 449.301 1021.22 464.925 1030.29 470.343C1032.06 471.477 1076.79 472.107 1076.79 472.107H1096.44L1103.63 402.931L1103.12 355.806C1103.12 355.806 1086.74 349.884 1080.31 349.128C1076.28 348.624 1058.77 348.12 1044.53 349.38L1025.25 356.058Z" fill="#E8505B"/>
<path d="M1007.11 446.151C1006.98 446.277 1005.22 443.504 1001.94 441.11C1000.3 439.976 998.79 439.094 997.53 438.716C996.27 438.212 995.64 437.834 995.64 437.834C995.64 437.834 996.396 437.96 997.782 438.338C999.042 438.716 1000.81 439.472 1002.44 440.732C1005.72 443 1007.36 446.151 1007.11 446.151Z" fill="#263238"/>
<path d="M1022.86 379.873C1022.86 379.873 1022.73 380.629 1022.23 382.015C1021.97 382.645 1021.72 383.527 1021.47 384.535C1021.22 385.543 1020.84 386.551 1020.71 387.811C1020.08 390.205 1019.71 393.229 1019.33 396.505C1019.08 399.781 1018.95 403.435 1019.08 407.341C1019.45 415.028 1020.71 421.832 1021.85 426.746C1022.35 429.14 1022.86 431.156 1023.24 432.542C1023.61 433.928 1023.74 434.684 1023.74 434.684C1023.74 434.684 1023.49 433.928 1022.98 432.668C1022.6 431.282 1021.97 429.392 1021.47 426.872C1020.34 421.958 1018.82 415.154 1018.57 407.341C1018.45 403.435 1018.57 399.781 1018.82 396.505C1019.2 393.229 1019.71 390.205 1020.34 387.811C1020.59 386.551 1020.97 385.543 1021.22 384.535C1021.47 383.527 1021.72 382.771 1021.97 382.141C1022.48 380.503 1022.86 379.873 1022.86 379.873Z" fill="#263238"/>
<path d="M1102.87 382.519C1102.87 382.519 1103 383.275 1103 384.661C1103 386.047 1103.12 388.063 1103.12 390.457C1103.12 395.371 1103.12 402.175 1102.74 409.61C1102.37 417.044 1101.86 423.848 1101.36 428.762C1101.11 431.156 1100.85 433.172 1100.73 434.558C1100.6 435.944 1100.48 436.7 1100.35 436.7C1100.35 436.7 1100.35 435.944 1100.48 434.558C1100.6 433.046 1100.73 431.156 1100.85 428.762C1101.23 423.848 1101.74 417.17 1101.99 409.61C1102.37 402.175 1102.49 395.371 1102.62 390.457C1102.62 388.063 1102.74 386.173 1102.74 384.661C1102.87 383.275 1102.87 382.519 1102.87 382.519Z" fill="#263238"/>
<g opacity="0.3">
<g opacity="0.3">
<path opacity="0.3" d="M1084.98 436.7C1085.86 438.212 1084.47 441.11 1080.82 444.134C1079.05 445.647 1076.66 447.159 1073.89 448.545C1071.12 449.931 1067.97 451.065 1064.44 451.821C1060.91 452.577 1057.63 452.955 1054.48 452.955C1051.46 452.955 1048.69 452.577 1046.29 451.947C1041.76 450.813 1039.11 448.797 1039.36 447.033C1039.49 445.142 1042.26 443.882 1046.29 442.622C1050.33 441.488 1055.62 440.354 1061.41 438.968C1067.21 437.582 1072.5 436.322 1076.66 435.692C1081.07 435.188 1084.09 435.188 1084.98 436.7Z" fill="black"/>
</g>
</g>
<path d="M1086.87 438.464C1086.87 438.464 1086.36 439.094 1085.48 439.976C1084.98 440.48 1084.47 441.11 1083.72 441.74C1082.96 442.37 1082.2 443.126 1081.2 443.756C1080.69 444.135 1080.19 444.513 1079.68 444.891C1079.18 445.269 1078.55 445.647 1077.92 446.025C1076.79 446.781 1075.4 447.537 1073.89 448.167C1070.99 449.553 1067.59 450.687 1064.06 451.569C1060.41 452.325 1056.88 452.577 1053.73 452.577C1052.09 452.451 1050.58 452.451 1049.19 452.325C1048.44 452.199 1047.81 452.199 1047.18 452.073C1046.55 451.947 1045.92 451.821 1045.29 451.695C1044.03 451.443 1043.02 451.191 1042.14 450.939C1041.25 450.687 1040.37 450.435 1039.74 450.183C1038.48 449.679 1037.85 449.427 1037.85 449.301C1037.85 449.175 1040.62 450.435 1045.41 451.317C1046.04 451.443 1046.67 451.569 1047.3 451.695C1047.93 451.821 1048.69 451.821 1049.32 451.947C1050.7 452.199 1052.22 452.199 1053.85 452.199C1057 452.199 1060.53 451.821 1064.06 451.065C1067.59 450.309 1070.86 449.049 1073.76 447.789C1075.15 447.033 1076.53 446.403 1077.79 445.647C1078.42 445.269 1079.05 445.017 1079.56 444.638C1080.06 444.26 1080.57 443.882 1081.07 443.504C1084.72 440.606 1086.74 438.464 1086.87 438.464Z" fill="#263238"/>
<path d="M1105.52 357.192C1105.64 357.318 1103.75 359.838 1102.49 363.24C1101.11 366.768 1100.98 369.792 1100.73 369.792C1100.6 369.792 1100.48 366.642 1101.86 362.988C1103.25 359.46 1105.39 357.192 1105.52 357.192Z" fill="#263238"/>
<g opacity="0.5">
<g opacity="0.5">
<path opacity="0.5" d="M1109.93 403.183C1107.28 404.191 1108.41 403.813 1107.28 406.081C1106.15 408.349 1105.77 411.122 1107.03 413.264C1108.04 415.154 1110.05 416.288 1112.07 417.044C1114.46 417.926 1117.36 418.178 1119.5 416.666C1121.64 415.154 1122.15 412.004 1121.39 409.484C1120.64 407.089 1119 405.073 1116.73 403.939C1114.46 402.805 1111.82 402.553 1109.55 403.435" fill="white"/>
</g>
<g opacity="0.5">
<path opacity="0.5" d="M1077.67 429.77C1076.79 428.006 1072.5 426.998 1070.86 428.258C1069.73 429.896 1069.73 432.164 1070.86 433.676C1072 435.188 1074.39 435.818 1076.16 434.81C1077.79 433.928 1078.55 431.534 1077.67 429.77Z" fill="white"/>
</g>
<g opacity="0.5">
<path opacity="0.5" d="M1018.45 434.306C1017.56 432.542 1013.28 431.534 1011.64 432.794C1010.51 434.432 1010.51 436.7 1011.64 438.212C1012.78 439.724 1015.17 440.354 1016.93 439.346C1018.57 438.464 1019.33 436.07 1018.45 434.306Z" fill="white"/>
</g>
<g opacity="0.5">
<path opacity="0.5" d="M1034.07 359.838C1029.16 360.468 1024.75 363.618 1022.61 368.028C1021.85 369.414 1021.47 370.926 1021.6 372.565C1021.72 374.077 1022.61 375.715 1023.99 376.345C1026.01 377.353 1028.53 376.345 1030.54 375.085C1032.31 374.077 1033.95 372.943 1035.33 371.556C1036.72 370.044 1037.85 368.28 1037.98 366.264C1038.23 364.248 1037.47 362.106 1035.84 360.846C1034.2 359.586 1031.68 359.712 1030.29 361.098" fill="white"/>
</g>
<g opacity="0.5">
<path opacity="0.5" d="M999.168 455.475C994.254 456.105 989.844 459.255 987.702 463.665C986.946 465.051 986.568 466.563 986.694 468.201C986.82 469.713 987.702 471.351 989.088 471.981C991.104 472.989 993.624 471.981 995.64 470.721C997.404 469.713 999.042 468.579 1000.43 467.193C1001.81 465.681 1002.95 463.917 1003.07 461.901C1003.33 459.885 1002.57 457.743 1000.93 456.483C999.294 455.223 996.774 455.349 995.388 456.735" fill="white"/>
</g>
<g opacity="0.5">
<path opacity="0.5" d="M1086.74 360.342C1084.09 361.35 1085.23 360.972 1084.09 363.24C1082.96 365.508 1082.58 368.28 1083.84 370.422C1084.85 372.313 1086.87 373.447 1088.88 374.203C1091.28 375.085 1094.18 375.337 1096.32 373.825C1098.46 372.313 1098.96 369.162 1098.21 366.642C1097.45 364.248 1095.81 362.232 1093.55 361.098C1091.28 359.964 1088.63 359.712 1086.36 360.594" fill="white"/>
</g>
<g opacity="0.5">
<path opacity="0.5" d="M1076.28 392.851C1076.53 394.867 1076.41 393.985 1077.79 395.119C1079.05 396.253 1080.94 397.009 1082.71 396.505C1084.22 396.127 1085.35 394.993 1086.11 393.733C1087.12 392.221 1087.75 390.331 1087.12 388.567C1086.36 386.929 1084.47 386.047 1082.58 386.047C1080.82 386.173 1079.18 386.929 1077.92 388.189C1076.79 389.449 1076.16 391.339 1076.28 392.977" fill="white"/>
</g>
<g opacity="0.5">
<path opacity="0.5" d="M1002.57 413.264C1002.82 415.28 1002.7 414.398 1004.08 415.532C1005.34 416.666 1007.23 417.422 1009 416.918C1010.51 416.54 1011.64 415.406 1012.4 414.146C1013.41 412.634 1014.04 410.744 1013.41 408.98C1012.65 407.341 1010.76 406.459 1008.87 406.459C1007.11 406.585 1005.47 407.341 1004.21 408.601C1003.07 409.862 1002.44 411.752 1002.57 413.39" fill="white"/>
</g>
<g opacity="0.5">
<path opacity="0.5" d="M1058.64 388.693C1058.26 387.937 1057.26 387.559 1056.5 387.559C1055.62 387.559 1054.86 387.937 1054.11 388.315L1053.22 390.079C1054.11 391.717 1056.5 392.347 1057.89 391.213C1058.52 390.709 1059.02 389.575 1058.64 388.693Z" fill="white"/>
</g>
<g opacity="0.5">
<path opacity="0.5" d="M1017.19 387.937C1016.81 387.181 1015.8 386.803 1015.04 386.803C1014.16 386.803 1013.41 387.181 1012.65 387.559L1011.77 389.323C1012.65 390.961 1015.04 391.591 1016.43 390.457C1017.19 389.953 1017.56 388.819 1017.19 387.937Z" fill="white"/>
</g>
<g opacity="0.5">
<path opacity="0.5" d="M1097.33 422.21C1096.95 421.454 1095.94 421.076 1095.18 421.076C1094.3 421.076 1093.55 421.454 1092.79 421.832L1091.91 423.596C1092.79 425.234 1095.18 425.864 1096.57 424.73C1097.33 424.226 1097.83 423.092 1097.33 422.21Z" fill="white"/>
</g>
<g opacity="0.5">
<path opacity="0.5" d="M1035.71 460.893C1035.33 460.137 1034.32 459.759 1033.57 459.759C1032.69 459.759 1031.93 460.137 1031.17 460.515L1030.29 462.279C1031.17 463.917 1033.57 464.547 1034.95 463.413C1035.58 462.909 1036.09 461.775 1035.71 460.893Z" fill="white"/>
</g>
<g opacity="0.5">
<path opacity="0.5" d="M1067.59 408.097C1065.7 405.577 1062.55 404.317 1059.52 403.687C1055.87 403.813 1053.22 406.207 1050.7 408.854C1049.57 409.988 1048.56 411.626 1048.69 413.264C1048.81 415.028 1050.2 416.54 1051.71 417.548C1055.24 419.942 1059.78 420.572 1063.81 419.438C1065.45 418.934 1067.08 418.178 1068.09 416.918C1069.98 414.398 1069.48 410.618 1067.59 408.097Z" fill="white"/>
</g>
<g opacity="0.5">
<path opacity="0.5" d="M1086.99 406.837C1086.24 405.577 1083.09 404.821 1081.83 405.703C1080.94 406.837 1080.94 408.727 1081.83 409.862C1082.71 410.996 1084.47 411.5 1085.86 410.744C1087.24 409.988 1087.75 408.097 1086.99 406.837Z" fill="white"/>
</g>
<g opacity="0.5">
<path opacity="0.5" d="M1064.82 462.405C1064.06 461.145 1060.91 460.389 1059.65 461.271C1058.77 462.405 1058.77 464.295 1059.65 465.429C1060.53 466.563 1062.3 467.067 1063.68 466.311C1064.94 465.429 1065.45 463.665 1064.82 462.405Z" fill="white"/>
</g>
<g opacity="0.5">
<path opacity="0.5" d="M1115.22 382.267C1114.46 381.007 1111.31 380.251 1110.05 381.133C1109.17 382.267 1109.17 384.157 1110.05 385.291C1110.93 386.425 1112.7 386.929 1114.08 386.173C1115.34 385.417 1115.97 383.653 1115.22 382.267Z" fill="white"/>
</g>
<g opacity="0.5">
<path opacity="0.5" d="M1039.62 428.384C1038.73 427.628 1037.47 427.25 1036.21 427.376C1033.82 427.376 1031.93 428.258 1031.68 430.526C1031.43 432.668 1032.31 434.936 1034.07 436.448C1035.33 437.582 1037.22 438.212 1038.73 437.456C1039.99 436.952 1040.75 435.692 1041.13 434.306C1041.76 432.29 1041.25 429.77 1039.62 428.384Z" fill="white"/>
</g>
<g opacity="0.5">
<path opacity="0.5" d="M1095.06 451.317C1094.55 449.679 1093.54 448.041 1091.91 447.411C1090.27 446.781 1088.38 447.159 1086.99 448.167C1085.61 449.175 1084.6 450.687 1083.84 452.325C1082.96 454.089 1082.46 456.105 1082.58 458.121C1082.71 460.137 1085.73 462.405 1088 461.775C1089.64 461.901 1091.4 461.397 1092.66 460.389C1095.31 458.121 1096.07 454.467 1095.06 451.317Z" fill="white"/>
</g>
<g opacity="0.5">
<path opacity="0.5" d="M1030.8 390.457C1028.15 391.465 1029.28 391.087 1028.15 393.355C1027.02 395.623 1026.64 398.395 1027.9 400.537C1028.91 402.427 1030.92 403.561 1032.94 404.317C1035.33 405.199 1038.23 405.451 1040.37 403.939C1042.51 402.427 1043.02 399.277 1042.26 396.757C1041.51 394.363 1039.87 392.347 1037.6 391.213C1035.33 390.079 1032.69 389.827 1030.42 390.709" fill="white"/>
</g>
</g>
<path d="M1075.02 512.68C1075.02 512.68 1123.28 526.037 1125.17 526.667C1128.07 527.675 1127.57 538.385 1123.03 538.133C1120.89 538.007 1085.98 539.393 1081.57 539.141C1077.16 538.889 1063.81 533.597 1063.81 533.597L1075.02 512.68Z" fill="#E8505B"/>
<path d="M1095.06 531.077C1095.31 531.077 1095.69 528.557 1097.2 525.911C1098.71 523.265 1100.73 521.627 1100.6 521.501C1100.48 521.375 1098.08 522.635 1096.44 525.533C1094.93 528.305 1094.93 531.077 1095.06 531.077Z" fill="#263238"/>
<path d="M1090.02 528.809C1090.27 528.809 1090.77 526.541 1092.03 524.021C1093.29 521.501 1094.81 519.737 1094.68 519.611C1094.55 519.485 1092.66 520.997 1091.28 523.643C1090.02 526.289 1089.89 528.683 1090.02 528.809Z" fill="#263238"/>
<path d="M1085.35 527.423C1085.61 527.423 1085.35 525.029 1086.49 522.383C1087.5 519.737 1089.26 518.099 1089.13 517.847C1089.01 517.721 1086.87 519.107 1085.73 522.005C1084.6 525.029 1085.1 527.549 1085.35 527.423Z" fill="#263238"/>
<path d="M1086.24 521.249C1086.36 521.249 1086.74 519.863 1086.74 517.721C1086.74 516.586 1086.61 515.2 1086.24 513.814C1086.11 513.058 1085.86 512.302 1085.48 511.546C1085.35 511.168 1085.1 510.664 1084.72 510.412C1084.22 510.034 1083.46 510.034 1083.09 510.538C1082.58 510.916 1082.46 511.42 1082.46 511.924C1082.46 512.428 1082.33 512.806 1082.33 513.184C1082.33 514.066 1082.46 514.822 1082.58 515.578C1082.96 517.091 1083.46 518.225 1084.09 519.233C1085.23 521.249 1086.24 522.131 1086.24 522.131C1086.36 522.005 1085.48 520.871 1084.6 518.981C1084.09 517.973 1083.59 516.839 1083.34 515.452C1083.21 514.696 1083.09 514.066 1083.09 513.31C1083.09 512.554 1083.09 511.672 1083.59 511.294C1083.84 511.042 1083.97 511.042 1084.22 511.294C1084.47 511.42 1084.6 511.798 1084.72 512.176C1084.98 512.932 1085.23 513.562 1085.48 514.318C1085.86 515.704 1085.98 516.965 1086.11 518.099C1086.36 519.863 1086.11 521.249 1086.24 521.249Z" fill="#263238"/>
<path d="M1086.11 520.745C1086.11 520.619 1084.98 520.241 1082.96 520.241C1081.95 520.241 1080.82 520.367 1079.56 520.619C1078.93 520.745 1078.3 520.997 1077.54 521.375C1076.91 521.753 1076.16 522.635 1076.41 523.517C1076.66 524.399 1077.42 525.029 1078.17 525.281C1078.93 525.533 1079.68 525.407 1080.31 525.281C1081.7 525.029 1082.71 524.273 1083.46 523.769C1084.98 522.509 1085.73 521.627 1085.73 521.501C1085.61 521.375 1084.72 522.131 1083.21 523.265C1082.46 523.769 1081.45 524.273 1080.31 524.525C1079.68 524.651 1079.05 524.651 1078.55 524.525C1077.92 524.399 1077.54 523.895 1077.42 523.391C1077.29 522.887 1077.54 522.383 1078.17 522.005C1078.68 521.627 1079.31 521.501 1079.94 521.375C1081.07 520.997 1082.2 520.871 1083.21 520.745C1084.98 520.745 1086.11 520.871 1086.11 520.745Z" fill="#263238"/>
<path d="M1102.49 531.581C1102.74 531.581 1102.49 529.439 1103.5 527.171C1104.38 524.903 1106.02 523.643 1105.89 523.391C1105.77 523.139 1103.75 524.399 1102.74 526.919C1101.74 529.439 1102.37 531.581 1102.49 531.581Z" fill="#263238"/>
<path d="M1068.85 533.723C1068.85 533.723 1069.48 534.101 1070.74 534.605C1072 535.109 1073.76 535.739 1076.16 536.243C1080.82 537.377 1087.37 538.007 1094.55 538.007C1101.74 537.881 1108.29 537.629 1113.08 537.377C1115.34 537.251 1117.23 537.125 1118.62 537.125C1119.88 536.999 1120.64 536.999 1120.64 536.873C1120.64 536.873 1119.88 536.747 1118.62 536.747C1117.11 536.747 1115.22 536.747 1113.08 536.747C1108.16 536.873 1101.74 536.999 1094.68 537.125C1087.5 537.251 1080.94 536.621 1076.41 535.613C1071.62 534.857 1068.97 533.597 1068.85 533.723Z" fill="#263238"/>
<path d="M1067.46 534.857C1067.59 534.983 1068.85 534.227 1071.12 533.219C1073.26 532.211 1076.66 531.203 1080.19 531.707C1083.84 532.211 1086.36 534.731 1088.13 536.369C1089.76 538.133 1090.77 539.267 1090.9 539.267C1091.02 539.267 1090.14 537.881 1088.5 535.991C1087.75 535.109 1086.61 533.975 1085.35 532.967C1083.97 531.959 1082.33 531.203 1080.31 530.825C1076.41 530.195 1073.01 531.581 1070.86 532.589C1068.6 533.849 1067.34 534.731 1067.46 534.857Z" fill="#263238"/>
<g opacity="0.3">
<g opacity="0.3">
<g opacity="0.3">
<g opacity="0.3">
<path opacity="0.3" d="M1075.02 512.68C1075.02 512.68 1123.28 526.037 1125.17 526.667C1128.07 527.675 1127.57 538.385 1123.03 538.133C1120.89 538.007 1085.98 539.393 1081.57 539.141C1077.16 538.889 1063.81 533.597 1063.81 533.597L1075.02 512.68Z" fill="black"/>
</g>
</g>
</g>
</g>
<path d="M1032.18 470.595L1016.43 488.866C1016.43 488.866 964.139 472.989 950.909 473.745C937.679 474.501 926.968 479.793 924.322 490.504C921.802 501.214 921.424 515.956 936.797 526.163C952.169 536.369 1028.53 542.039 1028.53 542.039H1058.77L1108.16 476.895L1103.88 473.367L1032.18 470.595Z" fill="#073143"/>
<path d="M1042.64 512.932C1042.64 512.932 1042.26 512.932 1041.63 512.932C1041 512.932 1039.99 512.932 1038.73 512.68C1036.21 512.428 1032.69 511.798 1028.53 510.538C1024.24 509.278 1019.33 507.388 1014.04 504.868C1008.74 502.348 1003.07 499.324 997.152 496.174C991.23 493.024 985.434 490.126 980.142 487.984C974.724 485.842 969.684 484.33 965.399 483.574C961.115 482.818 957.461 482.566 955.067 482.692C953.807 482.692 952.925 482.818 952.295 482.818C951.665 482.818 951.287 482.818 951.287 482.818C951.287 482.818 951.665 482.692 952.295 482.692C952.925 482.692 953.933 482.44 955.193 482.44C957.713 482.314 961.241 482.44 965.651 483.196C970.061 483.952 975.102 485.338 980.52 487.48C985.938 489.622 991.734 492.52 997.656 495.67C1003.58 498.82 1009.25 501.97 1014.41 504.49C1019.71 507.01 1024.5 509.026 1028.78 510.286C1032.94 511.546 1036.47 512.302 1038.99 512.554C1040.25 512.806 1041.13 512.806 1041.76 512.932C1042.39 512.806 1042.64 512.932 1042.64 512.932Z" fill="#073143"/>
<path d="M1078.42 536.747C1088.13 532.967 1141.55 515.956 1160.45 494.032C1176.2 475.887 1151.13 459.507 1151.13 459.507C1151.13 459.507 1133.61 459.003 1127.69 459.507C1121.77 460.011 1037.98 516.713 1037.98 516.713C1037.98 516.713 1052.59 545.315 1052.22 546.323L1078.42 536.747Z" fill="#073143"/>
<path d="M1104.76 473.367C1104.76 473.367 1104.63 473.493 1104.51 473.493C1104.26 473.619 1104.13 473.745 1103.75 473.997C1103.12 474.375 1102.11 475.005 1100.98 475.761C1098.59 477.273 1095.06 479.541 1090.77 482.188C1082.08 487.606 1070.23 495.04 1057.13 503.356C1050.7 507.388 1044.53 511.294 1038.86 514.696L1038.99 514.318C1042.89 523.643 1046.17 531.707 1048.56 537.377C1049.7 540.149 1050.58 542.417 1051.21 543.929C1051.46 544.685 1051.71 545.189 1051.84 545.693C1051.96 546.071 1052.09 546.323 1052.09 546.323C1052.09 546.323 1051.96 546.071 1051.84 545.693C1051.59 545.315 1051.33 544.685 1051.08 543.929C1050.45 542.417 1049.44 540.149 1048.18 537.377C1045.79 531.707 1042.39 523.769 1038.36 514.444L1038.23 514.192L1038.48 514.066C1044.15 510.538 1050.2 506.632 1056.75 502.6C1069.86 494.41 1081.83 486.976 1090.39 481.684C1094.68 479.037 1098.21 476.895 1100.6 475.383C1101.74 474.627 1102.74 474.123 1103.37 473.745C1103.63 473.619 1103.88 473.493 1104.13 473.367C1104.63 473.493 1104.76 473.367 1104.76 473.367Z" fill="#073143"/>
<path d="M1030.92 498.568C1030.92 498.694 1029.91 498.316 1028.4 497.686C1026.89 496.93 1025 495.922 1022.86 494.41C1020.84 492.898 1019.2 491.386 1018.07 490.126C1016.93 488.866 1016.3 488.11 1016.43 487.984C1016.56 487.858 1019.2 490.882 1023.24 493.78C1027.27 496.804 1031.05 498.442 1030.92 498.568Z" fill="#073143"/>
<path d="M1053.73 471.603C1053.85 471.603 1053.85 472.863 1053.85 475.005C1053.85 477.021 1053.98 479.919 1054.23 483.07C1054.48 486.22 1054.99 488.992 1055.24 491.008C1055.62 493.024 1055.87 494.284 1055.74 494.284C1055.62 494.284 1055.24 493.024 1054.86 491.008C1054.36 488.992 1053.85 486.22 1053.6 483.07C1053.35 479.919 1053.35 477.021 1053.35 475.005C1053.48 472.863 1053.73 471.603 1053.73 471.603Z" fill="#073143"/>
<path d="M1061.16 474.375C1061.16 474.375 1061.41 474.375 1061.79 474.501C1062.17 474.627 1062.8 475.005 1063.18 475.635C1063.56 476.265 1063.93 477.273 1063.56 478.281C1063.3 479.415 1062.04 480.171 1060.78 480.171C1059.52 480.297 1058.26 479.541 1057.89 478.533C1057.51 477.525 1057.89 476.517 1058.26 475.887C1058.77 475.257 1059.27 474.879 1059.78 474.753C1060.15 474.627 1060.41 474.753 1060.41 474.753C1060.41 474.879 1059.4 474.879 1058.64 476.139C1058.26 476.769 1058.14 477.525 1058.39 478.407C1058.64 479.163 1059.65 479.667 1060.66 479.667C1061.67 479.667 1062.55 479.037 1062.8 478.155C1063.05 477.399 1062.93 476.517 1062.55 475.887C1062.17 474.627 1061.16 474.501 1061.16 474.375Z" fill="#073143"/>
<path d="M1040.37 472.107C1040.37 472.107 1040.62 472.485 1040.88 473.115C1041.13 473.745 1041.38 474.753 1041.25 476.013C1041.25 477.273 1041 478.785 1040.25 480.297C1039.62 481.81 1038.36 483.322 1036.72 484.456C1035.08 485.59 1033.19 486.094 1031.55 486.094C1029.91 486.22 1028.4 485.842 1027.14 485.338C1026.01 484.834 1025.13 484.33 1024.62 483.826C1024.12 483.322 1023.87 483.07 1023.87 483.07C1023.99 482.944 1025 484.204 1027.39 484.96C1028.53 485.338 1030.04 485.59 1031.55 485.464C1033.19 485.338 1034.83 484.834 1036.47 483.826C1037.98 482.818 1039.11 481.306 1039.74 479.919C1040.37 478.533 1040.75 477.021 1040.75 475.887C1041 473.619 1040.25 472.107 1040.37 472.107Z" fill="#073143"/>
<path d="M1090.27 482.062C1090.27 482.188 1089.51 482.188 1088.25 481.81C1087.12 481.431 1085.48 480.423 1084.47 478.785C1083.46 477.147 1083.21 475.383 1083.21 474.123C1083.34 472.863 1083.72 472.107 1083.72 472.233C1083.84 472.233 1083.59 472.989 1083.59 474.123C1083.59 475.257 1083.84 476.895 1084.85 478.407C1085.86 479.919 1087.24 480.801 1088.25 481.305C1089.51 481.81 1090.27 481.936 1090.27 482.062Z" fill="#073143"/>
<path d="M1145.84 445.773C1145.84 445.773 1154.03 433.928 1155.79 433.046C1157.55 432.038 1172.68 429.014 1173.81 429.518C1174.94 430.148 1191.83 435.692 1189.56 437.456C1187.29 439.22 1175.45 435.188 1175.45 435.188L1173.68 435.692C1173.68 435.692 1183.89 438.968 1185.91 440.606C1187.8 442.118 1186.66 444.512 1184.77 444.008C1182.88 443.504 1174.06 440.354 1173.43 440.732C1172.8 440.984 1182.88 444.639 1183.89 445.521C1185.28 446.655 1185.02 449.301 1183.13 448.923C1182 448.671 1172.55 444.638 1172.55 444.638C1172.55 444.638 1179.86 448.797 1180.49 449.553C1181.5 450.813 1180.36 452.451 1178.72 451.821C1177.59 451.443 1172.55 447.915 1171.04 447.411C1171.04 447.411 1169.53 447.537 1167.76 450.309C1166 453.081 1155.41 459.003 1155.41 459.003L1145.84 445.773Z" fill="#A36957"/>
<path d="M1149.74 446.529C1150.62 447.663 1152.39 447.663 1153.77 447.159C1155.16 446.655 1156.29 445.647 1157.55 445.017C1161.46 443.126 1166.5 444.386 1170.28 442.244C1170.79 441.992 1171.42 441.362 1171.16 440.858C1171.04 440.354 1170.28 440.102 1169.78 440.102C1164.99 439.472 1160.2 438.842 1155.41 438.212" fill="#A36957"/>
<path d="M1155.41 438.212C1155.41 438.212 1155.92 438.212 1156.92 438.212C1157.93 438.338 1159.32 438.464 1161.21 438.59C1163.1 438.842 1165.24 439.094 1167.51 439.346C1168.14 439.472 1168.77 439.472 1169.27 439.598C1169.9 439.724 1170.66 439.598 1171.29 440.354C1171.54 440.732 1171.54 441.362 1171.29 441.74C1171.04 442.118 1170.79 442.37 1170.41 442.496C1169.78 442.874 1169.15 443.126 1168.39 443.378C1165.62 444.134 1162.97 444.008 1160.7 444.386C1159.57 444.513 1158.44 444.89 1157.55 445.268C1156.67 445.647 1155.79 446.277 1155.03 446.781C1153.52 447.789 1151.76 447.915 1150.75 447.537C1149.74 447.159 1149.49 446.529 1149.49 446.529C1149.49 446.529 1149.87 447.033 1150.88 447.159C1151.76 447.411 1153.27 447.159 1154.66 446.151C1155.41 445.647 1156.17 445.016 1157.18 444.512C1158.18 444.008 1159.32 443.63 1160.45 443.504C1162.85 443.126 1165.49 443.252 1168.01 442.496C1168.64 442.37 1169.27 441.992 1169.78 441.74C1170.28 441.488 1170.66 440.984 1170.41 440.732C1170.16 440.48 1169.53 440.354 1168.9 440.228C1168.27 440.102 1167.64 440.102 1167.13 439.976C1164.86 439.598 1162.72 439.346 1160.83 439.094C1159.07 438.842 1157.55 438.59 1156.67 438.464C1155.92 438.464 1155.41 438.338 1155.41 438.212Z" fill="#7C3B29"/>
<path d="M1189.56 437.456C1189.56 437.582 1188.3 437.834 1186.28 437.834C1185.28 437.834 1184.02 437.708 1182.63 437.456C1181.37 437.078 1179.86 436.7 1178.47 436.196C1177.34 435.818 1176.33 435.566 1175.32 435.188H1175.57C1171.04 436.07 1167.76 436.574 1167.76 436.448C1167.76 436.322 1170.91 435.44 1175.45 434.432H1175.57H1175.7C1176.71 434.684 1177.72 435.062 1178.85 435.314C1180.36 435.818 1181.62 436.196 1183.01 436.574C1184.27 436.826 1185.53 437.078 1186.41 437.078C1188.3 437.456 1189.56 437.33 1189.56 437.456Z" fill="#7C3B29"/>
<path d="M1115.47 315.611C1112.07 311.579 1108.04 307.421 1107.91 302.255C1107.78 299.482 1108.79 296.332 1107.15 294.064C1105.64 292.174 1102.74 291.796 1101.23 290.032C1099.09 287.638 1099.97 283.858 1099.22 280.708C1098.46 277.306 1095.43 274.66 1092.16 273.4C1088.88 272.14 1085.23 272.266 1081.7 272.644L1078.42 344.97C1080.06 343.206 1084.22 342.45 1086.36 343.332C1088.63 344.214 1090.65 345.6 1093.04 345.726C1098.33 346.104 1102.11 340.812 1106.65 338.04C1110.93 335.393 1116.98 334.511 1119.38 329.975C1121.77 325.313 1118.75 319.643 1115.47 315.611Z" fill="#073143"/>
<path d="M1105.52 338.544C1105.52 338.418 1106.27 338.544 1107.28 337.788C1107.78 337.41 1108.29 336.906 1108.67 336.149C1109.04 335.393 1109.04 334.385 1108.67 333.377C1108.29 332.369 1107.41 331.613 1106.27 330.857C1105.77 330.479 1105.14 330.101 1104.63 329.471C1104.13 328.841 1103.88 328.085 1104 327.203C1104.13 325.565 1104.89 324.179 1105.52 322.667C1105.77 321.911 1106.02 321.155 1106.02 320.399C1106.02 319.643 1105.77 318.887 1105.39 318.131C1104.51 316.745 1103.12 315.737 1101.86 314.855C1100.6 313.973 1099.22 312.965 1098.21 311.831C1096.19 309.563 1095.18 306.917 1094.68 304.649C1094.3 302.381 1094.43 300.491 1094.68 299.23C1094.81 298.6 1094.93 298.096 1095.06 297.844C1095.18 297.466 1095.18 297.34 1095.31 297.34C1095.44 297.34 1095.18 297.97 1094.93 299.23C1094.81 300.491 1094.68 302.255 1095.18 304.523C1095.69 306.665 1096.7 309.185 1098.59 311.453C1099.59 312.587 1100.73 313.469 1102.11 314.351C1103.37 315.359 1104.89 316.241 1105.89 317.879C1106.4 318.635 1106.65 319.517 1106.65 320.399C1106.65 321.281 1106.4 322.163 1106.15 322.919C1105.52 324.431 1104.76 325.817 1104.63 327.203C1104.63 327.833 1104.76 328.589 1105.14 329.093C1105.52 329.597 1106.02 329.975 1106.65 330.353C1107.15 330.731 1107.78 331.109 1108.16 331.613C1108.67 332.117 1108.92 332.621 1109.17 333.251C1109.55 334.385 1109.42 335.519 1109.04 336.402C1108.67 337.284 1108.04 337.788 1107.41 338.166C1106.9 338.544 1106.4 338.67 1106.02 338.67C1105.64 338.544 1105.52 338.544 1105.52 338.544Z" fill="#455A64"/>
<path d="M1079.18 354.546L1078.93 342.45C1078.93 342.45 1091.02 340.686 1093.8 325.061C1095.18 317.249 1095.06 304.523 1094.55 294.064C1094.17 284.614 1084.22 275.038 1074.77 275.92L1044.28 281.212V286.252L1045.16 355.176C1045.29 364.5 1052.85 372.06 1062.17 372.06C1071.62 371.934 1079.31 364.122 1079.18 354.546Z" fill="#FDE4E1"/>
<path d="M1089.64 304.901C1089.64 305.909 1088.76 306.917 1087.62 306.917C1086.49 306.917 1085.61 306.161 1085.61 305.027C1085.61 304.019 1086.49 303.011 1087.62 303.011C1088.63 303.011 1089.64 303.767 1089.64 304.901Z" fill="#263238"/>
<path d="M1091.53 300.617C1091.28 300.869 1089.76 299.734 1087.62 299.734C1085.48 299.608 1083.84 300.743 1083.59 300.491C1083.46 300.365 1083.72 299.861 1084.47 299.356C1085.1 298.852 1086.36 298.348 1087.62 298.474C1089.01 298.474 1090.14 298.978 1090.77 299.482C1091.53 299.987 1091.65 300.491 1091.53 300.617Z" fill="#263238"/>
<path d="M1069.73 304.271C1069.73 305.279 1068.85 306.287 1067.71 306.287C1066.58 306.287 1065.7 305.531 1065.7 304.397C1065.7 303.389 1066.58 302.381 1067.71 302.381C1068.85 302.381 1069.73 303.263 1069.73 304.271Z" fill="#263238"/>
<path d="M1070.23 300.617C1069.98 300.869 1068.47 299.734 1066.33 299.734C1064.19 299.608 1062.55 300.743 1062.3 300.491C1062.17 300.365 1062.42 299.861 1063.18 299.356C1063.81 298.852 1065.07 298.348 1066.33 298.474C1067.71 298.474 1068.85 298.978 1069.48 299.482C1070.23 300.113 1070.36 300.491 1070.23 300.617Z" fill="#263238"/>
<path d="M1077.92 316.871C1077.92 316.745 1079.31 316.493 1081.45 316.241C1081.95 316.241 1082.58 316.115 1082.58 315.737C1082.71 315.359 1082.46 314.729 1082.2 314.099C1081.7 312.713 1081.2 311.327 1080.69 309.815C1078.55 303.767 1077.04 298.852 1077.16 298.726C1077.42 298.6 1079.31 303.515 1081.57 309.437C1082.08 310.949 1082.58 312.335 1083.09 313.721C1083.34 314.351 1083.59 315.107 1083.34 315.863C1083.21 316.241 1082.71 316.619 1082.46 316.619C1082.08 316.745 1081.83 316.745 1081.57 316.745C1079.18 316.997 1077.92 316.997 1077.92 316.871Z" fill="#263238"/>
<path d="M1078.93 342.45C1078.93 342.45 1068.34 342.954 1058.01 336.528C1058.01 336.528 1063.3 347.49 1078.93 346.23V342.45Z" fill="#7C3B29"/>
<path d="M1071.49 318.257C1071.87 318.257 1071.75 320.651 1073.76 322.289C1075.78 324.053 1078.3 323.801 1078.3 324.053C1078.3 324.179 1077.79 324.557 1076.66 324.557C1075.65 324.557 1074.14 324.179 1072.88 323.171C1071.62 322.163 1071.12 320.777 1071.12 319.769C1070.99 318.761 1071.37 318.257 1071.49 318.257Z" fill="#263238"/>
<path d="M1070.99 292.174C1070.74 292.804 1068.6 292.426 1066.08 292.678C1063.56 292.93 1061.41 293.56 1061.16 293.056C1061.04 292.804 1061.41 292.3 1062.17 291.67C1063.05 291.166 1064.31 290.662 1065.82 290.41C1067.34 290.284 1068.72 290.536 1069.6 290.914C1070.61 291.418 1071.12 291.922 1070.99 292.174Z" fill="#263238"/>
<path d="M1090.9 294.316C1090.52 294.82 1089.01 294.316 1087.24 294.19C1085.48 294.064 1083.97 294.442 1083.59 293.938C1083.46 293.686 1083.72 293.182 1084.35 292.804C1084.98 292.3 1086.11 292.048 1087.37 292.048C1088.63 292.048 1089.64 292.552 1090.27 293.056C1090.9 293.56 1091.02 294.064 1090.9 294.316Z" fill="#263238"/>
<path d="M1052.22 299.608C1057.38 293.308 1072 281.968 1079.18 278.818C1080.31 278.314 1081.45 277.306 1082.08 277.306C1082.08 277.306 1084.35 278.44 1086.24 280.204C1090.02 283.48 1093.04 291.418 1094.55 296.206C1096.7 290.158 1095.94 281.464 1091.78 276.676C1087.62 271.888 1083.09 269.242 1076.79 268.864C1070.36 268.486 1065.57 269.998 1060.15 273.274C1058.01 274.66 1050.2 281.086 1048.06 284.74L1052.22 299.608Z" fill="#455A64"/>
<path d="M1079.56 269.116C1080.57 269.242 1073.51 263.445 1069.1 262.563C1064.69 261.807 1059.9 262.815 1056.25 265.21C1053.73 266.848 1051.59 269.242 1048.81 270.502C1046.67 271.384 1044.28 271.51 1042.01 272.266C1036.09 274.03 1031.55 279.7 1031.17 285.748C1030.92 288.394 1031.43 290.914 1031.55 293.56C1031.55 296.206 1031.17 298.978 1029.41 300.869C1027.9 302.507 1025.63 303.263 1023.74 304.523C1019.2 307.421 1016.68 313.091 1017.44 318.383C1017.94 321.281 1019.2 324.179 1018.32 326.825C1017.69 328.589 1016.18 329.849 1015.04 331.487C1012.9 334.637 1013.15 339.174 1015.42 342.198C1018.07 342.45 1020.21 344.466 1022.23 346.23C1024.24 347.868 1026.89 349.506 1029.54 348.75C1032.81 347.742 1034.45 343.332 1037.85 342.828C1041.25 342.324 1043.65 345.978 1046.8 347.112C1050.45 348.498 1054.61 346.482 1056.88 343.206C1059.02 340.056 1059.65 336.023 1059.65 332.117C1059.78 327.203 1059.15 322.163 1056.25 318.257C1054.23 315.485 1050.96 313.091 1050.83 309.563C1050.83 306.161 1053.85 303.515 1054.36 300.238C1054.86 297.34 1053.22 294.568 1052.09 291.922C1050.83 289.276 1048.69 285.244 1050.33 282.85C1050.07 282.724 1061.67 267.1 1079.56 269.116Z" fill="#073143"/>
<path d="M1081.07 271.636C1081.07 271.636 1081.57 271.888 1082.08 272.644C1082.46 273.4 1082.71 274.786 1082.2 276.172C1081.57 277.558 1080.44 278.188 1079.56 278.44C1078.68 278.692 1078.05 278.44 1078.17 278.44C1078.17 278.314 1078.68 278.314 1079.43 278.062C1080.19 277.81 1081.2 277.054 1081.7 276.046C1082.2 274.912 1082.08 273.778 1081.83 273.022C1081.32 272.14 1080.94 271.762 1081.07 271.636Z" fill="#263238"/>
<path d="M1085.48 278.314C1085.48 278.44 1084.35 278.314 1083.34 277.558C1082.33 276.802 1081.95 275.794 1082.08 275.668C1082.2 275.542 1082.83 276.298 1083.72 276.928C1084.6 277.81 1085.48 278.188 1085.48 278.314Z" fill="#263238"/>
<path d="M1075.02 274.282C1075.02 274.156 1076.03 274.156 1077.04 273.778C1078.05 273.526 1078.93 273.022 1079.05 273.148C1079.18 273.274 1078.42 274.03 1077.29 274.408C1076.03 274.786 1075.02 274.408 1075.02 274.282Z" fill="#263238"/>
<path d="M1075.15 271.384C1075.15 271.258 1076.03 271.258 1077.16 271.384C1078.3 271.51 1079.18 271.888 1079.05 272.014C1079.05 272.14 1078.17 272.14 1077.04 272.014C1076.03 271.888 1075.15 271.51 1075.15 271.384Z" fill="#263238"/>
<path d="M1085.73 272.392C1085.73 272.518 1085.35 272.77 1084.98 272.77C1084.47 272.77 1084.09 272.644 1084.09 272.518C1084.09 272.392 1084.47 272.14 1084.85 272.14C1085.35 272.014 1085.73 272.14 1085.73 272.392Z" fill="#263238"/>
<path d="M1085.86 274.156C1085.86 274.282 1085.35 274.534 1084.6 274.534C1083.97 274.534 1083.34 274.408 1083.34 274.156C1083.34 274.03 1083.84 273.778 1084.6 273.778C1085.35 273.778 1085.86 274.03 1085.86 274.156Z" fill="#263238"/>
<path d="M1058.26 284.74C1058.39 284.866 1056.75 286.63 1055.11 288.898C1053.48 291.292 1052.34 293.308 1052.22 293.308C1052.09 293.308 1052.85 290.914 1054.61 288.52C1056.25 286.126 1058.14 284.614 1058.26 284.74Z" fill="#263238"/>
<path d="M1058.89 280.078C1059.02 280.204 1057.13 282.598 1055.24 285.748C1053.22 288.898 1051.96 291.67 1051.84 291.67C1051.71 291.67 1052.72 288.646 1054.74 285.496C1056.63 282.094 1058.77 279.952 1058.89 280.078Z" fill="#263238"/>
<path d="M1016.56 302.381C1016.56 302.381 1016.43 302.255 1016.18 302.003C1015.93 301.751 1015.67 301.247 1015.42 300.617C1015.04 299.356 1014.92 297.088 1016.3 295.072C1017.69 292.93 1020.97 291.67 1024.12 292.552C1025.76 292.93 1027.14 294.064 1028.53 295.072C1029.28 295.576 1030.04 295.954 1030.8 296.206C1031.55 296.332 1032.43 296.206 1033.06 295.702C1033.69 295.198 1034.2 294.442 1034.32 293.56C1034.58 292.804 1034.58 291.922 1034.45 291.04C1034.2 289.402 1033.82 287.638 1033.82 286.126C1033.69 282.85 1034.45 279.952 1036.09 277.936C1037.6 276.046 1039.62 275.164 1041 275.038C1041.63 274.912 1042.26 275.038 1042.51 275.038C1042.89 275.164 1043.02 275.164 1043.02 275.164C1043.02 275.29 1042.26 275.038 1041 275.29C1039.74 275.542 1037.85 276.424 1036.47 278.188C1034.95 280.078 1034.32 282.85 1034.45 286C1034.45 287.512 1034.95 289.15 1035.08 290.914C1035.33 292.678 1035.08 294.82 1033.44 296.08C1032.69 296.71 1031.55 296.836 1030.54 296.71C1029.54 296.458 1028.78 295.954 1028.02 295.576C1026.51 294.568 1025.25 293.56 1023.87 293.182C1020.84 292.3 1017.82 293.434 1016.56 295.324C1015.17 297.214 1015.17 299.356 1015.55 300.617C1016.05 301.751 1016.68 302.381 1016.56 302.381Z" fill="#263238"/>
<path d="M1112.95 303.515C1112.95 303.515 1112.7 303.515 1112.45 303.515C1112.07 303.515 1111.56 303.767 1111.19 304.271C1110.81 304.775 1110.56 305.657 1111.19 306.413C1111.69 307.043 1112.95 307.421 1113.96 307.043C1114.97 306.539 1115.72 305.405 1115.85 304.019C1115.97 302.633 1115.6 301.121 1115.09 299.734C1114.59 298.222 1113.71 296.71 1112.32 295.828C1111.56 295.45 1110.81 295.198 1109.93 295.324C1109.04 295.45 1108.16 295.702 1107.28 295.954C1106.4 296.206 1105.39 296.458 1104.51 296.332C1103.5 296.206 1102.62 295.702 1101.99 294.946C1100.73 293.434 1100.6 291.544 1100.85 289.906C1100.98 288.268 1101.36 286.756 1101.48 285.37C1101.48 283.984 1101.23 282.724 1100.73 281.59C1099.85 279.322 1098.33 278.062 1097.2 277.306C1096.07 276.55 1095.31 276.298 1095.43 276.298C1095.43 276.298 1095.69 276.298 1095.94 276.424C1096.32 276.55 1096.82 276.802 1097.33 277.18C1098.46 277.936 1100.1 279.322 1101.11 281.59C1101.61 282.724 1101.99 284.11 1101.99 285.622C1101.99 287.134 1101.61 288.646 1101.48 290.158C1101.36 291.67 1101.48 293.434 1102.62 294.694C1103.12 295.324 1103.88 295.702 1104.76 295.828C1105.64 295.954 1106.52 295.702 1107.41 295.45C1108.29 295.198 1109.17 294.946 1110.18 294.82C1111.19 294.694 1112.19 294.946 1112.95 295.45C1114.59 296.458 1115.34 298.222 1115.97 299.734C1116.48 301.247 1116.98 302.885 1116.73 304.397C1116.48 305.909 1115.72 307.295 1114.46 307.799C1113.2 308.303 1111.82 307.799 1111.19 307.043C1110.81 306.665 1110.68 306.161 1110.81 305.657C1110.81 305.153 1111.06 304.901 1111.31 304.523C1111.82 304.019 1112.32 303.767 1112.7 303.767C1112.82 303.389 1112.95 303.515 1112.95 303.515Z" fill="#263238"/>
<path d="M1009.88 324.179C1009.88 324.179 1010 324.305 1010.38 324.305C1010.63 324.305 1011.14 324.053 1011.52 323.549C1011.64 323.297 1011.77 322.919 1011.64 322.667C1011.52 322.289 1011.26 322.037 1011.01 321.785C1010.26 321.407 1009.12 321.407 1008.37 322.163C1007.61 322.919 1007.11 324.179 1007.11 325.439C1007.11 326.069 1007.23 326.699 1007.61 327.329C1007.99 327.833 1008.49 328.337 1009.25 328.463C1010.63 328.841 1012.27 328.463 1013.28 327.203C1014.29 325.943 1014.79 324.305 1014.79 322.541C1014.79 320.777 1014.54 319.139 1014.29 317.375C1014.04 315.737 1014.04 313.973 1014.41 312.461C1014.79 310.949 1015.67 309.563 1016.68 308.555C1017.69 307.547 1018.82 306.791 1019.83 306.287C1021.97 305.279 1023.87 304.901 1025.13 304.523C1026.39 304.271 1027.14 304.145 1027.14 304.145C1027.14 304.145 1026.51 304.397 1025.25 304.775C1023.99 305.153 1022.23 305.531 1020.08 306.665C1019.08 307.169 1018.07 307.925 1017.06 308.933C1016.18 309.941 1015.3 311.075 1015.04 312.587C1014.67 313.973 1014.79 315.611 1014.92 317.249C1015.17 318.887 1015.42 320.651 1015.42 322.415C1015.42 324.179 1014.92 326.069 1013.66 327.455C1013.03 328.085 1012.27 328.589 1011.52 328.841C1010.63 329.093 1009.75 329.093 1009 328.841C1008.24 328.589 1007.48 328.085 1007.11 327.455C1006.73 326.825 1006.6 325.943 1006.6 325.313C1006.6 323.927 1007.23 322.541 1008.11 321.659C1009 320.777 1010.38 320.651 1011.26 321.281C1011.64 321.533 1012.02 321.911 1012.02 322.415C1012.15 322.919 1011.89 323.297 1011.77 323.549C1011.39 324.179 1010.76 324.305 1010.38 324.305C1010 324.305 1009.88 324.179 1009.88 324.179Z" fill="#263238"/>
<path d="M1053.6 264.328C1053.6 264.328 1053.48 264.201 1053.35 263.823C1053.22 263.571 1052.85 263.067 1052.34 262.815C1051.71 262.563 1050.96 262.437 1050.07 262.689C1049.19 262.941 1048.31 263.571 1048.18 264.706C1047.81 266.974 1050.33 269.746 1053.48 269.242C1054.99 268.99 1056.5 268.234 1057.76 267.226C1059.02 266.092 1060.15 264.706 1061.29 263.193C1062.42 261.681 1063.56 260.295 1064.94 259.161C1066.33 258.027 1067.97 257.145 1069.6 257.019C1071.24 256.893 1072.88 257.397 1074.14 258.153C1075.4 258.909 1076.28 260.043 1076.91 261.051C1078.17 263.193 1078.55 265.21 1078.8 266.47C1078.93 267.1 1078.93 267.604 1079.05 267.982C1079.05 268.36 1079.05 268.486 1079.05 268.486C1079.05 268.486 1078.93 267.73 1078.55 266.47C1078.3 265.21 1077.79 263.193 1076.53 261.177C1075.9 260.169 1075.02 259.287 1073.89 258.531C1072.75 257.775 1071.24 257.271 1069.73 257.523C1068.22 257.649 1066.71 258.405 1065.45 259.539C1064.19 260.673 1063.05 262.059 1061.92 263.445C1060.78 264.958 1059.65 266.344 1058.26 267.478C1056.88 268.612 1055.37 269.494 1053.6 269.62C1051.96 269.872 1050.2 269.242 1049.19 268.234C1048.18 267.226 1047.55 265.714 1047.81 264.453C1047.93 263.823 1048.18 263.193 1048.69 262.815C1049.07 262.437 1049.57 262.185 1050.07 262.059C1051.08 261.807 1051.96 261.933 1052.59 262.311C1053.22 262.689 1053.6 263.193 1053.6 263.445C1053.6 264.202 1053.6 264.328 1053.6 264.328Z" fill="#263238"/>
<path d="M1072.88 268.738C1072.88 268.738 1072.88 268.612 1072.75 268.486C1072.75 268.36 1072.63 268.108 1072.38 267.856C1072 267.226 1071.24 266.596 1069.98 266.092C1068.72 265.714 1067.21 265.336 1065.32 265.462C1064.44 265.462 1063.43 265.588 1062.42 265.84C1061.41 266.092 1060.53 266.722 1059.65 267.478C1057.89 268.864 1056.12 270.754 1054.74 273.148C1054.36 273.778 1054.11 274.282 1053.85 275.038C1053.6 275.668 1053.22 276.424 1052.72 276.928C1051.71 278.062 1050.33 278.818 1048.81 279.322C1048.06 279.574 1047.18 279.7 1046.55 279.826C1045.79 279.952 1045.03 280.204 1044.4 280.582C1043.02 281.212 1041.63 282.346 1040.75 283.606C1039.87 284.992 1039.36 286.63 1039.36 288.268C1039.36 289.906 1039.74 291.67 1039.99 293.434C1040.25 295.198 1040.5 296.962 1040.25 298.852C1039.99 300.617 1038.99 302.255 1037.73 303.515C1035.08 305.909 1031.93 306.791 1029.66 308.807C1028.53 309.815 1027.52 310.949 1027.14 312.335C1026.64 313.721 1026.89 315.107 1027.52 316.241C1028.02 317.501 1028.91 318.509 1029.41 319.769C1029.91 320.903 1030.29 322.289 1029.91 323.549C1029.66 324.809 1028.65 325.691 1027.9 326.321C1027.02 326.951 1026.13 327.455 1025.5 328.085C1024.12 329.345 1023.99 331.109 1024.12 332.369C1024.24 333.629 1024.5 334.637 1024.75 335.267C1024.87 335.897 1025 336.275 1025 336.275C1025 336.275 1025 336.15 1024.87 336.024C1024.75 335.898 1024.75 335.645 1024.62 335.267C1024.37 334.637 1024.12 333.629 1023.86 332.369C1023.74 331.739 1023.74 330.983 1023.99 330.101C1024.12 329.345 1024.62 328.463 1025.25 327.833C1025.88 327.203 1026.76 326.573 1027.65 325.943C1028.53 325.313 1029.28 324.557 1029.54 323.423C1029.79 322.289 1029.54 321.155 1029.03 320.021C1028.53 318.887 1027.77 317.753 1027.14 316.493C1026.51 315.233 1026.26 313.595 1026.76 312.209C1027.27 310.697 1028.28 309.437 1029.41 308.429C1031.8 306.287 1035.08 305.279 1037.47 303.137C1038.73 302.003 1039.62 300.617 1039.74 298.852C1039.99 297.214 1039.74 295.45 1039.49 293.686C1039.24 291.922 1038.86 290.158 1038.86 288.394C1038.86 286.63 1039.24 284.74 1040.25 283.354C1041.25 281.968 1042.64 280.834 1044.15 280.078C1044.91 279.7 1045.66 279.448 1046.55 279.322C1047.43 279.196 1048.06 279.07 1048.81 278.818C1050.2 278.44 1051.59 277.684 1052.59 276.676C1053.1 276.172 1053.35 275.542 1053.6 274.912C1053.85 274.282 1054.23 273.652 1054.61 273.022C1056.12 270.628 1057.89 268.738 1059.78 267.352C1060.66 266.596 1061.67 265.966 1062.8 265.714C1063.81 265.462 1064.82 265.336 1065.82 265.336C1067.71 265.336 1069.35 265.588 1070.61 266.092C1071.87 266.596 1072.63 267.352 1073.01 267.982C1073.13 268.234 1073.26 268.486 1073.26 268.738C1072.88 268.612 1073.01 268.738 1072.88 268.738Z" fill="#455A64"/>
<g opacity="0.3">
<g opacity="0.3">
<path opacity="0.3" d="M1021.98 455.601C1015.04 437.204 1014.79 416.288 1019.08 397.135C1018.07 407.341 1019.58 417.548 1021.72 427.502C1023.74 436.952 1026.13 437.078 1024.37 447.537C1024.12 448.923 1023.74 450.309 1023.24 451.695L1021.98 455.601Z" fill="black"/>
</g>
</g>
<path d="M1041 520.619C1041 520.619 992.742 533.975 990.852 534.605C987.954 535.613 988.458 546.323 992.994 546.071C995.136 545.945 1030.04 547.331 1034.45 547.079C1038.86 546.827 1050.7 542.165 1050.7 542.165L1041 520.619Z" fill="#E8505B"/>
<path d="M1020.84 539.015C1020.59 539.015 1020.21 536.495 1018.7 533.849C1017.19 531.203 1015.17 529.565 1015.3 529.439C1015.42 529.313 1017.82 530.573 1019.45 533.471C1021.09 536.369 1021.09 539.141 1020.84 539.015Z" fill="#263238"/>
<path d="M1025.88 536.747C1025.63 536.747 1025.13 534.479 1023.87 531.959C1022.61 529.439 1021.09 527.675 1021.22 527.549C1021.35 527.423 1023.24 528.935 1024.62 531.581C1026.01 534.353 1026.13 536.747 1025.88 536.747Z" fill="#263238"/>
<path d="M1030.67 535.487C1030.42 535.487 1030.67 533.093 1029.54 530.447C1028.53 527.801 1026.76 526.163 1026.89 525.911C1027.02 525.785 1029.16 527.171 1030.29 530.069C1031.43 532.967 1030.8 535.613 1030.67 535.487Z" fill="#263238"/>
<path d="M1029.79 529.313C1029.66 529.313 1029.28 527.927 1029.28 525.785C1029.28 524.651 1029.41 523.265 1029.79 521.879C1029.91 521.123 1030.17 520.367 1030.54 519.611C1030.67 519.233 1030.92 518.729 1031.3 518.477C1031.8 518.099 1032.56 518.099 1032.94 518.603C1033.44 518.981 1033.57 519.485 1033.57 519.989C1033.57 520.493 1033.69 520.871 1033.57 521.249C1033.57 522.131 1033.44 522.887 1033.32 523.643C1032.94 525.155 1032.43 526.289 1031.8 527.297C1030.67 529.313 1029.66 530.195 1029.66 530.195C1029.54 530.069 1030.42 528.935 1031.3 527.045C1031.8 526.037 1032.31 524.903 1032.56 523.517C1032.69 522.761 1032.81 522.131 1032.81 521.375C1032.81 520.619 1032.81 519.737 1032.31 519.359C1032.06 519.107 1031.93 519.107 1031.68 519.359C1031.43 519.485 1031.3 519.863 1031.17 520.241C1030.92 520.997 1030.67 521.627 1030.42 522.383C1030.04 523.769 1029.91 525.029 1029.79 526.163C1029.66 527.927 1029.91 529.313 1029.79 529.313Z" fill="#263238"/>
<path d="M1029.91 528.809C1029.91 528.683 1031.05 528.305 1033.06 528.305C1034.07 528.305 1035.21 528.431 1036.47 528.683C1037.1 528.809 1037.73 529.061 1038.48 529.439C1039.11 529.817 1039.87 530.699 1039.62 531.581C1039.36 532.463 1038.61 533.093 1037.85 533.345C1037.1 533.597 1036.34 533.471 1035.71 533.345C1034.32 533.093 1033.32 532.337 1032.56 531.833C1031.05 530.573 1030.29 529.691 1030.29 529.565C1030.42 529.439 1031.3 530.195 1032.81 531.329C1033.57 531.833 1034.58 532.337 1035.71 532.589C1036.34 532.715 1036.97 532.715 1037.47 532.589C1038.1 532.463 1038.48 531.959 1038.61 531.455C1038.73 530.951 1038.48 530.447 1037.85 530.069C1037.35 529.691 1036.72 529.565 1036.09 529.439C1034.95 529.061 1033.82 528.935 1032.81 528.809C1031.05 528.683 1029.91 528.935 1029.91 528.809Z" fill="#263238"/>
<path d="M1013.53 539.645C1013.28 539.645 1013.53 537.503 1012.52 535.235C1011.64 532.967 1010 531.707 1010.13 531.455C1010.26 531.203 1012.27 532.463 1013.28 534.983C1014.29 537.503 1013.66 539.645 1013.53 539.645Z" fill="#263238"/>
<path d="M1047.18 541.787C1047.18 541.787 1046.55 542.165 1045.29 542.669C1044.03 543.173 1042.26 543.803 1039.87 544.307C1035.21 545.441 1028.65 546.071 1021.47 546.071C1014.29 545.945 1007.74 545.693 1002.95 545.441C1000.68 545.315 998.79 545.189 997.404 545.189C996.144 545.063 995.388 545.063 995.388 544.937C995.388 544.937 996.144 544.811 997.404 544.811C998.916 544.811 1000.81 544.811 1002.95 544.811C1007.86 544.937 1014.29 545.063 1021.35 545.189C1028.53 545.315 1035.08 544.685 1039.62 543.677C1044.4 542.795 1047.05 541.661 1047.18 541.787Z" fill="#263238"/>
<path d="M1048.56 542.921C1048.44 543.047 1047.18 542.291 1044.91 541.283C1042.77 540.275 1039.36 539.267 1035.84 539.771C1032.18 540.275 1029.66 542.795 1027.9 544.433C1026.26 546.197 1025.25 547.331 1025.13 547.331C1025 547.331 1025.88 545.945 1027.52 544.055C1028.28 543.173 1029.41 542.039 1030.67 541.031C1032.06 540.023 1033.69 539.267 1035.71 538.889C1039.62 538.259 1043.02 539.645 1045.16 540.653C1047.43 541.913 1048.69 542.795 1048.56 542.921Z" fill="#263238"/>
<path d="M1000.18 544.937C1000.05 544.937 1000.55 544.181 1000.93 543.173C1001.31 542.039 1001.56 540.401 1001.31 538.637C1000.93 536.873 1000.18 535.487 999.42 534.479C998.664 533.597 998.034 533.093 998.16 532.967C998.16 532.841 998.916 533.219 999.798 534.101C1000.68 534.983 1001.69 536.495 1002.07 538.385C1002.44 540.275 1002.07 542.039 1001.56 543.173C1000.81 544.433 1000.18 545.063 1000.18 544.937Z" fill="#263238"/>
<path d="M1050.58 470.847C1050.58 469.965 1051.21 469.335 1052.09 469.335L1096.95 468.831L1114.59 414.02C1115.22 412.13 1116.98 410.996 1118.87 410.996L1186.91 412.886C1189.94 413.012 1191.95 416.036 1190.82 418.808L1169.4 475.509L1051.96 472.611C1051.21 472.359 1050.58 471.603 1050.58 470.847Z" fill="#455A64"/>
<path d="M1151 441.488C1150.25 439.976 1146.84 439.472 1145.21 440.732C1144.2 441.362 1143.44 442.244 1143.06 443.504C1142.56 445.269 1143.57 447.411 1145.46 448.041C1147.22 448.545 1149.11 447.663 1150.25 446.277C1151.25 444.891 1151.76 443 1151 441.488Z" fill="white"/>
<path d="M240.843 547.677C218.481 490.798 138.685 385.927 104.74 438.766C98.1442 449.108 104.258 465.59 114.554 477.224C144.799 511.643 176.813 501.462 211.08 547.677" fill="#CADBF4"/>
<path d="M226.685 547.677C188.718 467.367 109.406 432.464 109.406 432.464" stroke="white" stroke-miterlimit="10" stroke-linejoin="round"/>
<path d="M255.482 547.677C268.513 460.258 216.711 294.792 149.464 338.097C134.02 347.954 141.42 386.25 150.108 407.903C172.148 462.035 209.31 475.77 224.433 547.677" fill="#B7D4FF"/>
<path d="M242.773 547.515C241.647 434.08 156.382 334.381 156.382 334.381" stroke="white" stroke-miterlimit="10" stroke-linejoin="round"/>
<defs>
<clipPath id="clip0">
<rect width="858" height="462" fill="white" transform="translate(200 88)"/>
</clipPath>
</defs>
</svg>
