<svg width="242" height="268" viewBox="0 0 242 268" fill="none" xmlns="http://www.w3.org/2000/svg">
<g clip-path="url(#clip0)">
<path d="M150.276 120.238C153.176 122.954 154.264 127.3 151.545 130.559C149.007 133.638 144.112 134.362 140.849 131.827C133.055 125.851 141.212 114.986 149.551 117.159C151.001 117.522 150.638 119.695 149.188 119.876C146.831 120.057 144.112 120.057 142.118 121.868C139.943 123.678 139.943 126.757 141.756 128.93C146.288 134.543 154.082 126.214 149.369 121.324C148.644 120.419 149.551 119.514 150.276 120.238Z" fill="#8AA9FC"/>
<path d="M70.6966 129.654C69.6089 133.457 68.5213 137.441 67.2524 141.243C66.8898 142.149 66.1647 142.511 65.2584 141.968C62.1767 139.795 59.0951 137.803 56.0134 135.449C55.4696 135.086 55.6509 134 56.1947 133.638C59.6389 131.284 64.352 127.843 68.7026 127.662C69.7902 127.662 70.5153 129.292 69.4277 129.835C67.6149 130.922 65.6209 131.284 63.6269 132.008C61.4516 132.914 59.2763 134 57.2823 135.268C57.2823 134.543 57.2823 134 57.1011 133.276C60.364 135.268 63.4456 137.622 66.7086 139.795C66.1647 139.976 65.4396 139.976 64.8958 140.157C66.1647 136.354 67.6149 132.551 69.0651 128.93C69.6089 128.386 71.0591 128.749 70.6966 129.654Z" fill="#E3707F"/>
<path d="M48.9438 150.116C44.2307 147.943 39.5176 145.408 35.3483 142.33C33.8981 141.243 35.3483 139.07 36.9798 139.976C41.5116 142.33 45.8621 145.408 49.8502 148.486C50.5753 149.03 49.8502 150.659 48.9438 150.116Z" fill="#83DAED"/>
<path d="M219.522 164.241C220.428 159.17 221.697 153.919 223.51 149.211C224.235 147.4 226.592 148.305 226.229 150.116C225.142 155.005 223.329 160.076 221.335 164.603C220.972 165.508 219.341 165.327 219.522 164.241Z" fill="#E8947E"/>
<path d="M205.02 119.695L205.202 119.513C206.289 118.427 208.283 118.246 209.371 119.513C210.458 120.781 210.458 122.411 209.371 123.678L209.19 123.859C208.102 124.946 206.108 124.946 205.02 123.859C203.933 122.592 203.751 120.781 205.02 119.695Z" fill="#251A51"/>
<path d="M81.573 249.53C81.573 249.53 130.336 260.757 149.913 241.381L142.843 194.662C140.668 181.262 141.937 155.368 131.786 146.314C129.792 144.503 127.798 143.597 127.798 143.597C120.547 140.157 107.676 138.165 95.3498 138.165C80.3041 138.165 64.8958 149.392 61.0891 163.878L77.2224 201.724L81.573 249.53Z" fill="#1F9DC5"/>
<path d="M86.286 169.673C86.286 169.673 64.5332 211.684 75.2284 213.857C110.939 221.281 131.604 227.257 131.604 227.257L133.417 241.019C132.873 243.192 61.2703 241.381 52.9317 231.784C46.9497 225.084 38.9737 209.33 55.8321 175.468L60.9077 163.878L86.286 169.673Z" fill="#FDE4E1"/>
<path d="M127.254 147.943L181.636 168.949L183.267 140.519L194.869 135.992C194.869 135.992 211.727 181.624 190.7 190.135C169.672 198.646 145.925 182.892 145.925 182.892L127.254 147.943Z" fill="#FDE4E1"/>
<path d="M120.547 141.062C139.58 147.038 150.819 154.1 177.467 165.327L163.69 195.93L140.124 188.324L120.547 141.062Z" fill="#1F9DC5"/>
<path d="M89.549 163.878L75.7722 195.749L44.7744 190.135L65.6209 154.1L90.4553 163.878" fill="#1F9DC5"/>
<path d="M105.864 185.608C99.1565 185.246 92.6307 185.608 86.1048 185.608C85.561 185.608 85.561 184.884 86.1048 184.703C92.6307 183.978 99.3378 184.159 105.864 184.884C106.407 184.884 106.407 185.608 105.864 185.608Z" fill="#1A3066"/>
<path d="M76.1348 148.486C98.4315 150.478 83.2045 183.435 77.4037 193.395C77.0412 193.938 76.3161 193.395 76.4973 192.851C82.1168 182.711 97.5251 152.108 75.9535 149.03C75.7722 149.03 75.9535 148.486 76.1348 148.486Z" fill="#1A3066"/>
<path d="M138.13 167.319C140.849 178.365 142.662 189.773 143.387 201C143.387 201.543 142.662 201.543 142.481 201.181C140.849 189.954 139.218 178.727 137.405 167.5C137.586 167.138 138.13 166.957 138.13 167.319Z" fill="#1A3066"/>
<path d="M85.7423 106.476C85.3797 101.768 85.0172 97.0595 84.6546 92.3514C81.0291 91.2649 79.0351 86.5568 80.4853 82.9351C81.9355 79.3135 86.1048 77.3216 89.9115 77.8649C87.555 76.2351 87.7363 72.2513 89.7303 70.2595C91.7243 68.0865 94.8059 67.3622 97.7063 67.3622C100.607 67.1811 103.507 67.5432 106.407 67C108.945 66.4568 111.483 65.3703 114.021 65.7324C116.559 66.0946 119.097 68.9919 117.646 71.1649C121.272 70.6216 125.26 70.0784 128.704 71.8892C131.967 73.7 133.598 78.7703 130.879 81.1243C132.692 82.0297 133.236 84.7459 132.148 86.5568C131.061 88.3676 128.885 89.273 126.891 89.4541C124.716 89.6351 122.722 89.0919 120.728 88.5487" fill="#073143"/>
<path d="M86.4673 97.4217L87.1924 107.2C87.1924 107.2 78.8539 108.287 81.2104 115.892C83.567 123.497 89.3677 120.238 89.3677 120.238C89.3677 120.238 90.8179 139.795 110.758 133.457C126.71 128.568 125.622 107.924 123.628 90.3595C122.903 83.4784 116.377 78.9514 109.67 80.219L97.7063 82.573C90.6366 84.0217 85.9235 90.3595 86.4673 97.4217Z" fill="#FDE4E1"/>
<path d="M87.1924 115.349L92.6306 143.959C93.8995 150.478 100.244 154.643 106.589 153.013C112.571 151.565 116.377 145.77 115.29 139.795L112.389 123.316L87.1924 115.349Z" fill="#FDE4E1"/>
<path d="M109.308 115.53C109.308 115.53 109.127 115.892 109.852 116.254C110.395 116.616 111.483 115.892 111.664 114.986C112.027 114.081 112.027 112.995 111.846 111.727C111.846 110.459 111.664 109.192 111.664 107.924C111.302 102.492 110.758 98.1459 110.577 98.1459C110.395 98.1459 110.395 102.492 110.758 107.924C110.939 109.192 110.939 110.459 111.121 111.727C111.302 112.813 111.302 113.9 111.121 114.805C110.939 115.53 110.395 116.073 110.033 115.892C109.489 115.892 109.308 115.53 109.308 115.53Z" fill="#073143"/>
<path d="M115.834 131.465C115.834 131.284 114.746 132.008 113.115 132.732C111.483 133.457 109.126 134.181 106.407 134.362C103.688 134.362 101.15 133.819 99.519 133.095C97.8875 132.37 96.7999 131.827 96.7999 132.008C96.7999 132.008 97.525 132.914 99.3377 133.819C100.969 134.724 103.507 135.449 106.407 135.449C109.308 135.449 111.846 134.543 113.477 133.638C114.927 132.37 115.834 131.465 115.834 131.465Z" fill="#073143"/>
<path d="M111.846 119.695C111.664 119.514 111.302 120.057 110.395 120.419C109.489 120.781 108.22 121.143 106.951 120.6C105.682 120.238 104.776 119.151 104.413 118.427C103.87 117.703 103.87 116.978 103.688 116.978C103.507 116.978 103.507 117.703 103.87 118.608C104.232 119.514 105.139 120.962 106.77 121.324C108.401 121.868 109.852 121.324 110.758 120.781C111.664 120.238 112.027 119.695 111.846 119.695Z" fill="#073143"/>
<path d="M86.4673 116.797C86.4673 116.616 85.9235 116.616 85.3796 116.254C85.0171 116.073 84.8358 115.892 84.8358 115.53C84.8358 115.168 84.8358 114.805 85.1984 114.805C85.3797 114.805 85.5609 114.805 85.7422 114.805L86.4673 114.443C85.7422 112.814 85.0171 111.908 84.8358 111.908C84.6546 111.908 85.0171 113.176 85.5609 114.805L86.286 114.443C85.9235 113.9 85.1984 113.719 84.6546 113.9C84.292 114.081 83.9295 114.443 83.7482 114.805C83.5669 115.168 83.7482 115.53 83.7482 115.892C83.9295 116.435 84.4733 116.797 84.8358 116.978C86.1047 117.159 86.4673 116.978 86.4673 116.797Z" fill="#073143"/>
<path d="M101.876 97.4216C102.057 97.2405 100.969 96.6973 99.7003 97.0594C98.4313 97.4216 97.7062 98.327 97.8875 98.5081C98.0688 98.6892 98.7939 98.1459 99.8815 97.9649C100.969 97.7838 101.876 97.7838 101.876 97.4216Z" fill="#073143"/>
<path d="M119.278 94.7054C119.459 94.5243 118.371 93.7999 116.921 93.981C115.471 94.1621 114.565 94.8864 114.746 95.0675C114.927 95.2486 115.834 94.8864 117.103 94.8864C118.19 94.8864 119.097 95.0675 119.278 94.7054Z" fill="#073143"/>
<path d="M87.1924 107.2C92.8118 101.768 94.4433 92.7134 95.8935 85.108C100.969 88.9107 108.22 89.8161 114.202 87.4621C116.015 89.6351 118.19 91.627 120.728 93.0756C121.453 93.4378 122.178 93.981 123.085 93.7999C123.991 93.4378 124.353 92.5324 124.716 91.4459C125.441 88.3675 125.441 85.108 124.353 82.2107C123.266 79.3134 121.09 76.7783 118.19 75.5107C115.108 74.2432 111.483 74.7864 108.401 75.6918C103.507 76.9594 98.7939 78.9513 94.4433 81.4864C90.0927 84.0216 86.1047 87.281 84.292 91.808C82.4793 96.3351 82.4793 105.389 86.8298 107.743" fill="#073143"/>
<path d="M100.425 105.57C100.607 105.57 100.788 104.846 100.788 104.122C100.788 103.216 100.425 102.673 100.244 102.673C100.063 102.673 99.8816 103.397 99.8816 104.122C99.8816 104.846 100.244 105.57 100.425 105.57Z" fill="#073143"/>
<path d="M116.377 103.397C116.559 103.397 116.74 102.673 116.74 101.949C116.74 101.043 116.377 100.5 116.196 100.5C116.015 100.5 115.834 101.224 115.834 101.949C116.015 102.854 116.196 103.397 116.377 103.397Z" fill="#073143"/>
<path d="M195.594 137.078C195.594 137.078 193.237 122.23 190.337 122.411C187.437 122.592 181.636 122.411 181.636 122.411C181.636 122.411 181.092 108.287 179.642 110.641C178.01 112.814 177.467 131.827 183.63 140.881L195.594 137.078Z" fill="#FDE4E1"/>
<path d="M131.604 227.257C131.604 227.257 157.527 231.784 156.983 235.043C156.439 238.484 154.626 241.743 154.626 241.743L131.604 241.2V227.257Z" fill="#FDE4E1"/>
<path d="M103.507 242.649L103.688 239.027L156.983 235.767L174.929 188.143L233.299 191.403L213.359 242.83L103.507 242.649Z" fill="#0D3542"/>
<path opacity="0.41" d="M201.032 214.038C200.851 216.392 198.857 218.203 196.5 218.203C194.144 218.022 192.331 216.03 192.331 213.676C192.512 211.322 194.506 209.511 196.863 209.511C199.401 209.692 201.213 211.684 201.032 214.038Z" fill="white"/>
<path opacity="0.41" d="M202.845 214.219C202.664 217.478 199.763 220.195 196.5 220.013C193.237 219.832 190.518 216.935 190.7 213.676C190.881 210.416 193.781 207.7 197.044 207.881C200.488 207.881 203.026 210.778 202.845 214.219Z" fill="white"/>
<path d="M242 243.735L13.4142 240.838L0 247.9C0 247.9 175.473 296.068 242 243.735Z" fill="#EFF3FF"/>
<path d="M63.2644 74.7866C63.9895 76.0541 61.6329 110.822 61.6329 110.822L44.5932 109.373L46.5872 118.608L38.2486 109.192L21.5715 107.2L22.6591 73.519L63.2644 74.7866Z" fill="#D2DBF3"/>
<path d="M106.589 20.8242C106.589 20.8242 118.372 21.3675 118.734 34.0432C118.734 34.0432 118.553 40.9242 114.746 43.4594C110.939 45.9945 111.302 48.7107 111.302 48.7107H101.513C101.513 48.7107 101.876 45.2702 100.426 43.2783C98.7941 41.2864 94.9873 37.1215 95.5311 31.1459C96.0749 24.9891 100.607 20.281 106.589 20.8242Z" fill="#EDFC95"/>
<path d="M111.483 51.7891C108.039 51.608 104.413 51.9701 100.969 51.7891C100.425 51.7891 100.244 50.8837 100.788 50.8837C104.232 50.1593 108.039 50.5215 111.483 50.8837C112.027 50.8837 112.027 51.7891 111.483 51.7891Z" fill="#073143"/>
<path d="M110.214 54.8674C108.764 54.8674 107.314 54.6863 106.045 54.6863C104.595 54.6863 103.145 54.8674 101.876 54.8674C101.332 54.8674 101.151 54.1431 101.694 53.962C104.413 53.2377 107.676 53.5998 110.396 53.962C110.758 53.962 110.577 54.8674 110.214 54.8674Z" fill="#073143"/>
<path d="M108.945 57.0404C107.676 57.0404 106.408 57.4026 105.139 57.4026C104.595 57.4026 104.414 56.4972 104.957 56.3161C106.226 55.9539 107.676 56.135 108.764 56.135C109.489 56.3161 109.489 57.0404 108.945 57.0404Z" fill="#073143"/>
<path d="M108.402 48.5296C108.039 45.0891 109.308 41.1053 109.852 37.8458C110.214 38.0269 110.577 38.208 110.939 38.208C110.396 38.9323 109.67 41.2864 108.402 41.2864C107.133 41.2864 106.589 38.9323 106.407 37.8458C106.77 37.8458 107.133 37.8458 107.495 37.8458C107.314 38.9323 107.133 41.4674 105.501 41.2864C104.051 41.1053 103.145 38.9323 102.601 37.8458C102.963 37.6647 103.326 37.6647 103.688 37.4837C104.595 40.9242 104.957 45.2701 104.051 48.7107C103.87 49.2539 102.963 49.2539 102.963 48.5296C103.145 44.908 103.507 41.4674 102.419 37.8458C102.238 37.1215 103.326 36.7593 103.507 37.4837C103.688 37.8458 104.595 40.1999 105.501 39.8377C105.682 39.8377 106.045 37.6647 106.045 37.4837C106.226 36.9404 107.133 36.9404 107.133 37.4837C107.314 38.208 107.495 40.0188 108.402 39.4756C108.945 39.1134 109.308 38.0269 109.67 37.4837C110.033 36.9404 110.758 37.3026 110.758 37.8458C110.214 41.2864 110.033 45.2701 108.764 48.5296C108.764 48.8918 108.402 48.7107 108.402 48.5296Z" fill="#073143"/>
<path d="M143.025 44.1837C137.768 42.554 132.33 41.1054 127.254 39.1135C126.891 38.9324 127.073 38.3891 127.435 38.3891C132.692 39.6567 137.949 41.6486 143.206 43.2783C143.75 43.4594 143.569 44.3648 143.025 44.1837Z" fill="white"/>
<path d="M136.68 28.6108C133.417 28.6108 129.973 28.7919 126.71 28.2487C126.166 28.2487 126.166 27.3433 126.71 27.3433C129.973 27.1622 133.417 27.5243 136.68 27.5243C137.224 27.7054 137.224 28.6108 136.68 28.6108Z" fill="white"/>
<path d="M120.909 22.8162C124.535 19.5567 128.16 15.573 132.33 13.0378C133.055 12.6757 133.599 13.5811 133.055 14.1243C129.792 17.7459 125.26 20.4621 121.453 23.5405C121.091 23.9027 120.366 23.3594 120.909 22.8162Z" fill="white"/>
<path d="M112.571 17.9271C112.571 16.8406 113.296 15.9352 113.84 15.0298C114.384 13.9433 114.927 12.8568 115.834 11.9514C116.196 11.5892 117.103 11.9514 116.921 12.4946C116.559 13.5811 115.652 14.6676 115.109 15.573C114.565 16.4784 114.021 17.5649 113.115 18.1081C112.752 18.1081 112.571 18.1081 112.571 17.9271Z" fill="white"/>
<path d="M104.595 15.7541C104.413 10.8649 104.232 5.61351 104.957 0.543243C104.957 -0.181081 106.045 -0.181081 106.045 0.543243C106.407 5.61351 106.045 10.8649 105.682 15.7541C105.682 16.4784 104.595 16.4784 104.595 15.7541Z" fill="white"/>
<path d="M98.794 18.108C97.5251 16.2972 96.2562 14.4864 95.3498 12.3135C94.9873 11.5891 95.8936 11.0459 96.4375 11.7702C97.7064 13.581 98.6127 15.5729 99.7004 17.5648C99.8817 18.2891 99.1566 18.6513 98.794 18.108Z" fill="white"/>
<path d="M94.2622 22.454C91.7244 21.3675 89.3678 20.0999 87.0113 18.8324C84.836 17.3837 82.1169 16.2972 80.1229 14.4864C79.7603 14.1243 80.1229 13.3999 80.6667 13.581C83.0232 14.3053 85.1985 15.9351 87.3738 17.2026C89.9116 18.6513 92.2682 19.9189 94.6247 21.5486C94.9873 21.9107 94.806 22.6351 94.2622 22.454Z" fill="white"/>
<path d="M90.9993 28.792C89.1866 29.5163 85.9236 28.9731 84.6547 27.5244C84.1109 26.9812 84.6547 26.4379 85.1986 26.4379C86.1049 26.619 87.0113 27.1622 88.0989 27.3433C89.0053 27.5244 90.0929 27.5244 90.9993 27.7055C91.5431 28.0676 91.3619 28.792 90.9993 28.792Z" fill="white"/>
<path d="M90.2742 37.846C83.2045 39.6568 75.9536 41.6487 68.7027 42.5541C67.7963 42.7351 67.7963 41.2865 68.5214 41.1054C75.4098 39.1135 82.842 38.027 89.9116 36.7595C90.6367 36.5784 90.9993 37.6649 90.2742 37.846Z" fill="white"/>
<path d="M189.975 160.8C189.793 159.17 189.793 157.722 188.887 156.454C187.074 153.738 184.718 154.462 182.361 155.549C180.005 156.816 177.648 157.541 174.929 156.273C170.76 154.462 168.947 148.305 172.754 145.408C174.023 144.503 175.291 145.951 175.11 147.219C174.929 148.849 174.023 150.659 175.473 152.108C177.467 154.1 179.642 152.47 181.636 151.565C183.63 150.659 185.987 150.478 187.981 151.203C191.606 152.651 194.325 157.722 191.425 160.981C191.062 161.705 190.156 161.343 189.975 160.8Z" fill="white"/>
<path d="M135.774 163.697C130.879 162.43 125.622 160.619 121.091 158.446C119.459 157.722 120.547 155.187 122.178 155.73C127.073 157.178 131.786 159.351 136.318 161.705C137.224 162.43 137.043 164.059 135.774 163.697Z" fill="#EDC483"/>
<path d="M160.427 168.949C159.339 172.751 158.252 176.735 156.983 180.538C156.62 181.443 155.895 181.805 154.989 181.262C151.907 179.089 148.826 177.097 145.744 174.743C145.2 174.381 145.381 173.295 145.925 172.932C149.369 170.578 154.082 167.138 158.433 166.957C159.521 166.957 160.246 168.586 159.158 169.13C157.345 170.216 155.351 170.578 153.357 171.303C151.182 172.208 149.007 173.295 147.013 174.562C147.013 173.838 147.013 173.295 146.832 172.57C150.094 174.562 153.176 176.916 156.439 179.089C155.895 179.27 155.17 179.27 154.626 179.451C155.895 175.649 157.345 171.846 158.796 168.224C159.339 167.681 160.608 168.043 160.427 168.949Z" fill="#EDE6F5"/>
<path d="M153.539 207.7C148.463 208.062 143.025 208.243 137.949 207.7C136.136 207.519 136.318 204.984 138.13 204.803C143.206 204.622 148.463 204.984 153.357 205.708C154.445 205.889 154.808 207.519 153.539 207.7Z" fill="#073143"/>
<path d="M53.8383 90.3595L50.2128 102.854L45.1371 101.949L45.681 99.4135L44.2308 98.5081L41.5117 101.224L32.9918 99.5946L31.9042 96.3351L34.2607 95.7919L31.1791 94.7054L31.9042 91.2649L34.6233 91.4459L30.9978 90.3595L31.9042 86.0135L40.6053 87.6432C40.6053 87.6432 40.0615 81.6676 42.5993 79.6757L44.5933 80.0378C44.5933 80.0378 43.8682 81.8487 44.0495 83.1162C44.0495 84.2027 45.8622 89.6351 45.8622 89.6351L48.5813 90.9027L49.1251 89.0919L53.8383 90.3595Z" fill="white"/>
<path d="M230.036 67L227.136 101.586H163.327L159.883 113.719L156.076 100.319L143.931 99.5946L149.551 68.6297L230.036 67Z" fill="#D2DBF3"/>
<path d="M221.697 79.6756C199.763 78.7702 177.829 78.7702 155.895 80.7621C155.17 80.7621 155.17 79.6756 155.895 79.4945C177.829 77.8648 199.763 77.1405 221.697 78.5891C222.241 78.7702 222.241 79.8567 221.697 79.6756Z" fill="white"/>
<path d="M220.429 86.5567C198.494 85.6513 176.56 85.6513 154.626 87.6432C153.901 87.6432 153.901 86.5567 154.626 86.3756C176.56 84.7459 198.494 84.0216 220.429 85.4702C220.972 85.4702 220.972 86.5567 220.429 86.5567Z" fill="white"/>
<path d="M220.247 92.3512C205.564 92.8944 190.881 91.808 176.198 93.0755C175.473 93.0755 175.473 91.989 176.198 91.808C190.881 90.7215 205.564 91.4458 220.247 91.2647C220.972 91.2647 220.972 92.1701 220.247 92.3512Z" fill="white"/>
</g>
<defs>
<clipPath id="clip0">
<rect width="242" height="268" fill="white" transform="matrix(-1 0 0 1 242 0)"/>
</clipPath>
</defs>
</svg>
