<svg width="24" height="24" viewBox="0 0 24 24" fill="none" xmlns="http://www.w3.org/2000/svg">
<path d="M20.6672 6.3891C20.6955 6.37258 20.719 6.34894 20.7353 6.32052C20.7516 6.29211 20.7602 6.25991 20.7602 6.22714C20.7602 6.19437 20.7516 6.16218 20.7353 6.13376C20.719 6.10534 20.6955 6.0817 20.6672 6.06519L13.5075 1.9055C13.0494 1.63996 12.5293 1.50012 11.9998 1.50012C11.4702 1.50012 10.9501 1.63996 10.492 1.9055L3.33374 6.06519C3.30543 6.0817 3.28195 6.10534 3.26563 6.13376C3.24931 6.16218 3.24072 6.19437 3.24072 6.22714C3.24072 6.25991 3.24931 6.29211 3.26563 6.32052C3.28195 6.34894 3.30543 6.37258 3.33374 6.3891L11.9062 11.4319C11.9351 11.4489 11.9679 11.4578 12.0014 11.4578C12.0349 11.4578 12.0677 11.4489 12.0966 11.4319L20.6672 6.3891Z" fill="#016E9C"/>
<path d="M2.53125 7.66453C2.50266 7.64802 2.47022 7.63935 2.4372 7.6394C2.40418 7.63946 2.37177 7.64823 2.34323 7.66483C2.31469 7.68143 2.29104 7.70527 2.27467 7.73394C2.2583 7.76262 2.24979 7.7951 2.25 7.82812V15.9792C2.25071 16.372 2.35424 16.7578 2.55029 17.0982C2.74634 17.4385 3.02809 17.7217 3.3675 17.9194L10.9688 22.477C10.9972 22.4935 11.0296 22.5021 11.0625 22.5021C11.0954 22.5022 11.1277 22.4935 11.1562 22.4771C11.1847 22.4606 11.2083 22.437 11.2248 22.4085C11.2413 22.38 11.25 22.3477 11.25 22.3148V12.8578C11.25 12.8249 11.2413 12.7926 11.2248 12.7642C11.2084 12.7357 11.1847 12.7121 11.1563 12.6956L2.53125 7.66453Z" fill="#016E9C"/>
<path d="M12.75 12.8906V22.3125C12.75 22.3454 12.7587 22.3777 12.7752 22.4062C12.7917 22.4347 12.8153 22.4583 12.8438 22.4747C12.8723 22.4912 12.9047 22.4998 12.9375 22.4998C12.9704 22.4998 13.0028 22.4911 13.0312 22.4747L20.632 17.917C20.9712 17.7196 21.2528 17.4369 21.4489 17.0969C21.645 16.757 21.7488 16.3717 21.75 15.9792V7.82814C21.7499 7.79528 21.7411 7.76303 21.7246 7.73462C21.7081 7.70621 21.6844 7.68263 21.656 7.66625C21.6275 7.64987 21.5952 7.64127 21.5623 7.6413C21.5295 7.64133 21.4972 7.64999 21.4688 7.66642L12.8438 12.7289C12.8153 12.7453 12.7917 12.7689 12.7753 12.7973C12.7588 12.8256 12.7501 12.8578 12.75 12.8906Z" fill="#016E9C"/>
</svg>
