<svg width="24" height="24" viewBox="0 0 24 24" fill="none" xmlns="http://www.w3.org/2000/svg">
<g clip-path="url(#clip0)">
<path d="M23.619 10.8485L12.5189 0.208603C12.2291 -0.0695343 11.7709 -0.0695343 11.4811 0.208603L0.370056 10.8595C0.134949 11.0946 0 11.4185 0 11.7496C0 12.4386 0.561035 12.9996 1.25006 12.9996H3V22.4995C3 23.3275 3.672 23.9995 4.5 23.9995H8.75006C9.16406 23.9995 9.50006 23.6635 9.50006 23.2495V16.7496C9.50006 16.6125 9.61194 16.4995 9.75 16.4995H14.25C14.387 16.4995 14.4999 16.6125 14.4999 16.7496V23.2495C14.4999 23.6635 14.8359 23.9995 15.2499 23.9995H19.5C20.328 23.9995 21 23.3275 21 22.4995V12.9996H22.7499C23.439 12.9996 24 12.4386 24 11.7496C24 11.4185 23.8651 11.0946 23.619 10.8485Z" fill="white"/>
</g>
<defs>
<clipPath id="clip0">
<rect width="24" height="24" fill="white"/>
</clipPath>
</defs>
</svg>
